<?xml version="1.0" encoding="UTF-8" standalone="no"?>
<svg
   xmlns:svg="http://www.w3.org/2000/svg"
   xmlns="http://www.w3.org/2000/svg"
   version="1.0"
   width="352"
   height="352"
   id="Unit circle">
  <defs
     id="defs4">
    <marker
       markerUnits="strokeWidth"
       refX="0"
       refY="5"
       markerWidth="4"
       markerHeight="3"
       orient="auto"
       viewBox="0 0 10 10"
       id="ArrowEnd">
      <path
         d="M 0,0 L 10,5 L 0,10 L 0,0 z "
         id="path7" />
    </marker>
    <marker
       markerUnits="strokeWidth"
       refX="10"
       refY="5"
       markerWidth="4"
       markerHeight="3"
       orient="auto"
       viewBox="0 0 10 10"
       id="ArrowStart">
      <path
         d="M 10,0 L 0,5 L 10,10 L 10,0 z "
         id="path10" />
    </marker>
  </defs>
  <g
     transform="matrix(3.146317,0,0,3.146317,-240.1563,-10.71543)"
     id="g12">
    <path
       d="M 0,722.108 L 0,722.108 L 0,722.108 z "
       style="fill:#000000;fill-rule:evenodd;stroke:none"
       id="path14" />
    <path
       d="M 173.579,67.58 L 179.158,65.587 L 173.579,63.594 L 175.811,65.587"
       style="fill:#000000;fill-rule:evenodd;stroke:none"
       id="path16" />
    <path
       d="M 56.136,65.588 L 175.811,65.588"
       style="fill:none;stroke:#000000;stroke-width:0.49813199"
       id="path18" />
    <path
       d="M 125.592,15.6089 L 123.599,10.03 L 121.606,15.6089 L 123.599,13.377"
       style="fill:#000000;fill-rule:evenodd;stroke:none"
       id="path20" />
    <path
       d="M 123.6,133.052 L 123.6,13.377"
       style="fill:none;stroke:#000000;stroke-width:0.49813199"
       id="path22" />
    <path
       d="M 162.886,65.588 C 162.886,43.891 145.297,26.3019 123.6,26.3019 C 101.903,26.3019 84.3142,43.891 84.3142,65.588 C 84.3142,87.285 101.903,104.874 123.6,104.874 C 145.297,104.874 162.886,87.285 162.886,65.588 z "
       style="fill:none;stroke:#000000;stroke-width:0.79701102"
       id="path24" />
    <path
       d="M 146.35,32.008 C 146.35,31.042 145.566,30.258 144.6,30.258 C 143.634,30.258 142.85,31.042 142.85,32.008 C 142.85,32.974 143.634,33.758 144.6,33.758 C 145.566,33.758 146.35,32.974 146.35,32.008"
       style="fill:#000000;fill-rule:evenodd;stroke:none"
       id="path26" />
    <path
       d="M 123.6,65.588 L 144.629,31.935"
       style="fill:none;stroke:#000000;stroke-width:0.79701102"
       id="path28" />
    <path
       d="M 133.043,58.664 L 128.857,57.174 L 131.152,60.9789 L 130.801,58.763"
       style="fill:#000000;fill-rule:evenodd;stroke:none"
       id="path32" />
    <path
       d="M 133.521,65.588 C 133.521,63.025 132.529,60.562 130.753,58.714"
       style="fill:none;stroke:#000000;stroke-width:0.49813199"
       id="path34" />
    <path
       d="M 138.352,56.008 L 139.288,56.008 C 139.487,56.008 139.586,56.0229 139.586,55.824 C 139.586,55.714 139.487,55.7079 139.308,55.7079 L 138.431,55.7079 C 138.79,54.298 138.839,54.1 138.839,54.04 C 138.839,53.871 138.719,53.808 138.55,53.808 C 138.52,53.808 138.241,53.817 138.151,54.1299 L 137.762,55.7079 L 136.826,55.7079 C 136.627,55.7079 136.527,55.714 136.527,55.903 C 136.527,56.0229 136.607,56.008 136.806,56.008 L 137.683,56.008 C 136.966,58.851 136.926,59.021 136.926,59.201 C 136.926,59.739 137.305,60.118 137.843,60.118 C 138.859,60.118 139.427,58.663 139.427,58.584 C 139.427,58.4839 139.347,58.4839 139.307,58.4839 C 139.218,58.4839 139.208,58.514 139.158,58.623 C 138.73,59.659 138.203,59.917 137.864,59.917 C 137.655,59.917 137.59,59.782 137.59,59.4399 C 137.59,59.201 137.597,59.131 137.615,58.962 L 138.352,56.008 z "
       style="fill:#000000;fill-rule:evenodd;stroke:none"
       id="path36" />
    <path
       d="M 141.298,27.799 C 141.298,27.769 141.298,27.749 141.129,27.58 C 139.884,26.325 139.601,24.442 139.601,22.917 C 139.601,21.184 139.971,19.451 141.169,18.205 C 141.299,18.086 141.299,18.066 141.299,18.0359 C 141.299,17.967 141.259,17.909 141.199,17.909 C 141.099,17.909 140.203,18.595 139.615,19.879 C 139.107,20.975 139.001,22.081 139.001,22.918 C 139.001,23.6949 139.108,24.901 139.645,26.026 C 140.243,27.251 141.1,27.908 141.199,27.908 C 141.259,27.908 141.299,27.875 141.299,27.799 L 141.298,27.799 z "
       style="fill:#000000;fill-rule:evenodd;stroke:none"
       id="path38" />
    <path
       d="M 145.477,21.562 C 145.069,21.592 145,21.891 145,22.02 C 145,22.279 145.183,22.507 145.467,22.507 C 145.726,22.507 145.9,22.327 145.9,22.0099 C 145.9,21.3329 145.155,20.938 144.401,20.938 C 143.156,20.938 142.3,22.017 142.3,23.2549 C 142.3,24.53 143.258,25.517 144.381,25.517 C 145.716,25.517 146.035,24.321 146.035,24.222 C 146.035,24.1219 145.935,24.1219 145.905,24.1219 C 145.815,24.1219 145.795,24.162 145.775,24.222 C 145.486,25.149 144.839,25.317 144.47,25.317 C 143.942,25.317 143.1,24.878 143.1,23.236 C 143.1,21.612 143.896,21.138 144.411,21.138 C 144.501,21.138 145.128,21.15 145.477,21.562 z "
       style="fill:#000000;fill-rule:evenodd;stroke:none"
       id="path40" />
    <path
       d="M 151,23.276 C 151,22.001 150,20.939 148.791,20.939 C 147.546,20.939 146.6,22.028 146.6,23.276 C 146.6,24.561 147.626,25.5179 148.781,25.5179 C 149.986,25.5179 151,24.542 151,23.276 z M 148.791,25.318 C 148.363,25.318 147.924,25.093 147.655,24.601 C 147.406,24.163 147.4,23.556 147.4,23.197 C 147.4,22.808 147.406,22.27 147.645,21.832 C 147.914,21.374 148.382,21.139 148.781,21.139 C 149.219,21.139 149.648,21.3669 149.907,21.812 C 150.166,22.24 150.201,22.817 150.201,23.196 C 150.201,23.555 150.167,24.093 149.947,24.5309 C 149.728,24.9789 149.289,25.317 148.791,25.317 L 148.791,25.318 z "
       style="fill:#000000;fill-rule:evenodd;stroke:none"
       id="path42" />
    <path
       d="M 153.472,23.475 C 153.691,23.515 154.5,23.674 154.5,24.392 C 154.5,24.9 154.154,25.318 153.383,25.318 C 152.546,25.318 152.187,24.7419 151.998,23.884 C 151.968,23.754 151.958,23.715 151.859,23.715 C 151.729,23.715 151.701,23.785 151.701,23.964 L 151.701,25.279 C 151.701,25.448 151.73,25.5179 151.839,25.5179 C 151.889,25.5179 151.899,25.508 152.088,25.319 C 152.108,25.299 152.108,25.279 152.287,25.09 C 152.725,25.508 153.174,25.5179 153.383,25.5179 C 154.529,25.5179 155,24.85 155,24.133 C 155,23.605 154.692,23.306 154.568,23.187 C 154.239,22.868 153.851,22.788 153.432,22.71 C 152.874,22.6 152.2,22.4709 152.2,21.8929 C 152.2,21.5439 152.461,21.14 153.323,21.14 C 154.419,21.14 154.469,22.033 154.489,22.3409 C 154.498,22.431 154.588,22.431 154.608,22.431 C 154.738,22.431 154.7,22.381 154.7,22.192 L 154.7,21.186 C 154.7,21.017 154.738,20.941 154.628,20.941 C 154.579,20.941 154.559,20.947 154.429,21.067 C 154.4,21.107 154.3,21.197 154.26,21.226 C 153.882,20.947 153.474,20.941 153.325,20.941 C 152.11,20.941 151.702,21.612 151.702,22.173 C 151.702,22.522 151.872,22.801 152.159,23.02 C 152.478,23.279 152.757,23.339 153.474,23.478 L 153.472,23.475 z "
       style="fill:#000000;fill-rule:evenodd;stroke:none"
       id="path44" />
    <path
       d="M 158.952,21.408 L 159.888,21.408 C 160.087,21.408 160.187,21.423 160.187,21.224 C 160.187,21.114 160.087,21.108 159.908,21.108 L 159.031,21.108 C 159.39,19.698 159.439,19.5 159.439,19.4399 C 159.439,19.271 159.319,19.2079 159.15,19.2079 C 159.12,19.2079 158.841,19.217 158.751,19.53 L 158.362,21.108 L 157.426,21.108 C 157.227,21.108 157.127,21.114 157.127,21.303 C 157.127,21.423 157.207,21.408 157.406,21.408 L 158.283,21.408 C 157.566,24.251 157.526,24.421 157.526,24.601 C 157.526,25.139 157.905,25.5179 158.443,25.5179 C 159.459,25.5179 160.027,24.063 160.027,23.9839 C 160.027,23.884 159.948,23.884 159.907,23.884 C 159.818,23.884 159.808,23.914 159.759,24.0229 C 159.331,25.059 158.803,25.317 158.464,25.317 C 158.255,25.317 158.19,25.1819 158.19,24.84 C 158.19,24.601 158.198,24.5309 158.215,24.362 L 158.952,21.408 z "
       style="fill:#000000;fill-rule:evenodd;stroke:none"
       id="path46" />
    <path
       d="M 162.5,25.3979 C 162.5,24.74 162.26,24.308 161.885,24.308 C 161.556,24.308 161.357,24.5779 161.357,24.8799 C 161.357,25.149 161.556,25.408 161.885,25.408 C 162.005,25.408 162.134,25.368 162.234,25.278 C 162.264,25.258 162.274,25.248 162.284,25.248 C 162.293,25.248 162.301,25.258 162.301,25.397 C 162.301,26.134 161.954,26.732 161.627,27.061 C 161.517,27.171 161.517,27.191 161.517,27.22 C 161.517,27.29 161.567,27.3069 161.617,27.3069 C 161.727,27.3069 162.5,26.549 162.5,25.397 L 162.5,25.3979 z "
       style="fill:#000000;fill-rule:evenodd;stroke:none"
       id="path48" />
    <path
       d="M 166.972,23.475 C 167.191,23.515 168,23.674 168,24.392 C 168,24.9 167.654,25.318 166.883,25.318 C 166.046,25.318 165.687,24.7419 165.498,23.884 C 165.468,23.754 165.458,23.715 165.359,23.715 C 165.229,23.715 165.201,23.785 165.201,23.964 L 165.201,25.279 C 165.201,25.448 165.23,25.5179 165.339,25.5179 C 165.389,25.5179 165.399,25.508 165.588,25.319 C 165.608,25.299 165.608,25.279 165.787,25.09 C 166.225,25.508 166.674,25.5179 166.883,25.5179 C 168.029,25.5179 168.5,24.85 168.5,24.133 C 168.5,23.605 168.192,23.306 168.068,23.187 C 167.739,22.868 167.351,22.788 166.932,22.71 C 166.374,22.6 165.7,22.4709 165.7,21.8929 C 165.7,21.5439 165.961,21.14 166.823,21.14 C 167.919,21.14 167.969,22.033 167.989,22.3409 C 167.998,22.431 168.088,22.431 168.108,22.431 C 168.238,22.431 168.2,22.381 168.2,22.192 L 168.2,21.186 C 168.2,21.017 168.238,20.941 168.128,20.941 C 168.079,20.941 168.059,20.947 167.929,21.067 C 167.9,21.107 167.8,21.197 167.76,21.226 C 167.382,20.947 166.974,20.941 166.825,20.941 C 165.61,20.941 165.202,21.612 165.202,22.173 C 165.202,22.522 165.372,22.801 165.659,23.02 C 165.978,23.279 166.257,23.339 166.974,23.478 L 166.972,23.475 z "
       style="fill:#000000;fill-rule:evenodd;stroke:none"
       id="path50" />
    <path
       d="M 170.7,21.0049 L 169.269,21.115 L 169.269,21.399 C 169.917,21.399 170,21.461 170,21.9709 L 170,24.651 C 170,25.099 169.891,25.108 169.229,25.108 L 169.229,25.407 C 169.548,25.3979 170.086,25.378 170.325,25.378 C 170.674,25.378 171.022,25.397 171.361,25.407 L 171.361,25.108 C 170.703,25.108 170.7,25.0569 170.7,24.6609 L 170.7,21.0049 z M 170.7,19.271 C 170.7,18.952 170.452,18.808 170.175,18.808 C 169.866,18.808 169.6,19.0439 169.6,19.271 C 169.6,19.54 169.839,19.908 170.175,19.908 C 170.454,19.908 170.7,19.6559 170.7,19.271 z "
       style="fill:#000000;fill-rule:evenodd;stroke:none"
       id="path52" />
    <path
       d="M 172.7,21.981 L 172.7,24.651 C 172.7,25.099 172.59,25.108 171.919,25.108 L 171.919,25.408 C 172.268,25.3979 172.776,25.378 173.045,25.378 C 173.304,25.378 173.822,25.3979 174.161,25.408 L 174.161,25.108 C 173.493,25.108 173.401,25.099 173.401,24.651 L 173.401,22.818 C 173.401,21.782 174.1,21.199 174.729,21.199 C 175.357,21.199 175.501,21.749 175.501,22.33 L 175.501,24.651 C 175.501,25.099 175.387,25.108 174.689,25.108 L 174.689,25.408 C 175.038,25.3979 175.546,25.378 175.815,25.378 C 176.074,25.378 176.592,25.3979 176.931,25.408 L 176.931,25.108 C 176.414,25.108 176.165,25.099 176.155,24.8 L 176.201,22.897 C 176.201,22.04 176.155,21.731 175.845,21.373 C 175.707,21.204 175.378,20.998 174.8,20.998 C 174.061,20.998 173.585,21.429 173.302,22.05 L 173.302,21.004 L 171.921,21.114 L 171.921,21.3979 C 172.618,21.3979 172.706,21.4709 172.706,21.98 L 172.7,21.981 z "
       style="fill:#000000;fill-rule:evenodd;stroke:none"
       id="path54" />
    <path
       d="M 180.852,21.408 L 181.788,21.408 C 181.987,21.408 182.086,21.423 182.086,21.224 C 182.086,21.114 181.987,21.108 181.808,21.108 L 180.931,21.108 C 181.29,19.698 181.339,19.5 181.339,19.4399 C 181.339,19.271 181.219,19.2079 181.05,19.2079 C 181.02,19.2079 180.741,19.217 180.651,19.53 L 180.262,21.108 L 179.326,21.108 C 179.127,21.108 179.027,21.114 179.027,21.303 C 179.027,21.423 179.107,21.408 179.306,21.408 L 180.183,21.408 C 179.466,24.251 179.426,24.421 179.426,24.601 C 179.426,25.139 179.805,25.5179 180.343,25.5179 C 181.359,25.5179 181.927,24.063 181.927,23.9839 C 181.927,23.884 181.847,23.884 181.807,23.884 C 181.718,23.884 181.708,23.914 181.658,24.0229 C 181.23,25.059 180.703,25.317 180.364,25.317 C 180.155,25.317 180.09,25.1819 180.09,24.84 C 180.09,24.601 180.097,24.5309 180.115,24.362 L 180.852,21.408 z "
       style="fill:#000000;fill-rule:evenodd;stroke:none"
       id="path56" />
    <path
       d="M 185.3,22.917 C 185.3,22.14 185.187,20.934 184.622,19.809 C 184.024,18.584 183.167,17.908 183.068,17.908 C 183.008,17.908 182.968,17.959 182.968,18.0359 C 182.968,18.066 182.968,18.086 183.157,18.265 C 184.133,19.251 184.7,20.835 184.7,22.918 C 184.7,24.6219 184.332,26.375 183.097,27.6299 C 182.967,27.75 182.967,27.769 182.967,27.799 C 182.967,27.858 183.007,27.908 183.067,27.908 C 183.167,27.908 184.063,27.227 184.651,25.956 C 185.159,24.86 185.299,23.754 185.299,22.917 L 185.3,22.917 z "
       style="fill:#000000;fill-rule:evenodd;stroke:none"
       id="path58" />
    <path
       d="M 134.042,12.512 C 134.082,12.373 134.082,12.353 134.082,12.283 C 134.082,12.1039 133.943,12.008 133.793,12.008 C 133.693,12.008 133.534,12.0699 133.444,12.223 C 133.424,12.2729 133.344,12.582 133.305,12.761 C 133.235,13.02 133.166,13.289 133.106,13.558 L 132.658,15.351 C 132.618,15.5 132.19,16.217 131.532,16.217 C 131.024,16.217 130.901,15.7679 130.901,15.391 C 130.901,14.933 131.075,14.3149 131.423,13.438 C 131.582,13.03 131.601,12.92 131.601,12.7209 C 131.601,12.2729 131.291,11.8979 130.805,11.8979 C 129.86,11.8979 129.49,13.348 129.49,13.438 C 129.49,13.538 129.59,13.538 129.61,13.538 C 129.71,13.538 129.72,13.5179 129.769,13.3589 C 130.038,12.423 130.437,12.098 130.775,12.098 C 130.855,12.098 131.001,12.123 131.001,12.442 C 131.001,12.691 130.915,12.95 130.855,13.139 C 130.456,14.1949 130.301,14.763 130.301,15.231 C 130.301,16.118 130.916,16.416 131.492,16.416 C 131.881,16.416 132.219,16.2469 132.498,15.968 C 132.368,16.486 132.249,16.974 131.85,17.502 C 131.591,17.8409 131.212,18.116 130.754,18.116 C 130.615,18.116 130.166,18.087 129.997,17.706 C 130.156,17.706 130.286,17.711 130.425,17.5909 C 130.525,17.501 130.611,17.3719 130.611,17.183 C 130.611,16.874 130.352,16.806 130.256,16.806 C 130.027,16.806 129.698,16.972 129.698,17.482 C 129.698,17.98 130.136,18.316 130.754,18.316 C 131.78,18.316 132.806,17.424 133.085,16.316 L 134.042,12.512 z "
       style="fill:#000000;fill-rule:evenodd;stroke:none"
       id="path60" />
    <path
       d="M 173.228,71.699 C 173.288,71.4399 173.517,70.498 174.214,70.498 C 174.263,70.498 174.502,70.5229 174.711,70.653 C 174.433,70.7029 174.199,70.952 174.199,71.191 C 174.199,71.35 174.318,71.508 174.611,71.508 C 174.83,71.508 175.099,71.339 175.099,70.962 C 175.099,70.444 174.543,70.298 174.223,70.298 C 173.645,70.298 173.296,70.83 173.177,71.061 C 172.928,70.403 172.39,70.298 172.101,70.298 C 171.065,70.298 170.509,71.588 170.509,71.838 C 170.509,71.938 170.598,71.938 170.616,71.938 C 170.696,71.938 170.726,71.918 170.746,71.8279 C 171.085,70.772 171.742,70.498 172.081,70.498 C 172.27,70.498 172.619,70.5909 172.619,71.191 C 172.619,71.5 172.45,72.167 172.081,73.562 C 171.922,74.18 171.573,74.6169 171.135,74.6169 C 171.076,74.6169 170.847,74.598 170.638,74.468 C 170.886,74.418 171.101,74.209 171.101,73.93 C 171.101,73.6609 170.885,73.607 170.738,73.607 C 170.439,73.607 170.201,73.8539 170.201,74.159 C 170.201,74.616 170.693,74.816 171.126,74.816 C 171.784,74.816 172.142,74.12 172.172,74.06 C 172.292,74.429 172.649,74.816 173.248,74.816 C 174.273,74.816 174.792,73.532 174.792,73.283 C 174.792,73.183 174.74,73.183 174.723,73.183 C 174.633,73.183 174.613,73.223 174.593,73.293 C 174.264,74.358 173.587,74.6169 173.268,74.6169 C 172.879,74.6169 172.72,74.289 172.72,73.9399 C 172.72,73.7209 172.78,73.502 172.889,73.063 L 173.228,71.699 z "
       style="fill:#000000;fill-rule:evenodd;stroke:none"
       id="path62" />
    <path
       d="M 129.4,40.732 C 129.4,40.493 129.429,40.508 129.2,40.508 C 128.582,41.11 127.706,41.108 127.387,41.108 L 127.387,41.408 C 127.587,41.408 128.179,41.4189 128.7,41.16 L 128.7,46.321 C 128.7,46.68 128.67,46.808 127.765,46.808 L 127.446,46.808 L 127.446,47.108 C 127.795,47.0779 128.661,47.0779 129.06,47.0779 C 129.459,47.0779 130.325,47.0779 130.674,47.108 L 130.674,46.808 L 130.355,46.808 C 129.458,46.808 129.399,46.696 129.399,46.321 L 129.4,40.732 z "
       style="fill:#000000;fill-rule:evenodd;stroke:none"
       id="path64" />
  </g>
</svg>
