<?xml version="1.0" encoding="iso-8859-1" standalone="no"?> 
<?xml-stylesheet href="limits.css" type="text/css"?> 
<svg xmlns="http://www.w3.org/2000/svg" xmlns:xlink="http://www.w3.org/1999/xlink" width="221.81328pt" height="184.10297pt" viewBox="-42.8659 -35.40485 221.81328 184.10297 "> 
<g transform="translate(0, 148.69812 ) scale(1,-1) translate(0,35.40485 )"> 
        <g>
 <g stroke="rgb(0.0%,0.0%,0.0%)">
 <g fill="rgb(0.0%,0.0%,0.0%)">
 <g stroke-width="0.4pt">
 <g>
 <g>
 <g>
 <clipPath id="pgfcp4"> <path d=" M  -16.25066 -155.76855 L  178.74738 -155.76855 L  178.74738 290.76611 L  -16.25066 290.76611  "/>
</clipPath>
 <g clip-path="url(#pgfcp4)">
 <g>
 <g stroke-width="0.2pt">
 <g stroke="rgb(50.0%,50.0%,50.0%)">
 <g fill="rgb(50.0%,50.0%,50.0%)">
 <path d=" M  0.0 -13.50056 L  0.0 -9.23271 M  27.08282 -13.50056 L  27.08282 -9.23271 M  54.16565 -13.50056 L  54.16565 -9.23271 M  81.24847 -13.50056 L  81.24847 -9.23271 M  108.3313 -13.50056 L  108.3313 -9.23271 M  135.41412 -13.50056 L  135.41412 -9.23271 M  162.49695 -13.50056 L  162.49695 -9.23271 M  0.0 148.49812 L  0.0 144.23027 M  27.08282 148.49812 L  27.08282 144.23027 M  54.16565 148.49812 L  54.16565 144.23027 M  81.24847 148.49812 L  81.24847 144.23027 M  108.3313 148.49812 L  108.3313 144.23027 M  135.41412 148.49812 L  135.41412 144.23027 M  162.49695 148.49812 L  162.49695 144.23027  " style="fill:none"/>
 </g>
 </g>
 </g>
 </g>
 </g>
 </g>
 <g>
 <clipPath id="pgfcp5"> <path d=" M  -158.5176 -13.50056 L  -158.5176 148.49812 L  321.01431 148.49812 L  321.01431 -13.50056  "/>
</clipPath>
 <g clip-path="url(#pgfcp5)">
 <g>
 <g stroke-width="0.2pt">
 <g stroke="rgb(50.0%,50.0%,50.0%)">
 <g fill="rgb(50.0%,50.0%,50.0%)">
 <path d=" M  -16.25066 0.0 L  -11.98283 0.0 M  -16.25066 42.18674 L  -11.98283 42.18674 M  -16.25066 84.37347 L  -11.98283 84.37347 M  -16.25066 126.56021 L  -11.98283 126.56021 M  178.74738 0.0 L  174.47955 0.0 M  178.74738 42.18674 L  174.47955 42.18674 M  178.74738 84.37347 L  174.47955 84.37347 M  178.74738 126.56021 L  174.47955 126.56021  " style="fill:none"/>
 </g>
 </g>
 </g>
 </g>
 </g>
 </g>
 <path d=" M  -16.25066 -13.50056 L  -16.25066 148.49812 L  178.74738 148.49812 L  178.74738 -13.50056 L  -16.25066 -13.50056 Z  " style="fill:none"/>
 <g>
 <g>
 <g transform="matrix(1.0,0.0,0.0,1.0,-3.96245,-30.12213)">
 <g fill="rgb(0.0%,0.0%,0.0%)">
 <text style="stroke:none" transform="scale(1,-1) translate(3.96245,0)" text-anchor="middle"  font-size="17.28"> 
0</text> 
</g>
 </g>
 </g>
 </g>
 <g>
 <g>
 <g transform="matrix(1.0,0.0,0.0,1.0,23.12038,-30.12213)">
 <g fill="rgb(0.0%,0.0%,0.0%)">
 <text style="stroke:none" transform="scale(1,-1) translate(3.96245,0)" text-anchor="middle"  font-size="17.28"> 
1</text> 
</g>
 </g>
 </g>
 </g>
 <g>
 <g>
 <g transform="matrix(1.0,0.0,0.0,1.0,50.2032,-30.12213)">
 <g fill="rgb(0.0%,0.0%,0.0%)">
 <text style="stroke:none" transform="scale(1,-1) translate(3.96245,0)" text-anchor="middle"  font-size="17.28"> 
2</text> 
</g>
 </g>
 </g>
 </g>
 <g>
 <g>
 <g transform="matrix(1.0,0.0,0.0,1.0,77.28603,-30.12213)">
 <g fill="rgb(0.0%,0.0%,0.0%)">
 <text style="stroke:none" transform="scale(1,-1) translate(3.96245,0)" text-anchor="middle"  font-size="17.28"> 
3</text> 
</g>
 </g>
 </g>
 </g>
 <g>
 <g>
 <g transform="matrix(1.0,0.0,0.0,1.0,104.36885,-30.12213)">
 <g fill="rgb(0.0%,0.0%,0.0%)">
 <text style="stroke:none" transform="scale(1,-1) translate(3.96245,0)" text-anchor="middle"  font-size="17.28"> 
4</text> 
</g>
 </g>
 </g>
 </g>
 <g>
 <g>
 <g transform="matrix(1.0,0.0,0.0,1.0,131.45168,-30.12213)">
 <g fill="rgb(0.0%,0.0%,0.0%)">
 <text style="stroke:none" transform="scale(1,-1) translate(3.96245,0)" text-anchor="middle"  font-size="17.28"> 
5</text> 
</g>
 </g>
 </g>
 </g>
 <g>
 <g>
 <g transform="matrix(1.0,0.0,0.0,1.0,158.5345,-30.12213)">
 <g fill="rgb(0.0%,0.0%,0.0%)">
 <text style="stroke:none" transform="scale(1,-1) translate(3.96245,0)" text-anchor="middle"  font-size="17.28"> 
6</text> 
</g>
 </g>
 </g>
 </g>
 <g>
 <g>
 <g transform="matrix(1.0,0.0,0.0,1.0,-29.65826,-5.56943)">
 <g fill="rgb(0.0%,0.0%,0.0%)">
 <text style="stroke:none" transform="scale(1,-1) translate(3.96245,0)" text-anchor="middle"  font-size="17.28"> 
0</text> 
</g>
 </g>
 </g>
 </g>
 <g>
 <g>
 <g transform="matrix(1.0,0.0,0.0,1.0,-29.65826,36.61731)">
 <g fill="rgb(0.0%,0.0%,0.0%)">
 <text style="stroke:none" transform="scale(1,-1) translate(3.96245,0)" text-anchor="middle"  font-size="17.28"> 
5</text> 
</g>
 </g>
 </g>
 </g>
 <g>
 <g>
 <g transform="matrix(1.0,0.0,0.0,1.0,-37.58319,78.80405)">
 <g fill="rgb(0.0%,0.0%,0.0%)">
 <text style="stroke:none" transform="scale(1,-1) translate(7.92491,0)" text-anchor="middle"  font-size="17.28"> 
10</text> 
</g>
 </g>
 </g>
 </g>
 <g>
 <g>
 <g transform="matrix(1.0,0.0,0.0,1.0,-37.58319,120.99078)">
 <g fill="rgb(0.0%,0.0%,0.0%)">
 <text style="stroke:none" transform="scale(1,-1) translate(7.92491,0)" text-anchor="middle"  font-size="17.28"> 
15</text> 
</g>
 </g>
 </g>
 </g>
 <clipPath id="pgfcp6"> <path d=" M  -16.25066 -13.50056 L  178.74738 -13.50056 L  178.74738 148.49812 L  -16.25066 148.49812 Z  "/>
</clipPath>
 <g clip-path="url(#pgfcp6)">
 <g>
 <g stroke="rgb(100.0%,0.0%,0.0%)">
 <g fill="rgb(100.0%,0.0%,0.0%)">
 <path d=" M  0.0 0.0 L  4.51378 0.23436 L  9.02757 0.93747 L  13.54135 2.10931 L  18.05513 3.7499 L  22.56892 5.8592 L  27.0827 8.43727 L  31.5965 11.48407 L  36.11028 14.9996 L  40.62407 18.98387 L  45.13785 23.43687 L  49.65163 28.3586 L  54.16542 33.74913 L  58.6792 39.60834 L  63.193 45.93628 L  67.70677 52.73296 L  72.22055 59.99838 L  76.73434 67.7326 L  81.24812 75.9355 L  85.76192 84.60713 L  90.2757 93.7475 L  94.78949 103.3566 L  99.30327 113.43452 L  103.81705 123.98111 L  108.33084 134.99641  " style="fill:none"/>
 </g>
 </g>
 </g>
 <g>
 <g stroke="rgb(100.0%,0.0%,0.0%)">
 <g fill="rgb(100.0%,0.0%,0.0%)">
 <path d=" M  108.3313 134.99756 L  110.58818 130.7789 L  112.84508 126.56026 L  115.10197 122.34161 L  117.35886 118.12296 L  119.61575 113.90424 L  121.87265 109.6856 L  124.12953 105.46693 L  126.38643 101.24829 L  128.64333 97.02965 L  130.90022 92.81099 L  133.1571 88.59235 L  135.414 84.3737 L  137.6709 80.15504 L  139.92778 75.9364 L  142.18468 71.71768 L  144.44157 67.49902 L  146.69846 63.28038 L  148.95535 59.06174 L  151.21225 54.84308 L  153.46915 50.62444 L  155.72603 46.40579 L  157.98293 42.18713 L  160.23982 37.96849 L  162.4967 33.74985  " style="fill:none"/>
 </g>
 </g>
 </g>
 <g>
 <g stroke-dasharray="0.4pt,2.0pt" stroke-dashoffset="0.0pt">
 <path d=" M  108.3313 134.99756 L  108.3313 33.74939  " style="fill:none"/>
 </g>
 </g>
 </g>
 </g>
 <g>
 <g stroke="rgb(0.0%,0.0%,0.0%)">
 <g fill="rgb(0.0%,0.0%,0.0%)">
 <g stroke="rgb(0.0%,0.0%,0.0%)">
 <g fill="rgb(0.0%,0.0%,0.0%)">
 <path d=" M  110.3313 33.74939 C  110.3313 34.85397 109.43588 35.74939 108.3313 35.74939 C  107.22672 35.74939 106.3313 34.85397 106.3313 33.74939 C  106.3313 32.6448 107.22672 31.74939 108.3313 31.74939 C  109.43588 31.74939 110.3313 32.6448 110.3313 33.74939 Z M  108.3313 33.74939  " />
 <path d="  " style="fill:none"/>
 </g>
 </g>
 </g>
 </g>
 </g>
 <g>
 <g stroke="rgb(0.0%,0.0%,0.0%)">
 <g fill="rgb(0.0%,0.0%,0.0%)">
 <g fill="rgb(100.0%,100.0%,100.0%)">
 <g stroke="rgb(0.0%,0.0%,0.0%)">
 <g fill="rgb(0.0%,0.0%,0.0%)">
 <g fill="rgb(100.0%,100.0%,100.0%)">
 <path d=" M  110.3313 134.99756 C  110.3313 136.10214 109.43588 136.99756 108.3313 136.99756 C  107.22672 136.99756 106.3313 136.10214 106.3313 134.99756 C  106.3313 133.89297 107.22672 132.99756 108.3313 132.99756 C  109.43588 132.99756 110.3313 133.89297 110.3313 134.99756 Z M  108.3313 134.99756  " />
 <path d="  " />
 </g>
 </g>
 </g>
 </g>
 </g>
 </g>
 </g>
 </g>
 </g>
 </g>
 </g>
 </g>
 
                                           </g> 
</svg> 
