<?xml version="1.0" encoding="utf-8"?>
<!-- Generator: Adobe Illustrator 18.1.0, SVG Export Plug-In . SVG Version: 6.00 Build 0)  -->
<!DOCTYPE svg PUBLIC "-//W3C//DTD SVG 1.1//EN" "http://www.w3.org/Graphics/SVG/1.1/DTD/svg11.dtd">
<svg version="1.1"
	 id="svg2" inkscape:version="0.48.5 r10040" sodipodi:docname="u1der3_2ndexamplederivativecomplete.svg" xmlns:dc="http://purl.org/dc/elements/1.1/" xmlns:inkscape="http://www.inkscape.org/namespaces/inkscape" xmlns:sodipodi="http://sodipodi.sourceforge.net/DTD/sodipodi-0.dtd" xmlns:cc="http://creativecommons.org/ns#" xmlns:svg="http://www.w3.org/2000/svg" xmlns:rdf="http://www.w3.org/1999/02/22-rdf-syntax-ns#"
	 xmlns="http://www.w3.org/2000/svg" xmlns:xlink="http://www.w3.org/1999/xlink" x="0px" y="0px" viewBox="-622 267.9 354.7 367.1"
	 enable-background="new -622 267.9 354.7 367.1" xml:space="preserve">
<sodipodi:namedview  fit-margin-bottom="0" fit-margin-right="0" inkscape:window-maximized="0" inkscape:window-y="37" inkscape:window-x="39" inkscape:current-layer="g2987" inkscape:pageshadow="2" inkscape:pageopacity="0.0" inkscape:window-height="734" inkscape:document-units="px" inkscape:window-width="1334" inkscape:snap-page="true" fit-margin-top="0" borderopacity="1.0" inkscape:zoom="1.31" id="base" inkscape:cy="165.25594" inkscape:cx="173.88466" pagecolor="#ffffff" fit-margin-left="0" showgrid="false" bordercolor="#666666">
	</sodipodi:namedview>
<g id="layer1" transform="translate(-114.9322,-300.51847)" inkscape:groupmode="layer" inkscape:label="Layer 1">
	<g id="g2987" transform="translate(48.932201,290.41771)">
		<g>
			<defs>
				<rect id="SVGID_1_" x="-556" y="304.9" width="339" height="340"/>
			</defs>
			<clipPath id="SVGID_2_">
				<use xlink:href="#SVGID_1_"  overflow="visible"/>
			</clipPath>
			<g id="g2989" clip-path="url(#SVGID_2_)">
				<polyline id="polyline2994" fill="none" stroke="#0000FF" stroke-width="5" points="-553.8,358.4 -552.6,358.4 -551.5,358.4 
					-549,358.4 -546.7,358.4 -544.4,358.4 -542,358.4 -539.7,358.4 -537.2,358.4 -534.8,358.4 -532.5,358.4 -530,358.4 
					-527.7,358.4 -525.5,358.4 -523,358.4 -520.7,358.4 -518.3,358.4 -515.8,358.4 -513.6,358.4 -511.1,358.4 -508.8,358.4 
					-506.3,358.4 -503.9,358.4 -501.6,358.4 -499.1,358.4 -496.8,358.4 -494.6,358.4 -492.1,358.4 -489.8,358.4 -487.3,358.4 
					-484.9,358.4 -482.6,358.4 -480.2,358.4 -477.9,358.4 -475.6,358.4 -473.2,358.4 -470.9,358.4 -468.4,358.4 -466.1,358.4 
					-463.8,358.4 -461.4,358.4 -459.1,358.4 -456.6,358.4 -454.2,358.4 -451.9,358.4 -449.4,358.4 -447.1,358.4 -444.9,358.4 
					-442.4,358.4 -440.1,358.4 -438.9,358.4 -437.6,358.4 				"/>
				
					<ellipse id="ellipse2996" sodipodi:cy="91" sodipodi:cx="189" sodipodi:ry="3.71822" sodipodi:rx="3.71822" fill="none" stroke="#0000FF" stroke-width="2.5" cx="-433" cy="358.9" rx="3.7" ry="3.7">
				</ellipse>
				
					<polyline id="polyline2998" fill="none" stroke="#0000FF" stroke-width="5" stroke-linecap="round" stroke-linejoin="round" points="
					-430.6,634.5 -430.6,634.5 -430.5,634.4 -430.5,634.3 -430.4,634.2 -430.2,633.8 -429.7,633.2 -428.8,631.8 -426.9,628.8 
					-425.1,626 -423.3,623.2 -421.4,620.1 -419.6,617.1 -417.7,613.8 -415.8,610.4 -414,607.2 -412.1,603.5 -410.3,600 
					-408.5,596.5 -406.6,592.6 -404.8,588.8 -402.9,584.5 -401,580.3 -399.2,576.2 -397.3,571.7 -395.5,567.4 -393.6,562.7 
					-391.7,558.1 -389.9,553.7 -388,548.9 -386.2,544.4 -384.4,540 -382.5,535.3 -380.7,530.9 -378.8,526.1 -376.9,521.5 
					-375.1,517.3 -373.2,512.9 -371.4,508.8 -369.6,504.8 -367.7,500.7 -366,496.9 -364,492.9 -362.2,489.3 -360.5,485.9 
					-358.5,482.3 -356.8,479.1 -354.8,475.6 -352.9,472.4 -351.1,469.4 -349.2,466.3 -347.4,463.5 -345.7,460.7 -343.7,457.8 
					-342,455.1 -341.9,455.1 -341.9,455 -341.8,454.9 -341.7,454.7 -341.5,454.4 -341,453.6 -340.9,453.6 -340.9,453.5 
					-340.8,453.4 -340.7,453.2 -340.5,452.8 -340.4,452.8 -340.4,452.8 -340.3,452.7 -340.2,452.5 -340.2,452.4 -340.2,452.4 
					-340.1,452.3 -340.1,452.2 -340,452.2 -340,452.1 -340,452.1 				"/>
				
					<ellipse id="ellipse3000" sodipodi:cy="370" sodipodi:cx="189" sodipodi:ry="3.71822" sodipodi:rx="3.71822" fill="none" stroke="#0000FF" stroke-width="2.5" cx="-433" cy="637.9" rx="3.7" ry="3.7">
				</ellipse>
				<polyline id="polyline3002" fill="none" stroke="#0000FF" stroke-width="5" points="-340,452.1 -339.9,452.1 -339.9,452.1 
					-339.8,452.1 -339.6,452.1 -339.3,452.1 -338.6,452.1 -337.2,452.1 -334.3,452.1 -331.5,452.1 -328.8,452.1 -325.8,452.1 
					-323.1,452.1 -320.1,452.1 -317.2,452.1 -314.5,452.1 -311.5,452.1 -308.7,452.1 -306,452.1 -303.1,452.1 -300.3,452.1 
					-297.4,452.1 -294.5,452.1 -291.7,452.1 -288.8,452.1 -286,452.1 -283,452.1 -280.1,452.1 -277.4,452.1 -274.4,452.1 
					-271.6,452.1 -268.9,452.1 -266,452.1 -263.2,452.1 -260.3,452.1 -257.3,452.1 -254.6,452.1 -251.7,452.1 -248.9,452.1 
					-246.2,452.1 -243.3,452.1 -240.5,452.1 -237.6,452.1 -234.8,452.1 -232.1,452.1 -229.1,452.1 -226.4,452.1 -223.4,452.1 
					-220.5,452.1 -217.7,452.1 -214.8,452.1 -212,452.1 -209.3,452.1 -206.3,452.1 -203.6,452.1 -203.6,452.1 -203.5,452.1 
					-203.4,452.1 -203.2,452.1 -202.8,452.1 -202.1,452.1 -202,452.1 -202,452.1 -201.9,452.1 -201.7,452.1 -201.3,452.1 
					-201.3,452.1 -201.2,452.1 -201.1,452.1 -200.9,452.1 -200.9,452.1 -200.8,452.1 -200.7,452.1 -200.7,452.1 -200.6,452.1 
					-200.6,452.1 -200.5,452.1 				"/>
			</g>
		</g>
		<g>
			<defs>
				<rect id="SVGID_3_" x="-556" y="272.9" width="360" height="377"/>
			</defs>
			<clipPath id="SVGID_4_">
				<use xlink:href="#SVGID_3_"  overflow="visible"/>
			</clipPath>
			<g id="g3004" clip-path="url(#SVGID_4_)">
				<line id="polyline3009" fill="none" stroke="#000000" stroke-width="0.2" x1="-432.9" y1="452.1" x2="-432.9" y2="448.1"/>
			</g>
		</g>
		<g>
			<defs>
				<rect id="SVGID_5_" x="-446" y="453.9" width="26" height="24"/>
			</defs>
			<clipPath id="SVGID_6_">
				<use xlink:href="#SVGID_5_"  overflow="visible"/>
			</clipPath>
			<g id="g3011" transform="translate(177.07229,187.21114)" clip-path="url(#SVGID_6_)">
				<text id="text3016" transform="matrix(1 0 0 1 -622.0001 284.8883)" font-family="'MyriadPro-Regular'" font-size="20">-</text>
			</g>
		</g>
		<g>
			<defs>
				<rect id="SVGID_7_" x="-446" y="453.9" width="26" height="24"/>
			</defs>
			<clipPath id="SVGID_8_">
				<use xlink:href="#SVGID_7_"  overflow="visible"/>
			</clipPath>
			<g id="g3018" transform="translate(177.07229,187.21114)" clip-path="url(#SVGID_8_)">
				<text id="text3023" transform="matrix(1 0 0 1 -608.0001 284.8883)" font-family="'TimesNewRomanPSMT'" font-size="20">1</text>
			</g>
		</g>
		<g>
			<defs>
				<rect id="SVGID_9_" x="-556" y="272.9" width="360" height="377"/>
			</defs>
			<clipPath id="SVGID_10_">
				<use xlink:href="#SVGID_9_"  overflow="visible"/>
			</clipPath>
			<g id="g3025" clip-path="url(#SVGID_10_)">
				<line id="polyline3030" fill="none" stroke="#000000" stroke-width="0.2" x1="-479.4" y1="452.1" x2="-479.4" y2="448.1"/>
			</g>
		</g>
		<g>
			<defs>
				<rect id="SVGID_11_" x="-492" y="453.9" width="26" height="24"/>
			</defs>
			<clipPath id="SVGID_12_">
				<use xlink:href="#SVGID_11_"  overflow="visible"/>
			</clipPath>
			<g id="g3032" transform="translate(130.59457,187.21114)" clip-path="url(#SVGID_12_)">
				<text id="text3037" transform="matrix(1 0 0 1 -622 284.8883)" font-family="'MyriadPro-Regular'" font-size="20">-</text>
			</g>
		</g>
		<g>
			<defs>
				<rect id="SVGID_13_" x="-492" y="453.9" width="26" height="24"/>
			</defs>
			<clipPath id="SVGID_14_">
				<use xlink:href="#SVGID_13_"  overflow="visible"/>
			</clipPath>
			<g id="g3039" transform="translate(130.59457,187.21114)" clip-path="url(#SVGID_14_)">
				<text id="text3044" transform="matrix(1 0 0 1 -608 284.8883)" font-family="'TimesNewRomanPSMT'" font-size="20">2</text>
			</g>
		</g>
		<g>
			<defs>
				<rect id="SVGID_15_" x="-556" y="272.9" width="360" height="377"/>
			</defs>
			<clipPath id="SVGID_16_">
				<use xlink:href="#SVGID_15_"  overflow="visible"/>
			</clipPath>
			<g id="g3046" clip-path="url(#SVGID_16_)">
				<line id="polyline3051" fill="none" stroke="#000000" stroke-width="0.2" x1="-525.9" y1="452.1" x2="-525.9" y2="448.1"/>
			</g>
		</g>
		<g>
			<defs>
				<rect id="SVGID_17_" x="-539" y="453.9" width="26" height="24"/>
			</defs>
			<clipPath id="SVGID_18_">
				<use xlink:href="#SVGID_17_"  overflow="visible"/>
			</clipPath>
			<g id="g3053" transform="translate(84.116857,187.21114)" clip-path="url(#SVGID_18_)">
				<text id="text3058" transform="matrix(1 0 0 1 -622 284.8883)" font-family="'MyriadPro-Regular'" font-size="20">-</text>
			</g>
		</g>
		<g>
			<defs>
				<rect id="SVGID_19_" x="-539" y="453.9" width="26" height="24"/>
			</defs>
			<clipPath id="SVGID_20_">
				<use xlink:href="#SVGID_19_"  overflow="visible"/>
			</clipPath>
			<g id="g3060" transform="translate(84.116857,187.21114)" clip-path="url(#SVGID_20_)">
				<text id="text3065" transform="matrix(1 0 0 1 -608 284.8883)" font-family="'TimesNewRomanPSMT'" font-size="20">3</text>
			</g>
		</g>
		<g>
			<defs>
				<rect id="SVGID_21_" x="-556" y="272.9" width="360" height="377"/>
			</defs>
			<clipPath id="SVGID_22_">
				<use xlink:href="#SVGID_21_"  overflow="visible"/>
			</clipPath>
			<g id="g3067" clip-path="url(#SVGID_22_)">
				<line id="polyline3072" fill="none" stroke="#000000" stroke-width="0.2" x1="-340" y1="452.1" x2="-340" y2="448.1"/>
			</g>
		</g>
		<g>
			<defs>
				<rect id="SVGID_23_" x="-346" y="453.9" width="12" height="24"/>
			</defs>
			<clipPath id="SVGID_24_">
				<use xlink:href="#SVGID_23_"  overflow="visible"/>
			</clipPath>
			<g id="g3074" transform="translate(277.02771,187.21114)" clip-path="url(#SVGID_24_)">
				<text id="text3079" transform="matrix(1 0 0 1 -622 284.8883)" font-family="'TimesNewRomanPSMT'" font-size="20">1</text>
			</g>
		</g>
		<g>
			<defs>
				<rect id="SVGID_25_" x="-556" y="272.9" width="360" height="377"/>
			</defs>
			<clipPath id="SVGID_26_">
				<use xlink:href="#SVGID_25_"  overflow="visible"/>
			</clipPath>
			<g id="g3081" clip-path="url(#SVGID_26_)">
				<line id="polyline3086" fill="none" stroke="#000000" stroke-width="0.2" x1="-293.5" y1="452.1" x2="-293.5" y2="448.1"/>
			</g>
		</g>
		<g>
			<defs>
				<rect id="SVGID_27_" x="-299" y="453.9" width="12" height="24"/>
			</defs>
			<clipPath id="SVGID_28_">
				<use xlink:href="#SVGID_27_"  overflow="visible"/>
			</clipPath>
			<g id="g3088" transform="translate(323.50543,187.21114)" clip-path="url(#SVGID_28_)">
				<text id="text3093" transform="matrix(1 0 0 1 -622 284.8883)" font-family="'TimesNewRomanPSMT'" font-size="20">2</text>
			</g>
		</g>
		<g>
			<defs>
				<rect id="SVGID_29_" x="-556" y="272.9" width="360" height="377"/>
			</defs>
			<clipPath id="SVGID_30_">
				<use xlink:href="#SVGID_29_"  overflow="visible"/>
			</clipPath>
			<g id="g3095" clip-path="url(#SVGID_30_)">
				<line id="polyline3100" fill="none" stroke="#000000" stroke-width="0.2" x1="-247" y1="452.1" x2="-247" y2="448.1"/>
			</g>
		</g>
		<g>
			<defs>
				<rect id="SVGID_31_" x="-253" y="453.9" width="12" height="24"/>
			</defs>
			<clipPath id="SVGID_32_">
				<use xlink:href="#SVGID_31_"  overflow="visible"/>
			</clipPath>
			<g id="g3102" transform="translate(369.98314,187.21114)" clip-path="url(#SVGID_32_)">
				<text id="text3107" transform="matrix(1 0 0 1 -622 284.8883)" font-family="'TimesNewRomanPSMT'" font-size="20">3</text>
			</g>
		</g>
		<g>
			<defs>
				<rect id="SVGID_33_" x="-556" y="272.9" width="360" height="377"/>
			</defs>
			<clipPath id="SVGID_34_">
				<use xlink:href="#SVGID_33_"  overflow="visible"/>
			</clipPath>
			<g id="g3109" clip-path="url(#SVGID_34_)">
				<line id="polyline3114" fill="none" stroke="#000000" stroke-width="0.2795" x1="-555.9" y1="451.7" x2="-217" y2="451.7"/>
			</g>
		</g>
		<g>
			<defs>
				<rect id="SVGID_35_" x="-556" y="272.9" width="360" height="377"/>
			</defs>
			<clipPath id="SVGID_36_">
				<use xlink:href="#SVGID_35_"  overflow="visible"/>
			</clipPath>
			<g id="g3123" clip-path="url(#SVGID_36_)">
				<line id="polyline3128" fill="none" stroke="#000000" stroke-width="0.2" x1="-386.4" y1="638" x2="-382.4" y2="638"/>
			</g>
		</g>
		<g>
			<defs>
				<rect id="SVGID_37_" x="-414" y="625.9" width="26" height="24"/>
			</defs>
			<clipPath id="SVGID_38_">
				<use xlink:href="#SVGID_37_"  overflow="visible"/>
			</clipPath>
			<g id="g3130" transform="translate(208.55,359.122)" clip-path="url(#SVGID_38_)">
				<text id="text3135" transform="matrix(1 0 0 1 -622 284.8882)" font-family="'MyriadPro-Regular'" font-size="20">-</text>
			</g>
		</g>
		<g>
			<defs>
				<rect id="SVGID_39_" x="-414" y="625.9" width="26" height="24"/>
			</defs>
			<clipPath id="SVGID_40_">
				<use xlink:href="#SVGID_39_"  overflow="visible"/>
			</clipPath>
			<g id="g3137" transform="translate(208.55,359.122)" clip-path="url(#SVGID_40_)">
				<text id="text3142" transform="matrix(1 0 0 1 -608 284.8882)" font-family="'TimesNewRomanPSMT'" font-size="20">4</text>
			</g>
		</g>
		<g>
			<defs>
				<rect id="SVGID_41_" x="-556" y="272.9" width="360" height="377"/>
			</defs>
			<clipPath id="SVGID_42_">
				<use xlink:href="#SVGID_41_"  overflow="visible"/>
			</clipPath>
			<g id="g3144" clip-path="url(#SVGID_42_)">
				<line id="polyline3149" fill="none" stroke="#000000" stroke-width="0.2" x1="-386.4" y1="591.5" x2="-382.4" y2="591.5"/>
			</g>
		</g>
		<g>
			<defs>
				<rect id="SVGID_43_" x="-414" y="579.9" width="26" height="24"/>
			</defs>
			<clipPath id="SVGID_44_">
				<use xlink:href="#SVGID_43_"  overflow="visible"/>
			</clipPath>
			<g id="g3151" transform="translate(208.55,312.64429)" clip-path="url(#SVGID_44_)">
				<text id="text3156" transform="matrix(1 0 0 1 -622 284.8883)" font-family="'MyriadPro-Regular'" font-size="20">-</text>
			</g>
		</g>
		<g>
			<defs>
				<rect id="SVGID_45_" x="-414" y="579.9" width="26" height="24"/>
			</defs>
			<clipPath id="SVGID_46_">
				<use xlink:href="#SVGID_45_"  overflow="visible"/>
			</clipPath>
			<g id="g3158" transform="translate(208.55,312.64429)" clip-path="url(#SVGID_46_)">
				<text id="text3163" transform="matrix(1 0 0 1 -608 284.8883)" font-family="'TimesNewRomanPSMT'" font-size="20">3</text>
			</g>
		</g>
		<g>
			<defs>
				<rect id="SVGID_47_" x="-556" y="272.9" width="360" height="377"/>
			</defs>
			<clipPath id="SVGID_48_">
				<use xlink:href="#SVGID_47_"  overflow="visible"/>
			</clipPath>
			<g id="g3165" clip-path="url(#SVGID_48_)">
				<line id="polyline3170" fill="none" stroke="#000000" stroke-width="0.2" x1="-386.4" y1="545.1" x2="-382.4" y2="545.1"/>
			</g>
		</g>
		<g>
			<defs>
				<rect id="SVGID_49_" x="-414" y="532.9" width="26" height="24"/>
			</defs>
			<clipPath id="SVGID_50_">
				<use xlink:href="#SVGID_49_"  overflow="visible"/>
			</clipPath>
			<g id="g3172" transform="translate(208.55,266.16657)" clip-path="url(#SVGID_50_)">
				<text id="text3177" transform="matrix(1 0 0 1 -622 284.8882)" font-family="'MyriadPro-Regular'" font-size="20">-</text>
			</g>
		</g>
		<g>
			<defs>
				<rect id="SVGID_51_" x="-414" y="532.9" width="26" height="24"/>
			</defs>
			<clipPath id="SVGID_52_">
				<use xlink:href="#SVGID_51_"  overflow="visible"/>
			</clipPath>
			<g id="g3179" transform="translate(208.55,266.16657)" clip-path="url(#SVGID_52_)">
				<text id="text3184" transform="matrix(1 0 0 1 -608 284.8882)" font-family="'TimesNewRomanPSMT'" font-size="20">2</text>
			</g>
		</g>
		<g>
			<defs>
				<rect id="SVGID_53_" x="-556" y="272.9" width="360" height="377"/>
			</defs>
			<clipPath id="SVGID_54_">
				<use xlink:href="#SVGID_53_"  overflow="visible"/>
			</clipPath>
			<g id="g3186" clip-path="url(#SVGID_54_)">
				<line id="polyline3191" fill="none" stroke="#000000" stroke-width="0.2" x1="-386.4" y1="498.6" x2="-382.4" y2="498.6"/>
			</g>
		</g>
		<g>
			<defs>
				<rect id="SVGID_55_" x="-414" y="486.9" width="26" height="24"/>
			</defs>
			<clipPath id="SVGID_56_">
				<use xlink:href="#SVGID_55_"  overflow="visible"/>
			</clipPath>
			<g id="g3193" transform="translate(208.55,219.68886)" clip-path="url(#SVGID_56_)">
				<text id="text3198" transform="matrix(1 0 0 1 -622 284.8883)" font-family="'MyriadPro-Regular'" font-size="20">-</text>
			</g>
		</g>
		<g>
			<defs>
				<rect id="SVGID_57_" x="-414" y="486.9" width="26" height="24"/>
			</defs>
			<clipPath id="SVGID_58_">
				<use xlink:href="#SVGID_57_"  overflow="visible"/>
			</clipPath>
			<g id="g3200" transform="translate(208.55,219.68886)" clip-path="url(#SVGID_58_)">
				<text id="text3205" transform="matrix(1 0 0 1 -608 284.8883)" font-family="'TimesNewRomanPSMT'" font-size="20">1</text>
			</g>
		</g>
		<g>
			<defs>
				<rect id="SVGID_59_" x="-556" y="272.9" width="360" height="377"/>
			</defs>
			<clipPath id="SVGID_60_">
				<use xlink:href="#SVGID_59_"  overflow="visible"/>
			</clipPath>
			<g id="g3207" clip-path="url(#SVGID_60_)">
				<line id="polyline3212" fill="none" stroke="#000000" stroke-width="0.2" x1="-386.4" y1="405.6" x2="-382.4" y2="405.6"/>
			</g>
		</g>
		<g>
			<defs>
				<rect id="SVGID_61_" x="-400" y="393.9" width="12" height="24"/>
			</defs>
			<clipPath id="SVGID_62_">
				<use xlink:href="#SVGID_61_"  overflow="visible"/>
			</clipPath>
			<g id="g3214" transform="translate(222.55,126.73343)" clip-path="url(#SVGID_62_)">
				<text id="text3219" transform="matrix(1 0 0 1 -622 284.8883)" font-family="'TimesNewRomanPSMT'" font-size="20">1</text>
			</g>
		</g>
		<g>
			<defs>
				<rect id="SVGID_63_" x="-556" y="272.9" width="360" height="377"/>
			</defs>
			<clipPath id="SVGID_64_">
				<use xlink:href="#SVGID_63_"  overflow="visible"/>
			</clipPath>
			<g id="g3221" clip-path="url(#SVGID_64_)">
				<line id="polyline3226" fill="none" stroke="#000000" stroke-width="0.2" x1="-386.4" y1="359.1" x2="-382.4" y2="359.1"/>
			</g>
		</g>
		<g>
			<defs>
				<rect id="SVGID_65_" x="-400" y="346.9" width="12" height="24"/>
			</defs>
			<clipPath id="SVGID_66_">
				<use xlink:href="#SVGID_65_"  overflow="visible"/>
			</clipPath>
			<g id="g3228" transform="translate(222.55,80.255714)" clip-path="url(#SVGID_66_)">
				<text id="text3233" transform="matrix(1 0 0 1 -622 284.8883)" font-family="'TimesNewRomanPSMT'" font-size="20">2</text>
			</g>
		</g>
		<g>
			<defs>
				<rect id="SVGID_67_" x="-556" y="272.9" width="360" height="377"/>
			</defs>
			<clipPath id="SVGID_68_">
				<use xlink:href="#SVGID_67_"  overflow="visible"/>
			</clipPath>
			<g id="g3235" clip-path="url(#SVGID_68_)">
				<line id="polyline3240" fill="none" stroke="#000000" stroke-width="0.2" x1="-386.4" y1="312.7" x2="-382.4" y2="312.7"/>
			</g>
		</g>
		<g>
			<defs>
				<rect id="SVGID_69_" x="-400" y="300.9" width="12" height="24"/>
			</defs>
			<clipPath id="SVGID_70_">
				<use xlink:href="#SVGID_69_"  overflow="visible"/>
			</clipPath>
			<g id="g3242" transform="translate(222.55,33.778)" clip-path="url(#SVGID_70_)">
				<text id="text3247" transform="matrix(1 0 0 1 -622 284.8882)" font-family="'TimesNewRomanPSMT'" font-size="20">3</text>
			</g>
		</g>
		<g>
			<defs>
				<rect id="SVGID_71_" x="-556" y="272.9" width="360" height="377"/>
			</defs>
			<clipPath id="SVGID_72_">
				<use xlink:href="#SVGID_71_"  overflow="visible"/>
			</clipPath>
			<g id="g3249" clip-path="url(#SVGID_72_)">
				<line id="polyline3254" fill="none" stroke="#000000" stroke-width="0.2795" x1="-386" y1="644.8" x2="-386" y2="305.9"/>
			</g>
		</g>
		<text transform="matrix(1 0 0 1 -408.3368 297.0083)" font-family="'Verdana'" font-size="20">g&apos;(x)</text>
		<text transform="matrix(1 0 0 1 -211.3902 457.3137)" font-family="'Verdana'" font-size="20">x</text>
	</g>
</g>
</svg>
