<?xml version="1.0" encoding="utf-8"?>
<!-- Generator: Adobe Illustrator 13.0.0, SVG Export Plug-In . SVG Version: 6.00 Build 14948)  -->
<!DOCTYPE svg PUBLIC "-//W3C//DTD SVG 1.0//EN" "http://www.w3.org/TR/2001/REC-SVG-20010904/DTD/svg10.dtd">
<svg version="1.0" id="Layer_2" xmlns="http://www.w3.org/2000/svg" xmlns:xlink="http://www.w3.org/1999/xlink" x="0px" y="0px"
	 width="459.5px" height="318.5px" viewBox="0 0 459.5 318.5" enable-background="new 0 0 459.5 318.5" xml:space="preserve">
<rect fill="#FFFFFF" width="459.5" height="318.5"/>
<g>
	<path id="path3" fill="#AFA3CF" stroke="#000000" d="M147.404,221.028c3.606-1.491,1-6.333,1-6.333s-26.333-5-21-24
		s5.333-19,5.333-19s6.333-4.668,11.667-8.334s3.667-4.999-0.667-3.666c-0.667-1.334,2.333-4.667,2.667-5.333
		c0.333-0.668,6-13.001-5.333,3.666c0,1-9.667,12-4-7.666c0,0,7.333-35.334-1-9.668c0,0-2,6.334-4,2c0,0,4,13.335-8.333,46.001
		c-3-2.667-5-5.334-5-5.334c-1-1.666-1.667-5.666,3-14.333s7.333-14,7.333-14s4.333-8.334-1-2.334c0,0,0.333-18.999-3,4.334
		c0,0-2.666,4.001-4.333,5.667c0,0,4.667-11-1-8.333c0,0-3-7-2.667,1c0.333,7.999,2,9.667,1,14.333s-2.667,2.666-3-1.334
		s-10,0.334,5.333,24.667c0,0,5.333,25.333-14.333,7.333c0,0-24.667-19.667,7-43c-4,3-5.667,6.335-5,2.334s0-3.667,0-3.667
		s-3.667,7.001-6,8.667s-11.667,4.667,9-18.667c-4,3-11.333,8.667-4-7.667c-7,11-11.333,23.667-15.333,12.667
		c0,0,4.333,46.332-6,16.333c0,0-3.667-6,5-35.667c-3,6.667-5.667,16-5-3.333c0,0-3,1-2.333,22.333c0,0-9.333,21.334-7.333-7
		c0,0,3-12.666,3.333-15s-1.667,0.667-2.333,2s-0.667-5-0.667-5s-2,3-2.333,7s-3.333-3-4.333-4.667s6.666,11,1.333,21.666
		c0,0-7.666-12.666-8.333-9c-0.667,3.667,16,23.668,16.333,25.001s10,11-2,9.333c-4-0.333-6.333-2.667-8.333-6s-6.333-10-6.333-10
		l-9.667-11l-0.668-15.333l-1.333,3.667l-2.333-2.333l2,4.667l0.333,6.333l-2.333,1c0,0,28,28.334,5.333,17.667
		c0,0-8.334,2.334,10.333,7c0,0,1.333,7.666,17.333,8.666c0,0,12,13.001,15,25.334c0,0,3.333,26.667-12,6c0,0,3,7.333,1,7.333
		s-11.667-5.667-13-5.667s-5.333,2-5.333,2s27,6.666,1.667,7c0,0-18,6.333-11-36c0,0-2.333,12.334-4.333,0.667
		c0,0-5.333,26.334,0,36.667c0,0,5,6.332-2.333,6.666c0,0,9-1.334,18-4c0,0-6.667,13.334-10,13.334c0,0,3,0.666-0.333,2.666
		c0,0,1.333,2.666,5-2s9-15.999,22-15.666c4.333,1.333,20.333,14.666-4,19.333c-7.333,3-35,13.001-32.667,14.667
		s16.333-8.334,14-3.334s-10,19.334-10,19.334s9.333-21.333,7.333-5c1,1.333,25.333-45.333,8,0c0.333,1,4.333-6.001,5,3.333
		c0,0,0.333-35.332,25.333-24.666c0.667,9-4.667,21.332-18.667,29.666c14.333-8.333,16.667-12,10,2c3.333-3.333,5-2.999,6,1.334
		c1.333-15,4-19.666,6.667-22c2.667,7,3.667,9.999,4,11.666s-1.667-23.667-2-25s13-0.666,13-0.666s10,19.334,5.667,28
		c2.333-7.334-1.667-22.001,16,3.666c0,0-12-13.333,7.333-8.333c-6.667-5.333-19-12.666-22.333-18.333s-4-13.333,6.333-6
		s16.667,10.332,17.667,9.666s-19.667-10,3.333-6C137.071,240.695,112.738,235.361,147.404,221.028z"/>
	<path id="path5" fill="#5B9974" stroke="#000000" d="M105.696,225.528c-0.125-4.5,1.375-5.875,4.125-5.5s5.5,1.625,6.625,2.875
		s2.75,3.5,3,4.375s0.375,1.75,0.5,2.625s0.5,1.75,0.125,2.5s-0.875,2.375-1.875,2.5s-1.625,0.375-2.75-0.25
		s-2.875-1.75-3.625-2.375s-3.75-3.625-4.375-4.5S105.696,225.528,105.696,225.528z"/>
	<path id="path7" fill="#F9D566" stroke="#000000" d="M148.071,222.278c2.25-4.5,1.625-6,1.125-7.375s17.625-2,30,5
		c0,0,11.75,4,1.25,11.5C180.446,231.403,160.946,234.278,148.071,222.278z"/>
	<path id="path9" fill="#F9D566" stroke="#000000" d="M188.946,234.778c0,0-3.625-1.75-2.5-5s2.125-3.25,3.125-3.625
		s6.75-0.25,7.25-0.25s19.75,2,22.375,4.25s3.5,5,3.5,6.125s-0.25,4.75-3.75,4.75s-18.375-0.25-19-0.875
		S191.446,237.403,188.946,234.778z"/>
	<path id="path11" fill="#F9D566" stroke="#000000" d="M234.946,244.028c-6.625-2.125-9.5-4.625-9.25-7.25s0.75-3.625,1.875-4.25
		s3.875-1.375,4.625-1.625s22.375-3.375,24.5-2.875s4.75,3,5,4.5s2.625,5-2.75,7.25s-9.375,3.75-13,4
		S234.946,244.028,234.946,244.028z"/>
	<path id="path13" fill="#F9D566" stroke="#000000" d="M272.696,234.403c-6.009,0.376-7.875,1.125-7.75-3.375
		s-0.375-6.125,3.25-7.875s13.875-8.5,15.5-9.25s6.875-2.375,9.25,0.75s2.125,4.5-0.375,7.25S276.696,234.153,272.696,234.403z"/>
	<path id="path15" fill="#F9D566" stroke="#000000" d="M294.571,211.778c-2.439-4.532-3.375-7-1.125-10.25s13.125-18.75,13.5-19.25
		s4.625-2.375,8.375,0.875s4.5,5.5,1,10.25s-11.625,17.5-14.5,19S296.321,215.028,294.571,211.778z"/>
	<ellipse id="ellipse17" fill="#E68B60" stroke="#B76328" cx="160.571" cy="219.903" rx="3.375" ry="2.125"/>
	<ellipse id="ellipse19" fill="#E68B60" stroke="#B76328" cx="202.446" cy="233.778" rx="3.375" ry="2.125"/>
	<ellipse id="ellipse21" fill="#E68B60" stroke="#B76328" cx="244.696" cy="236.778" rx="3.375" ry="2.125"/>
	
		<ellipse id="ellipse23" transform="matrix(-0.4102 -0.912 0.912 -0.4102 190.0396 569.2063)" fill="#E68B60" stroke="#B76328" cx="279.084" cy="223.15" rx="2.125" ry="3.376"/>
	
		<ellipse id="ellipse25" transform="matrix(-0.8403 -0.5421 0.5421 -0.8403 453.3369 526.3534)" fill="#E68B60" stroke="#B76328" cx="304.187" cy="196.412" rx="2.125" ry="3.374"/>
	<path id="path27" fill="#AFA3CF" stroke="#000000" d="M184.821,226.028c2.25,0.5,3.75,0.5,3.75,0.5l-2.125,3.25l-4.125-0.125
		L184.821,226.028z"/>
	<path id="path29" fill="#AFA3CF" stroke="#000000" d="M222.321,234.153l4.125-0.25l-0.875,4.125h-3.125
		C222.446,238.028,222.696,234.653,222.321,234.153z"/>
	<path id="path31" fill="#AFA3CF" stroke="#000000" d="M260.821,230.528c0,0,3.375-2.5,3.625-3.125s0.375,5,0.5,5.375
		s-2.25,0.875-2.25,0.875L260.821,230.528z"/>
	<path id="path33" fill="#AFA3CF" stroke="#000000" d="M290.196,212.653l2.75-3.875l2.875,4.375l-2,1.875
		C293.821,215.028,292.071,212.903,290.196,212.653z"/>
	<path id="path35" fill="#AFA3CF" stroke="#000000" d="M311.738,181.195c0.041-0.09,0.082-0.18,0.123-0.27
		c3.274-7.251,5.894-14.772,7.21-18.064c1.333-3.333,1.833-11.166,1.333-12s-2-6.5-5.833-5.333s-2.501,0-3.667,1.833
		s-3.999,2-4.166,0.333s0.5-2.167,3.333-2.667s1.333-2.5-0.667-4.333s-7.334-1.833-3.5-4.333s4-2.834,5.5-1.667s-3.167,2,1,4.5
		s7.166,4,8.5,4.167s2.5,0.333,2.5-1.167s1.667-3,2.667-3.833s1.5-4.167,1.5-4.167s-3.5-3.166-0.5-2.833s4.5,0.5,3,2.333
		c0.333,0.5-0.166,2,0.167,2.5s5.333-0.166,5.333-0.166s4.5-0.333,3,2.5c-0.333,0.833-1.5,2-3.5,0.667
		c-1.833,0.333-3.667-0.333-4.167-0.167s-7.167,3.167-6.5,18.167c4.5-2.5,17.668-10.334,19.334-11s9.666-9.833,9.833-10.667
		s-1.666-3.333-1.333-4s3.499-2,4.166-2.167s1.501-2,2.334,0.167s0.667,2.167,0,2.667s-1.166,0.833-1,1.833s0.333,1.667,0.833,1.5
		s0.833,0.833,0.833,0.833l-6.666,5.333c0,0,6.167-1.167,7-2s2.5-1.667,2.833-0.5s0.667,0.834,0,1.667s-1.833,1.666-4,2.333
		s-3.667,1.333-5,1.5s-3.833,1-3.833,1s-1.333,0.333-4,2.5s-4.5,3.167-6.167,4.167s-2.833,1.333-4.5,2.5s-4.5,2.5-4.5,2.5
		s-2.501,0.834-3.167,1.667s-1.832,2.167-2.166,2.667s-1,2.166-1,2.166l-0.667,3l-2.167,2.5l-0.5,2.334c0,0,4.166,0.5,5,0.5
		s1.5-0.001,2.667-0.834s1-0.334,2-1.5s2.167-2.333,2.667-3.333s1.666-2.167,2.666-3s2.333-2.001,3-2.167s3-0.833,3.5-1.333
		s1.001,0.001,1.334-0.833s1.334-2.5,1.5-3.333s0.166-1.167,0.833-1.167s1.167-0.333,1.5,0.5s1.001,0.667,0.667,1.833
		s-0.667,1.833-0.667,1.833l0.167,0.334c0,0,1.5,0.499,2-0.334s1.333-1.333,1.333-1.333l1-1.333l0.833-1.5l0.834-0.667l1.5-0.333
		c0,0,0.5,0,0.833,1.167s0.5,1.667,0.5,2.167s-2,2-2,2l-0.667,0.667c0,0-1.5,0.332-2,0.666s-2.166,0.834-2.166,0.834l-2.334,0.166
		l-1.666,0.834l-0.667,0.5v1c0,0,0.667,0.834,1.167,1s3.5,0,3.5,0l0.666-0.167l-1,1.333l-3.333,0.667c0,0-0.834,0.166-1.667,0.333
		s-3,0.5-3,0.5s-1.834,0.834-2.5,1.334s-2,0.167-0.833,1s0.333,1.334,4,1s1.334-0.667,4.667,0.333s4,0.667,6,1.667
		s-1.334,0.332,4.333,2.166s5.499,1.666,9.333,3s3.333-0.5,4.5,2s6.667,2.833,1.167,2.5s-4.499-0.333-7.333-1.333
		s-2.5-1.167-6.667-2.667s-6.667-3.667-2.167,1.5s5.5,5.667,6.167,10.167s1,14.167,5,14.5s7.501,1.333,5.167,3.333
		s-6.168,0.668-7.334-1.166s-3.666-3.5-4.166-6s0.334-4.501-0.5-4.834s-0.834-0.332-1.667,0.334s-0.333-0.834-1.5,1.833
		s-1.501,3.167-2.167,3.5s-4.166,0.834-4.166-0.833s0.5-2.168,1.333-2.334s-0.667,1.333,2-1s3.834-4.166,4.167-5.166
		s2.166-5.5-5.667-11.167s-13.666-9.166-20.833-5.833c2,3,5.667,5.333,5.5,11.333c0,0.667,2.832,3-0.334,4
		c-0.5,0.167-3.5,0.333-1.833-4c0-2.167,0.501-3.499-3.833-7.333c0.166,3.666-0.168,7.332,0.166,8.666s3.168,4.501-0.666,5.834
		c-2.167-0.5-3.834-1.833-1.334-6c0-3.834-3.999-20.333-14.166-5C312.904,182.028,311.738,181.195,311.738,181.195z"/>
	<line id="line39" fill="none" stroke="#000000" x1="163.071" y1="167.028" x2="132.071" y2="207.528"/>
	<line id="line41" fill="none" stroke="#000000" x1="94.571" y1="107.528" x2="96.071" y2="154.028"/>
	<line id="line43" fill="none" stroke="#000000" x1="110.071" y1="231.028" x2="64.071" y2="289.028"/>
	<line id="line45" fill="none" stroke="#000000" x1="148.071" y1="222.278" x2="163.571" y2="251.028"/>
	<line id="line47" fill="none" stroke="#000000" x1="247.571" y1="244.028" x2="248.071" y2="272.528"/>
	<line id="line49" fill="none" stroke="#000000" x1="279.943" y1="225.091" x2="324.571" y2="248.528"/>
	<line id="line51" fill="none" stroke="#000000" x1="291.571" y1="210.028" x2="280.101" y2="198.343"/>
	<line id="line53" fill="none" stroke="#000000" x1="370.904" y1="179.861" x2="371.224" y2="109.933"/>
	<g enable-background="new    ">
		<path d="M216.689,289.628v-13.752h2.739l3.255,9.737c0.3,0.906,0.519,1.585,0.657,2.035c0.156-0.5,0.4-1.234,0.732-2.204
			l3.292-9.568h2.449v13.752h-1.755v-11.51l-3.996,11.51h-1.642l-3.977-11.707v11.707H216.689z"/>
		<path d="M232.533,279.666h1.688v7.598l4.681-7.598h1.82v9.962h-1.688v-7.552l-4.682,7.552h-1.819V279.666z"/>
		<path d="M250.084,286.42l1.745,0.216c-0.275,1.02-0.785,1.811-1.529,2.373s-1.694,0.845-2.852,0.845
			c-1.457,0-2.612-0.449-3.466-1.347c-0.854-0.897-1.281-2.156-1.281-3.775c0-1.676,0.432-2.977,1.295-3.902
			s1.982-1.389,3.358-1.389c1.332,0,2.42,0.454,3.265,1.36c0.844,0.907,1.266,2.183,1.266,3.827c0,0.101-0.003,0.25-0.009,0.45
			h-7.43c0.063,1.095,0.372,1.933,0.929,2.515c0.557,0.581,1.251,0.872,2.083,0.872c0.619,0,1.147-0.163,1.585-0.488
			S249.828,287.133,250.084,286.42z M244.54,283.69h5.563c-0.074-0.839-0.287-1.467-0.638-1.886
			c-0.538-0.65-1.235-0.976-2.092-0.976c-0.775,0-1.428,0.26-1.956,0.778C244.889,282.127,244.597,282.821,244.54,283.69z"/>
		<path d="M254.137,279.666h7.843v9.962h-1.68v-8.564h-4.475v4.962c0,1.157-0.037,1.92-0.112,2.289s-0.281,0.691-0.619,0.967
			c-0.338,0.274-0.825,0.412-1.464,0.412c-0.394,0-0.847-0.024-1.359-0.075v-1.406h0.74c0.351,0,0.601-0.036,0.751-0.108
			c0.15-0.071,0.25-0.186,0.3-0.343c0.05-0.156,0.075-0.666,0.075-1.528V279.666z"/>
		<path d="M264.521,279.666h1.688v7.598l4.681-7.598h1.82v9.962h-1.688v-7.552l-4.682,7.552h-1.819V279.666z"/>
		<path d="M275.262,279.666h1.688v4.146h4.682v-4.146h1.688v9.962h-1.688v-4.418h-4.682v4.418h-1.688V279.666z"/>
		<path d="M285.233,284.646c0-1.845,0.513-3.211,1.539-4.099c0.856-0.738,1.9-1.107,3.133-1.107c1.369,0,2.489,0.449,3.358,1.347
			s1.304,2.137,1.304,3.719c0,1.282-0.192,2.291-0.577,3.025c-0.385,0.735-0.944,1.306-1.679,1.712
			c-0.735,0.406-1.537,0.61-2.406,0.61c-1.395,0-2.522-0.447-3.382-1.342C285.663,287.617,285.233,286.329,285.233,284.646z
			 M286.969,284.646c0,1.276,0.278,2.231,0.835,2.866s1.257,0.952,2.102,0.952c0.838,0,1.535-0.319,2.092-0.957
			s0.835-1.61,0.835-2.917c0-1.232-0.28-2.166-0.84-2.801s-1.256-0.952-2.087-0.952c-0.845,0-1.545,0.316-2.102,0.948
			C287.247,282.417,286.969,283.371,286.969,284.646z"/>
		<path d="M296.556,279.666h3.894c0.957,0,1.668,0.079,2.134,0.239c0.466,0.159,0.866,0.451,1.201,0.877
			c0.334,0.425,0.502,0.935,0.502,1.528c0,0.476-0.099,0.891-0.296,1.243c-0.197,0.354-0.492,0.649-0.887,0.887
			c0.47,0.156,0.858,0.449,1.168,0.877c0.31,0.429,0.465,0.937,0.465,1.524c-0.063,0.944-0.4,1.645-1.014,2.102
			c-0.612,0.456-1.504,0.685-2.673,0.685h-4.494V279.666z M298.244,283.858h1.802c0.719,0,1.213-0.037,1.481-0.112
			c0.27-0.075,0.51-0.227,0.723-0.455c0.213-0.228,0.319-0.502,0.319-0.82c0-0.525-0.187-0.892-0.559-1.098s-1.008-0.31-1.909-0.31
			h-1.857V283.858z M298.244,288.239h2.224c0.957,0,1.613-0.11,1.97-0.333c0.356-0.222,0.544-0.604,0.563-1.148
			c0-0.319-0.104-0.615-0.31-0.887c-0.207-0.272-0.476-0.444-0.808-0.516c-0.331-0.072-0.862-0.108-1.595-0.108h-2.045V288.239z"/>
		<path d="M313.038,288.399c-0.626,0.531-1.228,0.906-1.807,1.125c-0.578,0.219-1.199,0.329-1.861,0.329
			c-1.095,0-1.936-0.268-2.523-0.803c-0.588-0.534-0.882-1.218-0.882-2.05c0-0.487,0.11-0.933,0.333-1.336
			c0.222-0.403,0.513-0.728,0.872-0.972c0.359-0.243,0.765-0.428,1.215-0.553c0.331-0.088,0.832-0.172,1.501-0.254
			c1.363-0.162,2.367-0.356,3.011-0.581c0.007-0.231,0.01-0.379,0.01-0.441c0-0.688-0.159-1.172-0.479-1.454
			c-0.432-0.381-1.072-0.572-1.923-0.572c-0.794,0-1.381,0.14-1.759,0.418c-0.379,0.278-0.658,0.771-0.84,1.478l-1.65-0.226
			c0.149-0.706,0.396-1.277,0.74-1.712c0.345-0.435,0.842-0.77,1.492-1.004s1.403-0.352,2.261-0.352
			c0.851,0,1.541,0.101,2.073,0.301c0.531,0.2,0.922,0.451,1.172,0.755c0.25,0.303,0.426,0.687,0.525,1.148
			c0.057,0.288,0.085,0.808,0.085,1.558v2.251c0,1.57,0.036,2.563,0.107,2.979c0.072,0.416,0.214,0.814,0.427,1.196h-1.764
			C313.2,289.277,313.088,288.868,313.038,288.399z M312.896,284.628c-0.612,0.25-1.532,0.463-2.758,0.638
			c-0.693,0.101-1.185,0.213-1.473,0.338c-0.287,0.125-0.51,0.309-0.666,0.549c-0.156,0.241-0.234,0.508-0.234,0.802
			c0,0.45,0.171,0.826,0.512,1.126s0.839,0.45,1.496,0.45c0.65,0,1.229-0.142,1.735-0.427c0.507-0.284,0.878-0.674,1.116-1.168
			c0.182-0.381,0.271-0.944,0.271-1.688V284.628z"/>
		<path d="M325.063,279.666v9.962h-1.679v-3.884h-0.976c-0.595,0-1.037,0.077-1.327,0.23c-0.291,0.153-0.715,0.646-1.271,1.477
			l-1.473,2.177h-2.092l1.819-2.683c0.557-0.819,1.11-1.282,1.661-1.389c-0.964-0.131-1.678-0.479-2.144-1.041
			c-0.467-0.563-0.699-1.21-0.699-1.942c0-0.862,0.305-1.563,0.915-2.101c0.609-0.538,1.492-0.807,2.649-0.807H325.063z
			 M323.385,281.063h-2.401c-1.007,0-1.656,0.156-1.947,0.469c-0.29,0.313-0.436,0.679-0.436,1.098c0,0.595,0.214,1.03,0.643,1.309
			c0.428,0.278,1.187,0.418,2.274,0.418h1.867V281.063z"/>
		<path d="M332.334,284.646c0-1.845,0.513-3.211,1.539-4.099c0.856-0.738,1.9-1.107,3.133-1.107c1.369,0,2.489,0.449,3.358,1.347
			s1.304,2.137,1.304,3.719c0,1.282-0.192,2.291-0.577,3.025c-0.385,0.735-0.944,1.306-1.679,1.712
			c-0.735,0.406-1.537,0.61-2.406,0.61c-1.395,0-2.522-0.447-3.382-1.342C332.764,287.617,332.334,286.329,332.334,284.646z
			 M334.069,284.646c0,1.276,0.278,2.231,0.835,2.866s1.257,0.952,2.102,0.952c0.838,0,1.535-0.319,2.092-0.957
			s0.835-1.61,0.835-2.917c0-1.232-0.28-2.166-0.84-2.801s-1.256-0.952-2.087-0.952c-0.845,0-1.545,0.316-2.102,0.948
			C334.348,282.417,334.069,283.371,334.069,284.646z"/>
		<path d="M350.945,275.548l1.491,0.019c-0.068,0.669-0.217,1.135-0.445,1.397s-0.522,0.432-0.882,0.507s-1.064,0.112-2.115,0.112
			c-1.395,0-2.345,0.135-2.852,0.403c-0.507,0.27-0.871,0.699-1.093,1.29c-0.223,0.591-0.346,1.353-0.371,2.284
			c0.426-0.632,0.923-1.105,1.492-1.421c0.568-0.316,1.21-0.474,1.923-0.474c1.307,0,2.389,0.448,3.246,1.346
			c0.856,0.897,1.285,2.112,1.285,3.645c0,1.163-0.216,2.117-0.647,2.861s-0.943,1.319-1.534,1.726s-1.396,0.61-2.415,0.61
			c-1.183,0-2.102-0.271-2.758-0.812c-0.657-0.541-1.16-1.234-1.511-2.078c-0.351-0.845-0.525-2.313-0.525-4.409
			c0-2.633,0.445-4.405,1.337-5.318c0.891-0.913,2.262-1.37,4.113-1.37c1.15,0,1.805-0.019,1.961-0.056
			C350.802,275.772,350.901,275.686,350.945,275.548z M350.861,284.609c0-1.038-0.246-1.889-0.736-2.552
			c-0.491-0.663-1.184-0.994-2.078-0.994c-0.932,0-1.651,0.351-2.157,1.051c-0.507,0.7-0.761,1.635-0.761,2.805
			c0,1.157,0.28,2.042,0.84,2.654c0.56,0.613,1.249,0.92,2.068,0.92c0.838,0,1.519-0.355,2.041-1.065
			C350.6,286.719,350.861,285.778,350.861,284.609z"/>
		<path d="M354.021,284.646c0-1.845,0.513-3.211,1.539-4.099c0.856-0.738,1.9-1.107,3.133-1.107c1.369,0,2.489,0.449,3.358,1.347
			s1.304,2.137,1.304,3.719c0,1.282-0.192,2.291-0.577,3.025c-0.385,0.735-0.944,1.306-1.679,1.712
			c-0.735,0.406-1.537,0.61-2.406,0.61c-1.395,0-2.522-0.447-3.382-1.342C354.451,287.617,354.021,286.329,354.021,284.646z
			 M355.757,284.646c0,1.276,0.278,2.231,0.835,2.866s1.257,0.952,2.102,0.952c0.838,0,1.535-0.319,2.092-0.957
			s0.835-1.61,0.835-2.917c0-1.232-0.28-2.166-0.84-2.801s-1.256-0.952-2.087-0.952c-0.845,0-1.545,0.316-2.102,0.948
			C356.035,282.417,355.757,283.371,355.757,284.646z"/>
		<path d="M365.738,279.666h7.843v9.962h-1.68v-8.564h-4.475v4.962c0,1.157-0.037,1.92-0.112,2.289s-0.281,0.691-0.619,0.967
			c-0.338,0.274-0.825,0.412-1.464,0.412c-0.394,0-0.847-0.024-1.359-0.075v-1.406h0.74c0.351,0,0.601-0.036,0.751-0.108
			c0.15-0.071,0.25-0.186,0.3-0.343c0.05-0.156,0.075-0.666,0.075-1.528V279.666z"/>
		<path d="M375.71,284.646c0-1.845,0.513-3.211,1.539-4.099c0.856-0.738,1.9-1.107,3.133-1.107c1.369,0,2.489,0.449,3.358,1.347
			s1.304,2.137,1.304,3.719c0,1.282-0.192,2.291-0.577,3.025c-0.385,0.735-0.944,1.306-1.679,1.712
			c-0.735,0.406-1.537,0.61-2.406,0.61c-1.395,0-2.522-0.447-3.382-1.342C376.14,287.617,375.71,286.329,375.71,284.646z
			 M377.445,284.646c0,1.276,0.278,2.231,0.835,2.866s1.257,0.952,2.102,0.952c0.838,0,1.535-0.319,2.092-0.957
			s0.835-1.61,0.835-2.917c0-1.232-0.28-2.166-0.84-2.801s-1.256-0.952-2.087-0.952c-0.845,0-1.545,0.316-2.102,0.948
			C377.724,282.417,377.445,283.371,377.445,284.646z"/>
		<path d="M385.982,279.666h1.688v1.885c0,0.813,0.048,1.402,0.146,1.769c0.097,0.366,0.329,0.685,0.698,0.957
			c0.369,0.271,0.832,0.408,1.389,0.408c0.638,0,1.464-0.169,2.477-0.507v-4.512h1.688v9.962h-1.688v-4.015
			c-1.038,0.325-2.008,0.487-2.908,0.487c-0.757,0-1.424-0.192-2.003-0.577c-0.578-0.384-0.971-0.854-1.177-1.411
			c-0.207-0.557-0.31-1.17-0.31-1.839V279.666z"/>
		<path d="M396.601,279.666h1.688v4.306c0.538,0,0.915-0.104,1.131-0.31c0.216-0.207,0.533-0.807,0.952-1.802
			c0.331-0.787,0.6-1.307,0.807-1.557c0.206-0.25,0.443-0.419,0.713-0.507c0.269-0.087,0.7-0.131,1.294-0.131h0.338v1.397
			l-0.469-0.01c-0.444,0-0.729,0.066-0.854,0.197c-0.132,0.138-0.332,0.547-0.601,1.229c-0.257,0.65-0.491,1.102-0.703,1.352
			c-0.213,0.25-0.541,0.479-0.985,0.685c0.726,0.193,1.438,0.869,2.139,2.026l1.848,3.086h-1.856l-1.802-3.086
			c-0.369-0.619-0.69-1.027-0.966-1.225s-0.604-0.295-0.985-0.295v4.605h-1.688V279.666z"/>
		<path d="M411.938,288.399c-0.626,0.531-1.228,0.906-1.807,1.125c-0.578,0.219-1.199,0.329-1.861,0.329
			c-1.095,0-1.936-0.268-2.523-0.803c-0.588-0.534-0.882-1.218-0.882-2.05c0-0.487,0.11-0.933,0.333-1.336
			c0.222-0.403,0.513-0.728,0.872-0.972c0.359-0.243,0.765-0.428,1.215-0.553c0.331-0.088,0.832-0.172,1.501-0.254
			c1.363-0.162,2.367-0.356,3.011-0.581c0.007-0.231,0.01-0.379,0.01-0.441c0-0.688-0.159-1.172-0.479-1.454
			c-0.432-0.381-1.072-0.572-1.923-0.572c-0.794,0-1.381,0.14-1.759,0.418c-0.379,0.278-0.658,0.771-0.84,1.478l-1.65-0.226
			c0.149-0.706,0.396-1.277,0.74-1.712c0.345-0.435,0.842-0.77,1.492-1.004s1.403-0.352,2.261-0.352
			c0.851,0,1.541,0.101,2.073,0.301c0.531,0.2,0.922,0.451,1.172,0.755c0.25,0.303,0.426,0.687,0.525,1.148
			c0.057,0.288,0.085,0.808,0.085,1.558v2.251c0,1.57,0.036,2.563,0.107,2.979c0.072,0.416,0.214,0.814,0.427,1.196h-1.764
			C412.101,289.277,411.988,288.868,411.938,288.399z M411.797,284.628c-0.612,0.25-1.532,0.463-2.758,0.638
			c-0.693,0.101-1.185,0.213-1.473,0.338c-0.287,0.125-0.51,0.309-0.666,0.549c-0.156,0.241-0.234,0.508-0.234,0.802
			c0,0.45,0.171,0.826,0.512,1.126s0.839,0.45,1.496,0.45c0.65,0,1.229-0.142,1.735-0.427c0.507-0.284,0.878-0.674,1.116-1.168
			c0.182-0.381,0.271-0.944,0.271-1.688V284.628z"/>
	</g>
	<g enable-background="new    ">
		<path d="M300.529,247.957h1.82v6.022c0.831,0,1.416-0.161,1.754-0.483s0.77-1.096,1.295-2.321c0.381-0.9,0.695-1.537,0.942-1.909
			s0.599-0.685,1.056-0.938c0.456-0.253,0.96-0.38,1.51-0.38c0.7,0,1.069,0.007,1.107,0.02v1.575c-0.063,0-0.185-0.003-0.366-0.009
			c-0.2-0.007-0.322-0.01-0.366-0.01c-0.581,0-1.013,0.141-1.294,0.422c-0.288,0.282-0.616,0.882-0.985,1.802
			c-0.463,1.163-0.854,1.896-1.172,2.199c-0.319,0.304-0.701,0.546-1.145,0.728c0.888,0.243,1.764,1.063,2.626,2.457l2.833,4.578
			h-2.261l-2.298-3.733c-0.632-1.032-1.16-1.74-1.586-2.125c-0.425-0.385-0.976-0.577-1.65-0.577v6.436h-1.82V247.957z"/>
		<path d="M312.303,251.747h7.842v9.962h-1.679v-8.564h-4.475v4.962c0,1.157-0.038,1.92-0.113,2.289
			c-0.074,0.369-0.281,0.691-0.619,0.967c-0.337,0.274-0.825,0.412-1.463,0.412c-0.395,0-0.848-0.024-1.36-0.075v-1.406h0.741
			c0.35,0,0.601-0.036,0.75-0.108c0.15-0.071,0.25-0.186,0.301-0.343c0.05-0.156,0.075-0.666,0.075-1.528V251.747z"/>
		<path d="M329.507,258.501l1.745,0.216c-0.275,1.02-0.785,1.811-1.529,2.373s-1.694,0.845-2.852,0.845
			c-1.457,0-2.612-0.449-3.466-1.347c-0.854-0.897-1.281-2.156-1.281-3.775c0-1.676,0.432-2.977,1.295-3.902
			s1.982-1.389,3.358-1.389c1.332,0,2.42,0.454,3.265,1.36c0.844,0.907,1.266,2.183,1.266,3.827c0,0.101-0.003,0.25-0.009,0.45
			h-7.43c0.063,1.095,0.372,1.933,0.929,2.515c0.557,0.581,1.251,0.872,2.083,0.872c0.619,0,1.147-0.163,1.585-0.488
			S329.251,259.214,329.507,258.501z M323.963,255.771h5.563c-0.074-0.839-0.287-1.467-0.638-1.886
			c-0.538-0.65-1.235-0.976-2.092-0.976c-0.775,0-1.428,0.26-1.956,0.778C324.312,254.208,324.02,254.902,323.963,255.771z"/>
		<path d="M331.823,251.747h8.096v1.397h-3.208v8.564h-1.68v-8.564h-3.208V251.747z"/>
		<path d="M341.523,251.747h1.688v4.306c0.538,0,0.915-0.104,1.131-0.31c0.216-0.207,0.533-0.807,0.952-1.802
			c0.331-0.787,0.6-1.307,0.807-1.557c0.206-0.25,0.443-0.419,0.713-0.507c0.269-0.087,0.7-0.131,1.294-0.131h0.338v1.397
			l-0.469-0.01c-0.444,0-0.729,0.066-0.854,0.197c-0.132,0.138-0.332,0.547-0.601,1.229c-0.257,0.65-0.491,1.102-0.703,1.352
			c-0.213,0.25-0.541,0.479-0.985,0.685c0.726,0.193,1.438,0.869,2.139,2.026l1.848,3.086h-1.856l-1.802-3.086
			c-0.369-0.619-0.69-1.027-0.966-1.225s-0.604-0.295-0.985-0.295v4.605h-1.688V251.747z"/>
		<path d="M356.861,260.48c-0.626,0.531-1.228,0.906-1.807,1.125c-0.578,0.219-1.199,0.329-1.861,0.329
			c-1.095,0-1.936-0.268-2.523-0.803c-0.588-0.534-0.882-1.218-0.882-2.05c0-0.487,0.11-0.933,0.333-1.336
			c0.222-0.403,0.513-0.728,0.872-0.972c0.359-0.243,0.765-0.428,1.215-0.553c0.331-0.088,0.832-0.172,1.501-0.254
			c1.363-0.162,2.367-0.356,3.011-0.581c0.007-0.231,0.01-0.379,0.01-0.441c0-0.688-0.159-1.172-0.479-1.454
			c-0.432-0.381-1.072-0.572-1.923-0.572c-0.794,0-1.381,0.14-1.759,0.418c-0.379,0.278-0.658,0.771-0.84,1.478l-1.65-0.226
			c0.149-0.706,0.396-1.277,0.74-1.712c0.345-0.435,0.842-0.77,1.492-1.004s1.403-0.352,2.261-0.352
			c0.851,0,1.541,0.101,2.073,0.301c0.531,0.2,0.922,0.451,1.172,0.755c0.25,0.303,0.426,0.687,0.525,1.148
			c0.057,0.288,0.085,0.808,0.085,1.558v2.251c0,1.57,0.036,2.563,0.107,2.979c0.072,0.416,0.214,0.814,0.427,1.196h-1.764
			C357.023,261.358,356.911,260.949,356.861,260.48z M356.72,256.709c-0.612,0.25-1.532,0.463-2.758,0.638
			c-0.693,0.101-1.185,0.213-1.473,0.338c-0.287,0.125-0.51,0.309-0.666,0.549c-0.156,0.241-0.234,0.508-0.234,0.802
			c0,0.45,0.171,0.826,0.512,1.126s0.839,0.45,1.496,0.45c0.65,0,1.229-0.142,1.735-0.427c0.507-0.284,0.878-0.674,1.116-1.168
			c0.182-0.381,0.271-0.944,0.271-1.688V256.709z"/>
		<path d="M366.626,247.957h1.819v12.129h4.568v-12.129h1.82v12.129h4.568v-12.129h1.819v13.752h-14.596V247.957z"/>
		<path d="M383.998,251.747h3.894c0.957,0,1.668,0.079,2.134,0.239c0.466,0.159,0.866,0.451,1.201,0.877
			c0.334,0.425,0.502,0.935,0.502,1.528c0,0.476-0.099,0.891-0.296,1.243c-0.197,0.354-0.492,0.649-0.887,0.887
			c0.47,0.156,0.858,0.449,1.168,0.877c0.31,0.429,0.465,0.937,0.465,1.524c-0.063,0.944-0.4,1.645-1.014,2.102
			c-0.612,0.456-1.504,0.685-2.673,0.685h-4.494V251.747z M385.687,255.939h1.802c0.719,0,1.213-0.037,1.481-0.112
			c0.27-0.075,0.51-0.227,0.723-0.455c0.213-0.228,0.319-0.502,0.319-0.82c0-0.525-0.187-0.892-0.559-1.098s-1.008-0.31-1.909-0.31
			h-1.857V255.939z M385.687,260.32h2.224c0.957,0,1.613-0.11,1.97-0.333c0.356-0.222,0.544-0.604,0.563-1.148
			c0-0.319-0.104-0.615-0.31-0.887c-0.207-0.272-0.476-0.444-0.808-0.516c-0.331-0.072-0.862-0.108-1.595-0.108h-2.045V260.32z"/>
		<path d="M400.48,260.48c-0.626,0.531-1.228,0.906-1.807,1.125c-0.578,0.219-1.199,0.329-1.861,0.329
			c-1.095,0-1.936-0.268-2.523-0.803c-0.588-0.534-0.882-1.218-0.882-2.05c0-0.487,0.11-0.933,0.333-1.336
			c0.222-0.403,0.513-0.728,0.872-0.972c0.359-0.243,0.765-0.428,1.215-0.553c0.331-0.088,0.832-0.172,1.501-0.254
			c1.363-0.162,2.367-0.356,3.011-0.581c0.007-0.231,0.01-0.379,0.01-0.441c0-0.688-0.159-1.172-0.479-1.454
			c-0.432-0.381-1.072-0.572-1.923-0.572c-0.794,0-1.381,0.14-1.759,0.418c-0.379,0.278-0.658,0.771-0.84,1.478l-1.65-0.226
			c0.149-0.706,0.396-1.277,0.74-1.712c0.345-0.435,0.842-0.77,1.492-1.004s1.403-0.352,2.261-0.352
			c0.851,0,1.541,0.101,2.073,0.301c0.531,0.2,0.922,0.451,1.172,0.755c0.25,0.303,0.426,0.687,0.525,1.148
			c0.057,0.288,0.085,0.808,0.085,1.558v2.251c0,1.57,0.036,2.563,0.107,2.979c0.072,0.416,0.214,0.814,0.427,1.196h-1.764
			C400.643,261.358,400.53,260.949,400.48,260.48z M400.339,256.709c-0.612,0.25-1.532,0.463-2.758,0.638
			c-0.693,0.101-1.185,0.213-1.473,0.338c-0.287,0.125-0.51,0.309-0.666,0.549c-0.156,0.241-0.234,0.508-0.234,0.802
			c0,0.45,0.171,0.826,0.512,1.126s0.839,0.45,1.496,0.45c0.65,0,1.229-0.142,1.735-0.427c0.507-0.284,0.878-0.674,1.116-1.168
			c0.182-0.381,0.271-0.944,0.271-1.688V256.709z"/>
		<path d="M404.673,251.747h1.688v4.146h4.682v-4.146h1.688v9.962h-1.688v-4.418h-4.682v4.418h-1.688V251.747z"/>
		<path d="M415.283,251.747h1.688v4.146h4.682v-4.146h1.688v9.962h-1.688v-4.418h-4.682v4.418h-1.688V251.747z"/>
		<path d="M432.385,260.48c-0.626,0.531-1.228,0.906-1.807,1.125c-0.578,0.219-1.199,0.329-1.861,0.329
			c-1.095,0-1.936-0.268-2.523-0.803c-0.588-0.534-0.882-1.218-0.882-2.05c0-0.487,0.11-0.933,0.333-1.336
			c0.222-0.403,0.513-0.728,0.872-0.972c0.359-0.243,0.765-0.428,1.215-0.553c0.331-0.088,0.832-0.172,1.501-0.254
			c1.363-0.162,2.367-0.356,3.011-0.581c0.007-0.231,0.01-0.379,0.01-0.441c0-0.688-0.159-1.172-0.479-1.454
			c-0.432-0.381-1.072-0.572-1.923-0.572c-0.794,0-1.381,0.14-1.759,0.418c-0.379,0.278-0.658,0.771-0.84,1.478l-1.65-0.226
			c0.149-0.706,0.396-1.277,0.74-1.712c0.345-0.435,0.842-0.77,1.492-1.004s1.403-0.352,2.261-0.352
			c0.851,0,1.541,0.101,2.073,0.301c0.531,0.2,0.922,0.451,1.172,0.755c0.25,0.303,0.426,0.687,0.525,1.148
			c0.057,0.288,0.085,0.808,0.085,1.558v2.251c0,1.57,0.036,2.563,0.107,2.979c0.072,0.416,0.214,0.814,0.427,1.196h-1.764
			C432.547,261.358,432.435,260.949,432.385,260.48z M432.243,256.709c-0.612,0.25-1.532,0.463-2.758,0.638
			c-0.693,0.101-1.185,0.213-1.473,0.338c-0.287,0.125-0.51,0.309-0.666,0.549c-0.156,0.241-0.234,0.508-0.234,0.802
			c0,0.45,0.171,0.826,0.512,1.126s0.839,0.45,1.496,0.45c0.65,0,1.229-0.142,1.735-0.427c0.507-0.284,0.878-0.674,1.116-1.168
			c0.182-0.381,0.271-0.944,0.271-1.688V256.709z"/>
	</g>
	<g enable-background="new    ">
		<path d="M159.009,267.914l5.281-13.752h1.961l5.628,13.752h-2.073l-1.604-4.165h-5.75l-1.51,4.165H159.009z M162.977,262.267
			h4.662l-1.435-3.809c-0.438-1.156-0.763-2.107-0.976-2.852c-0.175,0.882-0.422,1.758-0.741,2.627L162.977,262.267z"/>
		<path d="M173.107,257.952h1.688v4.306c0.538,0,0.915-0.104,1.131-0.31c0.216-0.207,0.533-0.807,0.952-1.802
			c0.331-0.787,0.6-1.307,0.807-1.557c0.206-0.25,0.443-0.419,0.713-0.507c0.269-0.087,0.7-0.131,1.294-0.131h0.338v1.397
			l-0.469-0.01c-0.444,0-0.729,0.066-0.854,0.197c-0.132,0.138-0.332,0.547-0.601,1.229c-0.257,0.65-0.491,1.102-0.703,1.352
			c-0.213,0.25-0.541,0.479-0.985,0.685c0.726,0.193,1.438,0.869,2.139,2.026l1.848,3.086h-1.856l-1.802-3.086
			c-0.369-0.619-0.69-1.027-0.966-1.225s-0.604-0.295-0.985-0.295v4.605h-1.688V257.952z"/>
		<path d="M188.239,264.265l1.66,0.216c-0.182,1.145-0.646,2.041-1.394,2.688c-0.747,0.647-1.665,0.972-2.753,0.972
			c-1.363,0-2.459-0.446-3.288-1.337c-0.828-0.892-1.243-2.169-1.243-3.832c0-1.076,0.179-2.017,0.535-2.824
			c0.356-0.807,0.898-1.411,1.628-1.814c0.729-0.403,1.521-0.605,2.378-0.605c1.081,0,1.967,0.273,2.654,0.821
			c0.688,0.547,1.129,1.324,1.323,2.331l-1.643,0.253c-0.156-0.669-0.433-1.173-0.83-1.511c-0.396-0.337-0.877-0.506-1.439-0.506
			c-0.851,0-1.542,0.305-2.073,0.914c-0.531,0.61-0.797,1.575-0.797,2.895c0,1.338,0.256,2.311,0.769,2.917s1.183,0.91,2.008,0.91
			c0.663,0,1.216-0.203,1.66-0.609C187.839,265.734,188.12,265.109,188.239,264.265z"/>
		<path d="M190.931,262.933c0-1.845,0.513-3.211,1.539-4.099c0.856-0.738,1.9-1.107,3.133-1.107c1.369,0,2.489,0.449,3.358,1.347
			s1.304,2.137,1.304,3.719c0,1.282-0.192,2.291-0.577,3.025c-0.385,0.735-0.944,1.306-1.679,1.712
			c-0.735,0.406-1.537,0.61-2.406,0.61c-1.395,0-2.522-0.447-3.382-1.342C191.36,265.903,190.931,264.615,190.931,262.933z
			 M192.666,262.933c0,1.276,0.278,2.231,0.835,2.866s1.257,0.952,2.102,0.952c0.838,0,1.535-0.319,2.092-0.957
			s0.835-1.61,0.835-2.917c0-1.232-0.28-2.166-0.84-2.801s-1.256-0.952-2.087-0.952c-0.845,0-1.545,0.316-2.102,0.948
			C192.944,260.703,192.666,261.657,192.666,262.933z"/>
		<path d="M202.253,257.952h1.688v4.146h4.682v-4.146h1.688v9.962h-1.688v-4.418h-4.682v4.418h-1.688V257.952z"/>
	</g>
	<g enable-background="new    ">
		<path d="M32.549,299.643v-5.794h-2.003c-0.445,0-0.765,0.021-0.961,0.062c-0.267,0.065-0.53,0.182-0.788,0.348
			c-0.258,0.166-0.55,0.457-0.876,0.872c-0.327,0.416-0.742,1.015-1.246,1.798l-1.727,2.715h-2.172l2.27-3.552
			c0.451-0.693,0.929-1.272,1.433-1.735c0.237-0.214,0.584-0.43,1.042-0.649c-1.252-0.172-2.178-0.575-2.777-1.211
			c-0.599-0.635-0.899-1.415-0.899-2.341c0-0.718,0.181-1.373,0.543-1.967c0.362-0.593,0.846-1.007,1.451-1.241
			c0.605-0.234,1.49-0.352,2.652-0.352h5.786v13.048H32.549z M32.549,288.036h-4.13c-0.967,0-1.675,0.199-2.123,0.597
			c-0.448,0.397-0.672,0.904-0.672,1.521c0,0.422,0.116,0.812,0.347,1.171s0.569,0.62,1.015,0.783
			c0.445,0.163,1.062,0.245,1.851,0.245h3.712V288.036z"/>
		<path d="M38.174,290.19h6.586v8.135h1.023v3.996h-1.317v-2.679h-7.441v2.679h-1.317v-3.996h0.846
			C37.681,296.794,38.221,294.083,38.174,290.19z M39.509,291.517c-0.119,3.067-0.593,5.337-1.424,6.809h5.082v-6.809H39.509z"/>
		<path d="M47.546,303.265V290.19h1.459v1.229c0.344-0.481,0.733-0.842,1.166-1.082s0.958-0.36,1.576-0.36
			c0.807,0,1.519,0.208,2.136,0.623s1.083,1.001,1.397,1.758s0.472,1.586,0.472,2.487c0,0.968-0.173,1.839-0.521,2.612
			c-0.347,0.774-0.852,1.368-1.513,1.78c-0.662,0.413-1.357,0.619-2.087,0.619c-0.534,0-1.014-0.113-1.438-0.339
			c-0.424-0.225-0.773-0.51-1.046-0.854v4.602H47.546z M48.997,294.97c0,1.217,0.246,2.115,0.739,2.697
			c0.493,0.581,1.089,0.872,1.789,0.872c0.712,0,1.322-0.301,1.829-0.903s0.761-1.535,0.761-2.8c0-1.204-0.248-2.106-0.743-2.705
			c-0.496-0.6-1.087-0.899-1.775-0.899c-0.683,0-1.286,0.319-1.812,0.957C49.259,292.826,48.997,293.754,48.997,294.97z"/>
		<path d="M57.087,294.916c0-1.75,0.486-3.047,1.459-3.889c0.813-0.7,1.804-1.051,2.973-1.051c1.3,0,2.362,0.426,3.187,1.277
			s1.237,2.028,1.237,3.529c0,1.216-0.183,2.173-0.547,2.87c-0.365,0.697-0.896,1.238-1.593,1.624s-1.458,0.579-2.283,0.579
			c-1.323,0-2.393-0.425-3.208-1.273C57.495,297.735,57.087,296.513,57.087,294.916z M58.734,294.916
			c0,1.211,0.264,2.117,0.792,2.72s1.193,0.903,1.994,0.903c0.795,0,1.457-0.303,1.985-0.908s0.792-1.527,0.792-2.768
			c0-1.169-0.266-2.055-0.796-2.657c-0.531-0.602-1.191-0.903-1.98-0.903c-0.801,0-1.465,0.3-1.994,0.899
			C58.998,292.801,58.734,293.706,58.734,294.916z"/>
	</g>
	<g enable-background="new    ">
		<path d="M162.559,181.906h9.209v11.709h-1.558v-10.327h-6.102v10.327h-1.55V181.906z"/>
		<path d="M179.923,190.884l1.486,0.184c-0.234,0.868-0.668,1.541-1.302,2.021c-0.634,0.479-1.443,0.719-2.428,0.719
			c-1.241,0-2.225-0.382-2.951-1.146c-0.727-0.765-1.09-1.836-1.09-3.215c0-1.428,0.367-2.535,1.102-3.323s1.688-1.182,2.859-1.182
			c1.134,0,2.061,0.386,2.78,1.158c0.719,0.771,1.078,1.858,1.078,3.259c0,0.085-0.003,0.213-0.008,0.383h-6.326
			c0.053,0.932,0.317,1.646,0.791,2.141c0.474,0.495,1.065,0.743,1.773,0.743c0.527,0,0.977-0.139,1.35-0.415
			C179.409,191.933,179.705,191.49,179.923,190.884z M175.203,188.56h4.736c-0.064-0.714-0.245-1.249-0.543-1.605
			c-0.458-0.554-1.052-0.831-1.781-0.831c-0.66,0-1.215,0.222-1.666,0.663C175.5,187.229,175.25,187.819,175.203,188.56z"/>
		<path d="M183.213,196.866v-11.733h1.31v1.103c0.309-0.432,0.658-0.755,1.046-0.971s0.86-0.323,1.414-0.323
			c0.724,0,1.363,0.187,1.917,0.559c0.554,0.373,0.972,0.898,1.254,1.578c0.282,0.679,0.423,1.423,0.423,2.232
			c0,0.867-0.156,1.649-0.467,2.344c-0.312,0.695-0.764,1.228-1.358,1.598s-1.218,0.555-1.873,0.555c-0.479,0-0.91-0.101-1.29-0.304
			c-0.381-0.202-0.694-0.457-0.938-0.767v4.13H183.213z M184.516,189.422c0,1.092,0.221,1.898,0.663,2.42
			c0.442,0.522,0.977,0.783,1.605,0.783c0.639,0,1.186-0.271,1.642-0.811c0.455-0.541,0.683-1.378,0.683-2.513
			c0-1.08-0.222-1.89-0.667-2.428c-0.444-0.538-0.976-0.807-1.593-0.807c-0.612,0-1.154,0.286-1.625,0.858
			S184.516,188.33,184.516,189.422z"/>
		<path d="M198.118,190.884l1.486,0.184c-0.234,0.868-0.668,1.541-1.302,2.021c-0.634,0.479-1.443,0.719-2.428,0.719
			c-1.241,0-2.225-0.382-2.951-1.146c-0.727-0.765-1.09-1.836-1.09-3.215c0-1.428,0.367-2.535,1.102-3.323s1.688-1.182,2.859-1.182
			c1.134,0,2.061,0.386,2.78,1.158c0.719,0.771,1.078,1.858,1.078,3.259c0,0.085-0.003,0.213-0.008,0.383h-6.326
			c0.053,0.932,0.317,1.646,0.791,2.141c0.474,0.495,1.065,0.743,1.773,0.743c0.527,0,0.977-0.139,1.35-0.415
			C197.604,191.933,197.899,191.49,198.118,190.884z M193.397,188.56h4.736c-0.064-0.714-0.245-1.249-0.543-1.605
			c-0.458-0.554-1.052-0.831-1.781-0.831c-0.66,0-1.215,0.222-1.666,0.663C193.694,187.229,193.445,187.819,193.397,188.56z"/>
		<path d="M200.09,193.615l3.099-4.409l-2.867-4.073h1.797l1.302,1.989c0.245,0.378,0.442,0.694,0.591,0.95
			c0.234-0.352,0.45-0.663,0.647-0.935l1.43-2.005h1.717l-2.931,3.993l3.155,4.489h-1.765l-1.741-2.636l-0.463-0.711l-2.229,3.347
			H200.09z"/>
		<path d="M209.236,185.133h3.314c0.815,0,1.42,0.068,1.817,0.204c0.396,0.136,0.737,0.385,1.022,0.746
			c0.285,0.362,0.427,0.797,0.427,1.302c0,0.405-0.083,0.758-0.251,1.059c-0.167,0.301-0.419,0.553-0.755,0.755
			c0.399,0.133,0.731,0.382,0.995,0.747c0.264,0.364,0.396,0.797,0.396,1.298c-0.053,0.804-0.341,1.4-0.863,1.789
			s-1.281,0.583-2.276,0.583h-3.826V185.133z M210.673,188.703h1.534c0.612,0,1.033-0.032,1.262-0.096
			c0.229-0.064,0.434-0.193,0.615-0.388c0.181-0.194,0.271-0.427,0.271-0.699c0-0.447-0.159-0.758-0.475-0.934
			c-0.317-0.176-0.859-0.264-1.625-0.264h-1.582V188.703z M210.673,192.434h1.893c0.814,0,1.374-0.095,1.677-0.284
			c0.304-0.188,0.463-0.515,0.479-0.979c0-0.271-0.087-0.522-0.263-0.755c-0.176-0.231-0.405-0.378-0.687-0.438
			c-0.282-0.062-0.735-0.093-1.358-0.093h-1.741V192.434z"/>
		<path d="M223.27,192.569c-0.532,0.452-1.045,0.771-1.538,0.958c-0.492,0.187-1.021,0.279-1.585,0.279
			c-0.932,0-1.648-0.228-2.148-0.683s-0.751-1.037-0.751-1.745c0-0.415,0.095-0.795,0.284-1.139
			c0.189-0.343,0.437-0.618,0.743-0.826s0.651-0.365,1.035-0.472c0.282-0.074,0.708-0.146,1.278-0.215
			c1.161-0.139,2.016-0.304,2.564-0.496c0.005-0.196,0.008-0.321,0.008-0.375c0-0.586-0.136-0.998-0.407-1.238
			c-0.367-0.324-0.913-0.487-1.637-0.487c-0.676,0-1.176,0.119-1.498,0.355c-0.322,0.237-0.561,0.656-0.715,1.259l-1.406-0.192
			c0.127-0.602,0.338-1.087,0.631-1.457c0.292-0.37,0.716-0.655,1.27-0.855c0.554-0.199,1.195-0.299,1.925-0.299
			c0.724,0,1.313,0.085,1.765,0.255c0.453,0.171,0.785,0.385,0.999,0.644c0.213,0.258,0.362,0.584,0.447,0.979
			c0.048,0.245,0.072,0.687,0.072,1.325v1.917c0,1.337,0.031,2.183,0.092,2.536c0.061,0.354,0.183,0.693,0.363,1.019h-1.501
			C223.408,193.317,223.312,192.969,223.27,192.569z M223.15,189.358c-0.522,0.213-1.305,0.394-2.348,0.543
			c-0.591,0.085-1.009,0.181-1.254,0.287c-0.245,0.106-0.434,0.263-0.567,0.468s-0.2,0.433-0.2,0.683
			c0,0.384,0.145,0.703,0.436,0.958c0.29,0.256,0.715,0.384,1.274,0.384c0.554,0,1.046-0.121,1.478-0.363s0.748-0.574,0.951-0.994
			c0.154-0.325,0.231-0.805,0.231-1.438V189.358z"/>
		<path d="M225.698,185.133h6.893v1.19h-2.731v7.292h-1.431v-7.292h-2.731V185.133z"/>
		<path d="M238.692,193.615v-11.709h4.417c0.777,0,1.371,0.037,1.781,0.111c0.575,0.096,1.057,0.278,1.445,0.547
			c0.389,0.27,0.702,0.646,0.938,1.131c0.237,0.484,0.355,1.017,0.355,1.598c0,0.995-0.316,1.838-0.95,2.527
			s-1.778,1.034-3.435,1.034h-3.003v4.761H238.692z M240.242,187.473h3.027c1.001,0,1.712-0.186,2.133-0.559
			c0.42-0.373,0.631-0.897,0.631-1.573c0-0.49-0.124-0.909-0.372-1.259c-0.247-0.349-0.573-0.578-0.979-0.69
			c-0.261-0.069-0.742-0.104-1.445-0.104h-2.995V187.473z"/>
		<path d="M254.411,192.569c-0.532,0.452-1.045,0.771-1.537,0.958c-0.493,0.187-1.021,0.279-1.586,0.279
			c-0.932,0-1.647-0.228-2.148-0.683s-0.751-1.037-0.751-1.745c0-0.415,0.095-0.795,0.284-1.139
			c0.188-0.343,0.437-0.618,0.742-0.826c0.307-0.208,0.651-0.365,1.034-0.472c0.282-0.074,0.709-0.146,1.278-0.215
			c1.161-0.139,2.016-0.304,2.563-0.496c0.006-0.196,0.009-0.321,0.009-0.375c0-0.586-0.136-0.998-0.407-1.238
			c-0.368-0.324-0.914-0.487-1.638-0.487c-0.677,0-1.176,0.119-1.498,0.355c-0.322,0.237-0.561,0.656-0.715,1.259l-1.405-0.192
			c0.128-0.602,0.338-1.087,0.631-1.457s0.716-0.655,1.27-0.855c0.554-0.199,1.195-0.299,1.925-0.299
			c0.725,0,1.313,0.085,1.766,0.255c0.452,0.171,0.785,0.385,0.998,0.644c0.213,0.258,0.362,0.584,0.447,0.979
			c0.048,0.245,0.072,0.687,0.072,1.325v1.917c0,1.337,0.03,2.183,0.092,2.536c0.062,0.354,0.183,0.693,0.363,1.019h-1.501
			C254.55,193.317,254.454,192.969,254.411,192.569z M254.291,189.358c-0.521,0.213-1.305,0.394-2.348,0.543
			c-0.591,0.085-1.01,0.181-1.254,0.287c-0.245,0.106-0.435,0.263-0.567,0.468s-0.199,0.433-0.199,0.683
			c0,0.384,0.145,0.703,0.435,0.958c0.29,0.256,0.715,0.384,1.274,0.384c0.554,0,1.046-0.121,1.478-0.363s0.748-0.574,0.95-0.994
			c0.154-0.325,0.231-0.805,0.231-1.438V189.358z"/>
		<path d="M257.981,185.133h1.438v3.53h3.985v-3.53h1.438v8.482h-1.438v-3.762h-3.985v3.762h-1.438V185.133z"/>
		<path d="M267.015,185.133h3.315c0.814,0,1.42,0.068,1.816,0.204s0.737,0.385,1.022,0.746c0.285,0.362,0.428,0.797,0.428,1.302
			c0,0.405-0.084,0.758-0.252,1.059s-0.419,0.553-0.755,0.755c0.399,0.133,0.731,0.382,0.994,0.747
			c0.264,0.364,0.396,0.797,0.396,1.298c-0.053,0.804-0.341,1.4-0.862,1.789s-1.28,0.583-2.276,0.583h-3.826V185.133z
			 M268.453,188.703h1.533c0.612,0,1.033-0.032,1.262-0.096c0.229-0.064,0.434-0.193,0.615-0.388
			c0.181-0.194,0.271-0.427,0.271-0.699c0-0.447-0.158-0.758-0.476-0.934c-0.316-0.176-0.858-0.264-1.625-0.264h-1.581V188.703z
			 M268.453,192.434h1.893c0.814,0,1.374-0.095,1.678-0.284c0.303-0.188,0.463-0.515,0.479-0.979c0-0.271-0.088-0.522-0.264-0.755
			c-0.176-0.231-0.404-0.378-0.687-0.438c-0.282-0.062-0.735-0.093-1.357-0.093h-1.741V192.434z"/>
		<path d="M275.674,185.133h1.438v3.314h1.821c1.187,0,2.102,0.23,2.743,0.691c0.642,0.46,0.963,1.096,0.963,1.904
			c0,0.709-0.268,1.314-0.803,1.817s-1.392,0.755-2.568,0.755h-3.594V185.133z M277.111,192.434h1.51c0.91,0,1.56-0.112,1.948-0.336
			s0.583-0.572,0.583-1.046c0-0.368-0.144-0.695-0.431-0.982c-0.288-0.288-0.924-0.432-1.909-0.432h-1.701V192.434z"/>
		<path d="M290.026,190.884l1.485,0.184c-0.234,0.868-0.668,1.541-1.302,2.021s-1.442,0.719-2.428,0.719
			c-1.241,0-2.225-0.382-2.951-1.146c-0.727-0.765-1.091-1.836-1.091-3.215c0-1.428,0.368-2.535,1.103-3.323
			c0.735-0.788,1.688-1.182,2.859-1.182c1.135,0,2.061,0.386,2.779,1.158c0.72,0.771,1.079,1.858,1.079,3.259
			c0,0.085-0.003,0.213-0.009,0.383h-6.325c0.053,0.932,0.316,1.646,0.79,2.141c0.475,0.495,1.065,0.743,1.773,0.743
			c0.527,0,0.978-0.139,1.35-0.415C289.513,191.933,289.809,191.49,290.026,190.884z M285.306,188.56h4.737
			c-0.064-0.714-0.245-1.249-0.544-1.605c-0.458-0.554-1.052-0.831-1.78-0.831c-0.661,0-1.216,0.222-1.666,0.663
			C285.603,187.229,285.354,187.819,285.306,188.56z"/>
	</g>
	<g enable-background="new    ">
		<path d="M155.745,148.043h1.813v6.002c0.829,0,1.412-0.16,1.749-0.481c0.336-0.321,0.767-1.092,1.29-2.314
			c0.38-0.897,0.693-1.531,0.94-1.902c0.246-0.371,0.597-0.683,1.052-0.935c0.455-0.252,0.957-0.378,1.505-0.378
			c0.698,0,1.066,0.006,1.104,0.019v1.571c-0.063,0-0.184-0.003-0.365-0.009c-0.2-0.006-0.321-0.009-0.365-0.009
			c-0.58,0-1.01,0.14-1.29,0.42c-0.287,0.281-0.614,0.879-0.982,1.795c-0.461,1.16-0.851,1.89-1.168,2.193
			c-0.318,0.302-0.698,0.543-1.141,0.724c0.885,0.243,1.758,1.061,2.618,2.45l2.824,4.563h-2.253l-2.291-3.721
			c-0.629-1.028-1.156-1.734-1.58-2.118c-0.424-0.383-0.972-0.575-1.646-0.575v6.414h-1.813V148.043z"/>
		<path d="M167.479,151.82h7.816v9.929h-1.673v-8.536h-4.46v4.946c0,1.153-0.037,1.913-0.112,2.281
			c-0.075,0.367-0.281,0.688-0.617,0.963s-0.823,0.411-1.458,0.411c-0.393,0-0.845-0.025-1.355-0.075v-1.402h0.738
			c0.349,0,0.599-0.035,0.748-0.107c0.149-0.071,0.249-0.186,0.299-0.341c0.05-0.156,0.075-0.664,0.075-1.524V151.82z"/>
		<path d="M184.625,158.552l1.739,0.215c-0.274,1.016-0.782,1.805-1.524,2.365c-0.742,0.562-1.689,0.842-2.842,0.842
			c-1.453,0-2.604-0.447-3.455-1.342c-0.851-0.895-1.276-2.148-1.276-3.763c0-1.671,0.43-2.968,1.29-3.89
			c0.86-0.922,1.976-1.384,3.347-1.384c1.328,0,2.412,0.452,3.253,1.355c0.842,0.903,1.262,2.175,1.262,3.814
			c0,0.1-0.003,0.25-0.009,0.449h-7.405c0.063,1.091,0.371,1.926,0.926,2.506c0.555,0.579,1.247,0.869,2.076,0.869
			c0.617,0,1.144-0.162,1.58-0.486C184.023,159.779,184.369,159.262,184.625,158.552z M179.1,155.831h5.544
			c-0.075-0.836-0.287-1.462-0.636-1.88c-0.536-0.647-1.231-0.972-2.085-0.972c-0.772,0-1.422,0.259-1.949,0.775
			C179.447,154.272,179.156,154.965,179.1,155.831z"/>
		<path d="M186.935,151.82h8.068v1.393h-3.198v8.536h-1.673v-8.536h-3.197V151.82z"/>
		<path d="M195.77,156.784c0-1.839,0.511-3.2,1.533-4.085c0.854-0.735,1.895-1.103,3.123-1.103c1.365,0,2.481,0.447,3.347,1.342
			c0.866,0.894,1.3,2.13,1.3,3.707c0,1.277-0.192,2.282-0.575,3.015s-0.941,1.302-1.673,1.706c-0.732,0.405-1.532,0.608-2.398,0.608
			c-1.39,0-2.513-0.445-3.37-1.337S195.77,158.461,195.77,156.784z M197.499,156.784c0,1.271,0.277,2.224,0.832,2.856
			s1.253,0.949,2.094,0.949c0.835,0,1.53-0.318,2.085-0.954s0.832-1.604,0.832-2.907c0-1.228-0.279-2.158-0.836-2.791
			c-0.558-0.632-1.251-0.949-2.081-0.949c-0.841,0-1.54,0.315-2.094,0.944C197.776,154.563,197.499,155.513,197.499,156.784z"/>
		<path d="M206.007,151.82h1.683v1.879c0,0.811,0.048,1.397,0.145,1.762c0.097,0.365,0.329,0.684,0.697,0.954
			c0.368,0.271,0.829,0.407,1.384,0.407c0.636,0,1.458-0.169,2.468-0.505v-4.498h1.683v9.929h-1.683v-4.002
			c-1.035,0.324-2.001,0.486-2.898,0.486c-0.754,0-1.419-0.191-1.996-0.574c-0.577-0.384-0.968-0.853-1.173-1.407
			s-0.309-1.166-0.309-1.833V151.82z"/>
		<path d="M216.609,151.82h1.683v4.132h4.665v-4.132h1.683v9.929h-1.683v-4.403h-4.665v4.403h-1.683V151.82z"/>
		<path d="M226.547,156.784c0-1.839,0.511-3.2,1.534-4.085c0.854-0.735,1.895-1.103,3.122-1.103c1.365,0,2.48,0.447,3.348,1.342
			c0.866,0.894,1.299,2.13,1.299,3.707c0,1.277-0.191,2.282-0.574,3.015c-0.384,0.732-0.941,1.302-1.674,1.706
			c-0.732,0.405-1.532,0.608-2.398,0.608c-1.39,0-2.514-0.445-3.37-1.337C226.976,159.745,226.547,158.461,226.547,156.784z
			 M228.277,156.784c0,1.271,0.277,2.224,0.832,2.856s1.253,0.949,2.094,0.949c0.835,0,1.53-0.318,2.085-0.954
			s0.832-1.604,0.832-2.907c0-1.228-0.279-2.158-0.837-2.791c-0.558-0.632-1.251-0.949-2.08-0.949c-0.841,0-1.539,0.315-2.094,0.944
			C228.555,154.563,228.277,155.513,228.277,156.784z"/>
		<path d="M244.62,158.552l1.738,0.215c-0.274,1.016-0.782,1.805-1.523,2.365c-0.742,0.562-1.689,0.842-2.843,0.842
			c-1.452,0-2.604-0.447-3.454-1.342s-1.276-2.148-1.276-3.763c0-1.671,0.43-2.968,1.29-3.89c0.86-0.922,1.976-1.384,3.348-1.384
			c1.327,0,2.412,0.452,3.253,1.355c0.842,0.903,1.263,2.175,1.263,3.814c0,0.1-0.004,0.25-0.01,0.449h-7.404
			c0.062,1.091,0.37,1.926,0.926,2.506c0.555,0.579,1.246,0.869,2.075,0.869c0.617,0,1.144-0.162,1.58-0.486
			S244.364,159.262,244.62,158.552z M239.094,155.831h5.545c-0.075-0.836-0.287-1.462-0.636-1.88
			c-0.536-0.647-1.231-0.972-2.085-0.972c-0.773,0-1.423,0.259-1.949,0.775C239.441,154.272,239.15,154.965,239.094,155.831z"/>
		<path d="M252.885,151.82h8.068v1.393h-3.197v8.536h-1.674v-8.536h-3.197V151.82z"/>
		<path d="M269.144,158.552l1.738,0.215c-0.274,1.016-0.782,1.805-1.523,2.365c-0.742,0.562-1.689,0.842-2.843,0.842
			c-1.452,0-2.604-0.447-3.454-1.342s-1.276-2.148-1.276-3.763c0-1.671,0.43-2.968,1.29-3.89c0.86-0.922,1.976-1.384,3.348-1.384
			c1.327,0,2.412,0.452,3.253,1.355c0.842,0.903,1.263,2.175,1.263,3.814c0,0.1-0.004,0.25-0.01,0.449h-7.404
			c0.062,1.091,0.37,1.926,0.926,2.506c0.555,0.579,1.246,0.869,2.075,0.869c0.617,0,1.144-0.162,1.58-0.486
			S268.888,159.262,269.144,158.552z M263.617,155.831h5.545c-0.075-0.836-0.287-1.462-0.636-1.88
			c-0.536-0.647-1.231-0.972-2.085-0.972c-0.773,0-1.423,0.259-1.949,0.775C263.965,154.272,263.674,154.965,263.617,155.831z"/>
		<path d="M273.182,151.82h7.816v9.929h-1.674v-8.536h-4.46v4.946c0,1.153-0.037,1.913-0.112,2.281
			c-0.074,0.367-0.28,0.688-0.617,0.963c-0.336,0.274-0.822,0.411-1.458,0.411c-0.393,0-0.845-0.025-1.355-0.075v-1.402h0.738
			c0.349,0,0.599-0.035,0.748-0.107c0.149-0.071,0.249-0.186,0.299-0.341c0.05-0.156,0.075-0.664,0.075-1.524V151.82z"/>
		<path d="M283.12,156.784c0-1.839,0.511-3.2,1.533-4.085c0.854-0.735,1.895-1.103,3.123-1.103c1.364,0,2.48,0.447,3.347,1.342
			c0.866,0.894,1.3,2.13,1.3,3.707c0,1.277-0.191,2.282-0.575,3.015c-0.383,0.732-0.941,1.302-1.674,1.706
			c-0.732,0.405-1.531,0.608-2.397,0.608c-1.391,0-2.514-0.445-3.371-1.337C283.549,159.745,283.12,158.461,283.12,156.784z
			 M284.85,156.784c0,1.271,0.277,2.224,0.832,2.856s1.253,0.949,2.095,0.949c0.835,0,1.53-0.318,2.085-0.954
			s0.832-1.604,0.832-2.907c0-1.228-0.279-2.158-0.837-2.791c-0.558-0.632-1.252-0.949-2.08-0.949c-0.842,0-1.54,0.315-2.095,0.944
			C285.127,154.563,284.85,155.513,284.85,156.784z"/>
	</g>
	<g enable-background="new    ">
		<path d="M47.061,78.021H55.4V90.11h1.234v4.814h-1.618v-3.197h-9.06v3.197H44.34V90.11h1.066
			c1.103-1.664,1.655-5.027,1.655-10.088V78.021z M53.586,79.639h-4.778v0.701c0,1.166-0.104,2.76-0.313,4.782
			s-0.619,3.686-1.229,4.988h6.32V79.639z"/>
		<path d="M65.366,88.53l1.739,0.215c-0.274,1.016-0.782,1.805-1.524,2.365c-0.742,0.562-1.689,0.842-2.842,0.842
			c-1.453,0-2.604-0.447-3.455-1.342c-0.851-0.895-1.276-2.148-1.276-3.763c0-1.671,0.43-2.967,1.29-3.89
			c0.86-0.922,1.976-1.384,3.347-1.384c1.328,0,2.412,0.452,3.253,1.355c0.842,0.904,1.262,2.175,1.262,3.814
			c0,0.1-0.003,0.25-0.009,0.449h-7.405c0.063,1.091,0.371,1.926,0.926,2.506c0.555,0.579,1.247,0.869,2.076,0.869
			c0.617,0,1.144-0.162,1.58-0.486C64.765,89.758,65.11,89.24,65.366,88.53z M59.841,85.81h5.544
			c-0.075-0.835-0.287-1.462-0.636-1.879c-0.536-0.648-1.231-0.972-2.085-0.972c-0.772,0-1.422,0.259-1.949,0.776
			C60.188,84.251,59.897,84.943,59.841,85.81z"/>
		<path d="M69.228,81.798h1.683v4.132h4.665v-4.132h1.683v9.929h-1.683v-4.403h-4.665v4.403h-1.683V81.798z"/>
		<path d="M81.12,81.798h6.918v8.545h1.075v4.198H87.73v-2.814h-7.816v2.814H78.53v-4.198h0.888
			C80.603,88.735,81.17,85.888,81.12,81.798z M82.522,83.191c-0.125,3.223-0.624,5.606-1.496,7.152h5.339v-7.152H82.522z"/>
		<path d="M90.965,95.532V81.798h1.533v1.291c0.361-0.505,0.77-0.884,1.225-1.136s1.007-0.378,1.655-0.378
			c0.848,0,1.596,0.218,2.244,0.654c0.648,0.437,1.137,1.052,1.468,1.847c0.33,0.794,0.496,1.666,0.496,2.613
			c0,1.016-0.183,1.931-0.547,2.744c-0.365,0.813-0.895,1.437-1.589,1.869c-0.695,0.434-1.426,0.65-2.192,0.65
			c-0.561,0-1.064-0.119-1.51-0.355c-0.446-0.237-0.812-0.536-1.099-0.897v4.833H90.965z M92.489,86.819
			c0,1.277,0.258,2.222,0.776,2.833c0.518,0.61,1.144,0.916,1.879,0.916c0.748,0,1.388-0.316,1.921-0.949
			c0.533-0.633,0.799-1.612,0.799-2.94c0-1.265-0.26-2.212-0.781-2.842c-0.521-0.63-1.142-0.944-1.865-0.944
			c-0.717,0-1.351,0.335-1.903,1.005C92.765,84.567,92.489,85.542,92.489,86.819z"/>
		<path d="M101.614,81.798h1.683v7.573l4.666-7.573h1.814v9.929h-1.683v-7.526l-4.666,7.526h-1.813V81.798z"/>
		<path d="M111.403,81.798h8.068v1.393h-3.198v8.536H114.6v-8.536h-3.197V81.798z"/>
	</g>
	<g>
		<g enable-background="new    ">
			<path fill="#246C7C" d="M50.282,35.919V19.562h-6.11v-2.189h14.7v2.189h-6.136v16.357H50.282z"/>
			<path fill="#246C7C" d="M59.959,22.484h2.277v10.247l6.313-10.247h2.454v13.435h-2.277V25.735l-6.313,10.184h-2.454V22.484z"/>
			<path fill="#246C7C" d="M74.445,22.484h10.601v13.435h-2.277v-11.55h-6.047v11.55h-2.277V22.484z"/>
			<path fill="#246C7C" d="M88.462,22.484h2.277v10.247l6.313-10.247h2.454v13.435h-2.277V25.735l-6.313,10.184h-2.454V22.484z"/>
			<path fill="#246C7C" d="M102.1,22.484h2.277v2.542c0,1.097,0.065,1.892,0.196,2.385c0.131,0.494,0.445,0.923,0.942,1.291
				c0.498,0.367,1.122,0.55,1.873,0.55c0.86,0,1.974-0.228,3.34-0.683v-6.085h2.277v13.435h-2.277v-5.415
				c-1.4,0.438-2.708,0.658-3.922,0.658c-1.021,0-1.921-0.259-2.701-0.778c-0.78-0.519-1.309-1.153-1.587-1.904
				c-0.278-0.75-0.417-1.577-0.417-2.479V22.484z"/>
			<path fill="#246C7C" d="M116.446,22.484h2.277v5.591h6.313v-5.591h2.277v13.435h-2.277V29.96h-6.313v5.958h-2.277V22.484z"/>
			<path fill="#246C7C" d="M139.509,34.262c-0.844,0.717-1.655,1.223-2.436,1.518s-1.617,0.443-2.511,0.443
				c-1.476,0-2.61-0.361-3.403-1.082c-0.793-0.721-1.189-1.643-1.189-2.765c0-0.658,0.15-1.259,0.449-1.803s0.691-0.98,1.177-1.309
				c0.485-0.329,1.031-0.578,1.638-0.747c0.447-0.118,1.122-0.232,2.024-0.341c1.839-0.219,3.192-0.481,4.061-0.785
				c0.008-0.312,0.013-0.51,0.013-0.594c0-0.928-0.215-1.582-0.645-1.961c-0.582-0.515-1.447-0.772-2.594-0.772
				c-1.071,0-1.862,0.188-2.372,0.563c-0.51,0.375-0.888,1.04-1.132,1.993l-2.227-0.304c0.203-0.953,0.536-1.723,1-2.309
				c0.464-0.586,1.134-1.038,2.012-1.354c0.877-0.316,1.893-0.474,3.049-0.474c1.147,0,2.079,0.135,2.796,0.405
				s1.244,0.609,1.581,1.018c0.337,0.409,0.574,0.926,0.708,1.55c0.076,0.388,0.114,1.088,0.114,2.1v3.036
				c0,2.117,0.048,3.456,0.146,4.017c0.097,0.561,0.289,1.099,0.575,1.613h-2.378C139.728,35.447,139.576,34.894,139.509,34.262z
				 M139.319,29.176c-0.827,0.337-2.066,0.625-3.719,0.86c-0.936,0.135-1.599,0.287-1.986,0.456
				c-0.388,0.169-0.688,0.416-0.898,0.74c-0.211,0.325-0.316,0.685-0.316,1.082c0,0.607,0.229,1.113,0.689,1.518
				c0.459,0.405,1.132,0.607,2.018,0.607c0.877,0,1.657-0.192,2.341-0.576c0.683-0.384,1.185-0.909,1.505-1.575
				c0.245-0.514,0.367-1.273,0.367-2.277V29.176z"/>
			<path fill="#246C7C" d="M155.727,22.484v13.435h-2.265v-5.237h-1.316c-0.801,0-1.397,0.103-1.79,0.31
				c-0.392,0.207-0.963,0.871-1.714,1.993l-1.986,2.935h-2.821l2.455-3.618c0.75-1.105,1.497-1.729,2.239-1.873
				c-1.299-0.177-2.262-0.645-2.891-1.404c-0.628-0.759-0.942-1.632-0.942-2.619c0-1.164,0.411-2.108,1.233-2.833
				c0.822-0.726,2.014-1.088,3.574-1.088H155.727z M153.462,24.369h-3.239c-1.358,0-2.233,0.211-2.625,0.632
				c-0.392,0.422-0.588,0.916-0.588,1.48c0,0.801,0.289,1.39,0.867,1.765c0.578,0.375,1.601,0.563,3.068,0.563h2.518V24.369z"/>
			<path fill="#246C7C" d="M175.146,30.998l2.239,0.291c-0.245,1.543-0.871,2.751-1.879,3.625s-2.246,1.31-3.713,1.31
				c-1.839,0-3.317-0.601-4.434-1.803c-1.118-1.202-1.676-2.924-1.676-5.168c0-1.451,0.24-2.72,0.721-3.808
				c0.48-1.088,1.212-1.904,2.195-2.448c0.982-0.544,2.051-0.816,3.207-0.816c1.459,0,2.652,0.369,3.58,1.107
				s1.522,1.786,1.784,3.144l-2.214,0.342c-0.211-0.902-0.584-1.582-1.12-2.037c-0.536-0.455-1.183-0.683-1.942-0.683
				c-1.147,0-2.079,0.411-2.796,1.233s-1.075,2.124-1.075,3.903c0,1.805,0.346,3.117,1.037,3.935
				c0.692,0.818,1.594,1.227,2.708,1.227c0.894,0,1.64-0.274,2.239-0.822C174.606,32.98,174.986,32.136,175.146,30.998z"/>
			<path fill="#246C7C" d="M178.107,22.484h10.917v1.885h-4.327v11.55h-2.265v-11.55h-4.326V22.484z"/>
			<path fill="#246C7C" d="M191.2,41.068V22.484h2.075v1.746c0.489-0.683,1.042-1.195,1.657-1.537s1.362-0.512,2.239-0.512
				c1.147,0,2.159,0.295,3.036,0.885c0.877,0.591,1.539,1.423,1.986,2.499c0.447,1.076,0.67,2.254,0.67,3.536
				c0,1.375-0.247,2.612-0.74,3.713c-0.493,1.101-1.21,1.944-2.15,2.53c-0.94,0.586-1.929,0.879-2.967,0.879
				c-0.759,0-1.44-0.16-2.043-0.481c-0.603-0.32-1.099-0.725-1.487-1.214v6.541H191.2z M193.262,29.277
				c0,1.729,0.35,3.007,1.05,3.833c0.7,0.827,1.548,1.24,2.543,1.24c1.012,0,1.879-0.428,2.6-1.284
				c0.721-0.855,1.082-2.182,1.082-3.979c0-1.712-0.353-2.994-1.057-3.846s-1.545-1.278-2.524-1.278c-0.97,0-1.828,0.454-2.574,1.36
				C193.635,26.23,193.262,27.548,193.262,29.277z"/>
			<path fill="#246C7C" d="M205.217,41.093l-0.253-2.138c0.498,0.135,0.932,0.203,1.303,0.203c0.506,0,0.911-0.084,1.214-0.253
				c0.304-0.169,0.552-0.405,0.747-0.708c0.143-0.228,0.375-0.793,0.696-1.695c0.042-0.126,0.109-0.312,0.202-0.557l-5.098-13.46
				h2.454l2.796,7.78c0.363,0.987,0.688,2.024,0.974,3.112c0.261-1.045,0.574-2.066,0.937-3.062l2.872-7.831h2.277l-5.111,13.663
				c-0.548,1.476-0.974,2.492-1.278,3.049c-0.405,0.751-0.869,1.301-1.392,1.651c-0.523,0.35-1.147,0.525-1.872,0.525
				C206.247,41.372,205.757,41.279,205.217,41.093z"/>
			<path fill="#246C7C" d="M218.261,22.484h2.277v5.807c0.726,0,1.234-0.139,1.525-0.417c0.291-0.278,0.719-1.088,1.284-2.429
				c0.447-1.063,0.81-1.763,1.088-2.1c0.278-0.337,0.599-0.565,0.962-0.683c0.362-0.118,0.944-0.177,1.746-0.177h0.455v1.885
				l-0.632-0.013c-0.599,0-0.982,0.088-1.151,0.266c-0.177,0.186-0.447,0.738-0.81,1.657c-0.346,0.877-0.662,1.485-0.949,1.822
				c-0.287,0.337-0.729,0.646-1.328,0.924c0.978,0.261,1.939,1.172,2.884,2.732l2.493,4.162h-2.505l-2.429-4.162
				c-0.498-0.835-0.932-1.385-1.303-1.651s-0.814-0.398-1.329-0.398v6.211h-2.277V22.484z"/>
			<path fill="#246C7C" d="M228.672,22.484h10.918v1.885h-4.326v11.55h-2.265v-11.55h-4.327V22.484z"/>
			<path fill="#246C7C" d="M241.955,41.093l-0.253-2.138c0.498,0.135,0.932,0.203,1.303,0.203c0.507,0,0.911-0.084,1.215-0.253
				c0.304-0.169,0.553-0.405,0.746-0.708c0.144-0.228,0.376-0.793,0.696-1.695c0.042-0.126,0.109-0.312,0.202-0.557l-5.098-13.46
				h2.454l2.796,7.78c0.362,0.987,0.687,2.024,0.974,3.112c0.262-1.045,0.573-2.066,0.937-3.062l2.871-7.831h2.277l-5.11,13.663
				c-0.549,1.476-0.975,2.492-1.278,3.049c-0.404,0.751-0.868,1.301-1.392,1.651c-0.522,0.35-1.146,0.525-1.872,0.525
				C242.984,41.372,242.495,41.279,241.955,41.093z"/>
			<path fill="#246C7C" d="M254.721,41.068V22.484h2.074v1.746c0.489-0.683,1.042-1.195,1.657-1.537
				c0.616-0.342,1.362-0.512,2.239-0.512c1.147,0,2.159,0.295,3.037,0.885c0.877,0.591,1.539,1.423,1.985,2.499
				c0.447,1.076,0.671,2.254,0.671,3.536c0,1.375-0.247,2.612-0.74,3.713s-1.21,1.944-2.15,2.53s-1.93,0.879-2.967,0.879
				c-0.759,0-1.44-0.16-2.043-0.481c-0.604-0.32-1.099-0.725-1.486-1.214v6.541H254.721z M256.782,29.277
				c0,1.729,0.351,3.007,1.051,3.833c0.699,0.827,1.547,1.24,2.543,1.24c1.012,0,1.878-0.428,2.6-1.284
				c0.721-0.855,1.081-2.182,1.081-3.979c0-1.712-0.352-2.994-1.056-3.846c-0.705-0.852-1.546-1.278-2.524-1.278
				c-0.97,0-1.828,0.454-2.574,1.36C257.156,26.23,256.782,27.548,256.782,29.277z"/>
			<path fill="#246C7C" d="M277.896,34.262c-0.843,0.717-1.655,1.223-2.435,1.518c-0.78,0.295-1.618,0.443-2.512,0.443
				c-1.476,0-2.61-0.361-3.403-1.082c-0.793-0.721-1.188-1.643-1.188-2.765c0-0.658,0.149-1.259,0.449-1.803
				c0.299-0.544,0.691-0.98,1.176-1.309c0.485-0.329,1.031-0.578,1.639-0.747c0.447-0.118,1.121-0.232,2.024-0.341
				c1.838-0.219,3.191-0.481,4.061-0.785c0.009-0.312,0.013-0.51,0.013-0.594c0-0.928-0.215-1.582-0.646-1.961
				c-0.582-0.515-1.446-0.772-2.593-0.772c-1.071,0-1.862,0.188-2.372,0.563c-0.511,0.375-0.888,1.04-1.133,1.993l-2.227-0.304
				c0.203-0.953,0.536-1.723,1-2.309c0.464-0.586,1.134-1.038,2.011-1.354c0.878-0.316,1.894-0.474,3.049-0.474
				c1.147,0,2.079,0.135,2.796,0.405s1.244,0.609,1.582,1.018c0.337,0.409,0.573,0.926,0.708,1.55
				c0.076,0.388,0.114,1.088,0.114,2.1v3.036c0,2.117,0.048,3.456,0.146,4.017c0.097,0.561,0.288,1.099,0.575,1.613h-2.378
				C278.116,35.447,277.964,34.894,277.896,34.262z M277.707,29.176c-0.826,0.337-2.066,0.625-3.72,0.86
				c-0.936,0.135-1.598,0.287-1.985,0.456c-0.389,0.169-0.688,0.416-0.898,0.74s-0.316,0.685-0.316,1.082
				c0,0.607,0.229,1.113,0.689,1.518s1.132,0.607,2.018,0.607c0.877,0,1.657-0.192,2.341-0.576c0.683-0.384,1.185-0.909,1.505-1.575
				c0.245-0.514,0.367-1.273,0.367-2.277V29.176z"/>
			<path fill="#246C7C" d="M290.75,22.484h2.277v5.591h6.313v-5.591h2.277v13.435h-2.277V29.96h-6.313v5.958h-2.277V22.484z"/>
			<path fill="#246C7C" d="M314.243,31.592l2.353,0.291c-0.371,1.375-1.059,2.441-2.062,3.201c-1.004,0.759-2.286,1.139-3.846,1.139
				c-1.966,0-3.523-0.605-4.675-1.815s-1.727-2.908-1.727-5.092c0-2.26,0.582-4.014,1.745-5.263
				c1.164-1.248,2.674-1.872,4.529-1.872c1.797,0,3.264,0.611,4.402,1.834c1.139,1.223,1.708,2.943,1.708,5.161
				c0,0.135-0.004,0.337-0.013,0.607h-10.02c0.084,1.476,0.502,2.606,1.253,3.391c0.75,0.784,1.687,1.176,2.809,1.176
				c0.835,0,1.547-0.219,2.138-0.658C313.429,33.254,313.897,32.554,314.243,31.592z M306.767,27.911h7.502
				c-0.102-1.13-0.389-1.978-0.86-2.543c-0.726-0.877-1.666-1.316-2.821-1.316c-1.046,0-1.925,0.35-2.638,1.05
				S306.842,26.739,306.767,27.911z"/>
			<path fill="#246C7C" d="M319.455,22.484h2.277v10.247l6.313-10.247h2.454v13.435h-2.277V25.735l-6.313,10.184h-2.454V22.484z
				 M327.361,17.398h1.557c-0.127,1.054-0.513,1.864-1.157,2.429c-0.646,0.565-1.504,0.848-2.575,0.848
				c-1.079,0-1.941-0.281-2.587-0.841c-0.646-0.561-1.031-1.373-1.157-2.436h1.556c0.118,0.574,0.353,1.001,0.702,1.284
				s0.82,0.424,1.411,0.424c0.683,0,1.199-0.137,1.549-0.411C327.01,18.421,327.243,17.988,327.361,17.398z"/>
			<path fill="#246C7C" d="M333.928,41.068V22.484h2.074v1.746c0.489-0.683,1.042-1.195,1.657-1.537
				c0.616-0.342,1.362-0.512,2.239-0.512c1.147,0,2.159,0.295,3.037,0.885c0.877,0.591,1.539,1.423,1.985,2.499
				c0.447,1.076,0.671,2.254,0.671,3.536c0,1.375-0.247,2.612-0.74,3.713s-1.21,1.944-2.15,2.53s-1.93,0.879-2.967,0.879
				c-0.759,0-1.44-0.16-2.043-0.481c-0.604-0.32-1.099-0.725-1.486-1.214v6.541H333.928z M335.989,29.277
				c0,1.729,0.351,3.007,1.051,3.833c0.699,0.827,1.547,1.24,2.543,1.24c1.012,0,1.878-0.428,2.6-1.284
				c0.721-0.855,1.081-2.182,1.081-3.979c0-1.712-0.352-2.994-1.056-3.846c-0.705-0.852-1.546-1.278-2.524-1.278
				c-0.97,0-1.828,0.454-2.574,1.36C336.363,26.23,335.989,27.548,335.989,29.277z"/>
			<path fill="#246C7C" d="M347.49,29.201c0-2.488,0.691-4.331,2.074-5.528c1.156-0.995,2.564-1.493,4.226-1.493
				c1.848,0,3.356,0.605,4.529,1.815c1.172,1.21,1.759,2.882,1.759,5.016c0,1.729-0.26,3.089-0.778,4.08
				c-0.519,0.991-1.273,1.761-2.265,2.309c-0.991,0.548-2.072,0.822-3.245,0.822c-1.881,0-3.4-0.603-4.561-1.809
				C348.07,33.208,347.49,31.47,347.49,29.201z M349.831,29.201c0,1.721,0.375,3.009,1.125,3.865
				c0.751,0.856,1.695,1.284,2.834,1.284c1.13,0,2.07-0.43,2.821-1.29c0.751-0.86,1.126-2.172,1.126-3.935
				c0-1.662-0.378-2.92-1.132-3.776c-0.755-0.856-1.693-1.284-2.815-1.284c-1.139,0-2.083,0.426-2.834,1.278
				C350.206,26.195,349.831,27.481,349.831,29.201z"/>
			<path fill="#246C7C" d="M362.76,22.484h2.277v5.591h6.313v-5.591h2.277v13.435h-2.277V29.96h-6.313v5.958h-2.277V22.484z"/>
			<path fill="#246C7C" d="M385.821,34.262c-0.843,0.717-1.655,1.223-2.435,1.518c-0.78,0.295-1.618,0.443-2.512,0.443
				c-1.476,0-2.61-0.361-3.403-1.082c-0.793-0.721-1.188-1.643-1.188-2.765c0-0.658,0.149-1.259,0.449-1.803
				c0.299-0.544,0.691-0.98,1.176-1.309c0.485-0.329,1.031-0.578,1.639-0.747c0.447-0.118,1.121-0.232,2.024-0.341
				c1.838-0.219,3.191-0.481,4.061-0.785c0.009-0.312,0.013-0.51,0.013-0.594c0-0.928-0.215-1.582-0.646-1.961
				c-0.582-0.515-1.446-0.772-2.593-0.772c-1.071,0-1.862,0.188-2.372,0.563c-0.511,0.375-0.888,1.04-1.133,1.993l-2.227-0.304
				c0.203-0.953,0.536-1.723,1-2.309c0.464-0.586,1.134-1.038,2.011-1.354c0.878-0.316,1.894-0.474,3.049-0.474
				c1.147,0,2.079,0.135,2.796,0.405s1.244,0.609,1.582,1.018c0.337,0.409,0.573,0.926,0.708,1.55
				c0.076,0.388,0.114,1.088,0.114,2.1v3.036c0,2.117,0.048,3.456,0.146,4.017c0.097,0.561,0.288,1.099,0.575,1.613h-2.378
				C386.041,35.447,385.889,34.894,385.821,34.262z M385.632,29.176c-0.826,0.337-2.066,0.625-3.72,0.86
				c-0.936,0.135-1.598,0.287-1.985,0.456c-0.389,0.169-0.688,0.416-0.898,0.74s-0.316,0.685-0.316,1.082
				c0,0.607,0.229,1.113,0.689,1.518s1.132,0.607,2.018,0.607c0.877,0,1.657-0.192,2.341-0.576c0.683-0.384,1.185-0.909,1.505-1.575
				c0.245-0.514,0.367-1.273,0.367-2.277V29.176z"/>
		</g>
	</g>
	<g enable-background="new    ">
		<path d="M267.033,70.103h1.813v6.002c0.829,0,1.412-0.161,1.748-0.482c0.337-0.321,0.767-1.092,1.29-2.314
			c0.381-0.897,0.693-1.531,0.94-1.902c0.246-0.371,0.597-0.683,1.052-0.935c0.454-0.252,0.956-0.378,1.505-0.378
			c0.698,0,1.065,0.006,1.104,0.019v1.571c-0.063,0-0.185-0.003-0.365-0.009c-0.199-0.006-0.321-0.009-0.364-0.009
			c-0.58,0-1.01,0.14-1.29,0.42c-0.287,0.281-0.614,0.879-0.982,1.795c-0.461,1.16-0.851,1.891-1.168,2.193
			c-0.318,0.302-0.698,0.543-1.141,0.724c0.885,0.243,1.758,1.06,2.617,2.45l2.824,4.563h-2.254l-2.29-3.721
			c-0.63-1.028-1.156-1.734-1.58-2.118c-0.424-0.383-0.973-0.575-1.646-0.575v6.414h-1.813V70.103z"/>
		<path d="M277.317,78.844c0-1.838,0.511-3.2,1.533-4.085c0.854-0.735,1.895-1.103,3.122-1.103c1.365,0,2.481,0.447,3.348,1.342
			c0.866,0.894,1.3,2.13,1.3,3.707c0,1.277-0.192,2.282-0.575,3.015c-0.384,0.732-0.941,1.302-1.674,1.706
			c-0.732,0.405-1.531,0.608-2.398,0.608c-1.39,0-2.513-0.445-3.37-1.337C277.746,81.805,277.317,80.521,277.317,78.844z
			 M279.047,78.844c0,1.271,0.277,2.224,0.832,2.856s1.253,0.949,2.094,0.949c0.836,0,1.53-0.318,2.085-0.954
			s0.832-1.604,0.832-2.907c0-1.228-0.278-2.158-0.836-2.791c-0.559-0.632-1.252-0.949-2.081-0.949
			c-0.841,0-1.539,0.315-2.094,0.944S279.047,77.572,279.047,78.844z"/>
		<path d="M288.602,73.879h1.684v4.132h4.665v-4.132h1.683v9.929h-1.683v-4.403h-4.665v4.403h-1.684V73.879z"/>
		<path d="M299.194,73.879h1.683v8.545h4.656v-8.545h1.683v8.545h1.085v4.198h-1.384v-2.814h-7.723V73.879z"/>
		<path d="M316.715,80.611l1.739,0.215c-0.274,1.016-0.782,1.805-1.524,2.365c-0.741,0.562-1.688,0.842-2.842,0.842
			c-1.452,0-2.604-0.447-3.454-1.342c-0.852-0.895-1.276-2.148-1.276-3.763c0-1.671,0.43-2.967,1.29-3.89s1.976-1.384,3.347-1.384
			c1.328,0,2.412,0.452,3.254,1.355c0.842,0.904,1.262,2.175,1.262,3.814c0,0.1-0.003,0.25-0.009,0.449h-7.405
			c0.063,1.091,0.371,1.926,0.926,2.506c0.555,0.579,1.247,0.869,2.076,0.869c0.617,0,1.144-0.162,1.58-0.486
			C316.113,81.839,316.459,81.321,316.715,80.611z M311.189,77.891h5.544c-0.074-0.835-0.286-1.462-0.636-1.879
			c-0.536-0.648-1.23-0.972-2.085-0.972c-0.772,0-1.422,0.259-1.949,0.776C311.537,76.333,311.246,77.024,311.189,77.891z"/>
		<path d="M320.576,73.879h3.88c0.954,0,1.663,0.08,2.127,0.239c0.465,0.159,0.863,0.45,1.197,0.874
			c0.333,0.424,0.5,0.932,0.5,1.524c0,0.474-0.099,0.887-0.295,1.239c-0.196,0.353-0.49,0.646-0.883,0.884
			c0.467,0.155,0.855,0.447,1.164,0.874s0.463,0.934,0.463,1.52c-0.063,0.94-0.399,1.639-1.01,2.094
			c-0.611,0.455-1.5,0.683-2.665,0.683h-4.479V73.879z M322.26,78.059h1.795c0.717,0,1.209-0.037,1.477-0.112
			c0.269-0.074,0.508-0.226,0.721-0.453c0.211-0.228,0.317-0.5,0.317-0.818c0-0.524-0.186-0.888-0.557-1.094
			c-0.37-0.206-1.005-0.309-1.902-0.309h-1.851V78.059z M322.26,82.425h2.216c0.953,0,1.607-0.11,1.963-0.332
			c0.355-0.221,0.542-0.603,0.561-1.146c0-0.317-0.103-0.612-0.309-0.883c-0.205-0.271-0.474-0.442-0.804-0.515
			c-0.33-0.071-0.86-0.107-1.589-0.107h-2.038V82.425z"/>
		<path d="M337.003,82.584c-0.623,0.529-1.223,0.903-1.8,1.122c-0.576,0.218-1.195,0.327-1.855,0.327c-1.091,0-1.93-0.267-2.515-0.8
			c-0.586-0.532-0.879-1.214-0.879-2.043c0-0.485,0.11-0.93,0.332-1.332c0.221-0.402,0.511-0.725,0.869-0.968
			s0.762-0.427,1.211-0.552c0.33-0.087,0.828-0.171,1.496-0.252c1.358-0.162,2.358-0.355,3.001-0.58
			c0.006-0.23,0.009-0.377,0.009-0.439c0-0.686-0.159-1.169-0.477-1.449c-0.43-0.38-1.069-0.57-1.917-0.57
			c-0.791,0-1.376,0.139-1.753,0.416s-0.655,0.768-0.837,1.473l-1.646-0.225c0.15-0.704,0.396-1.273,0.739-1.706
			s0.838-0.767,1.486-1s1.399-0.351,2.253-0.351c0.848,0,1.537,0.1,2.066,0.299c0.529,0.199,0.919,0.45,1.169,0.752
			c0.249,0.302,0.424,0.684,0.523,1.146c0.056,0.287,0.084,0.804,0.084,1.552v2.244c0,1.564,0.036,2.554,0.107,2.968
			c0.071,0.415,0.214,0.813,0.426,1.192h-1.758C337.165,83.46,337.053,83.052,337.003,82.584z M336.863,78.825
			c-0.611,0.25-1.527,0.462-2.749,0.636c-0.691,0.1-1.182,0.212-1.468,0.337c-0.287,0.125-0.508,0.307-0.664,0.547
			c-0.155,0.24-0.233,0.507-0.233,0.799c0,0.449,0.17,0.823,0.51,1.122c0.339,0.3,0.836,0.449,1.491,0.449
			c0.647,0,1.225-0.142,1.729-0.426c0.505-0.283,0.875-0.671,1.112-1.164c0.181-0.38,0.271-0.94,0.271-1.683V78.825z"/>
		<path d="M348.989,73.879v9.929h-1.674v-3.871h-0.972c-0.593,0-1.033,0.077-1.323,0.229c-0.29,0.153-0.712,0.644-1.267,1.473
			l-1.468,2.169h-2.085l1.813-2.674c0.555-0.816,1.106-1.277,1.655-1.384c-0.96-0.131-1.673-0.477-2.137-1.038
			c-0.465-0.561-0.696-1.206-0.696-1.935c0-0.86,0.304-1.558,0.911-2.094c0.608-0.536,1.488-0.804,2.642-0.804H348.989z
			 M347.315,75.272h-2.393c-1.004,0-1.65,0.156-1.94,0.468s-0.435,0.676-0.435,1.094c0,0.592,0.213,1.027,0.641,1.305
			c0.427,0.277,1.183,0.416,2.267,0.416h1.86V75.272z"/>
		<path d="M356.87,73.879h3.88c0.954,0,1.663,0.08,2.127,0.239c0.465,0.159,0.863,0.45,1.197,0.874c0.333,0.424,0.5,0.932,0.5,1.524
			c0,0.474-0.099,0.887-0.295,1.239c-0.196,0.353-0.49,0.646-0.884,0.884c0.468,0.155,0.855,0.447,1.164,0.874
			s0.463,0.934,0.463,1.52c-0.063,0.94-0.398,1.639-1.01,2.094c-0.61,0.455-1.499,0.683-2.664,0.683h-4.479V73.879z M358.553,78.059
			h1.795c0.717,0,1.21-0.037,1.478-0.112c0.268-0.074,0.508-0.226,0.72-0.453s0.318-0.5,0.318-0.818
			c0-0.524-0.186-0.888-0.557-1.094c-0.371-0.206-1.005-0.309-1.902-0.309h-1.852V78.059z M358.553,82.425h2.216
			c0.954,0,1.608-0.11,1.964-0.332c0.355-0.221,0.542-0.603,0.561-1.146c0-0.317-0.103-0.612-0.309-0.883
			c-0.205-0.271-0.474-0.442-0.804-0.515c-0.33-0.071-0.86-0.107-1.59-0.107h-2.038V82.425z"/>
		<path d="M373.615,80.611l1.738,0.215c-0.274,1.016-0.782,1.805-1.523,2.365c-0.742,0.562-1.689,0.842-2.843,0.842
			c-1.452,0-2.604-0.447-3.454-1.342s-1.276-2.148-1.276-3.763c0-1.671,0.43-2.967,1.29-3.89s1.976-1.384,3.348-1.384
			c1.327,0,2.412,0.452,3.253,1.355c0.842,0.904,1.263,2.175,1.263,3.814c0,0.1-0.004,0.25-0.01,0.449h-7.404
			c0.062,1.091,0.37,1.926,0.926,2.506c0.555,0.579,1.246,0.869,2.075,0.869c0.617,0,1.144-0.162,1.58-0.486
			S373.359,81.321,373.615,80.611z M368.089,77.891h5.545c-0.075-0.835-0.287-1.462-0.636-1.879
			c-0.536-0.648-1.231-0.972-2.085-0.972c-0.773,0-1.423,0.259-1.949,0.776C368.437,76.333,368.146,77.024,368.089,77.891z"/>
		<path d="M375.925,73.879h8.068v1.393h-3.197v8.536h-1.674v-8.536h-3.197V73.879z"/>
		<path d="M385.61,73.879h3.88c0.954,0,1.663,0.08,2.127,0.239c0.465,0.159,0.863,0.45,1.197,0.874c0.333,0.424,0.5,0.932,0.5,1.524
			c0,0.474-0.099,0.887-0.295,1.239c-0.196,0.353-0.49,0.646-0.884,0.884c0.468,0.155,0.855,0.447,1.164,0.874
			s0.463,0.934,0.463,1.52c-0.063,0.94-0.398,1.639-1.01,2.094c-0.61,0.455-1.499,0.683-2.664,0.683h-4.479V73.879z M387.293,78.059
			h1.795c0.717,0,1.21-0.037,1.478-0.112c0.268-0.074,0.508-0.226,0.72-0.453s0.318-0.5,0.318-0.818
			c0-0.524-0.186-0.888-0.557-1.094c-0.371-0.206-1.005-0.309-1.902-0.309h-1.852V78.059z M387.293,82.425h2.216
			c0.954,0,1.608-0.11,1.964-0.332c0.355-0.221,0.542-0.603,0.561-1.146c0-0.317-0.103-0.612-0.309-0.883
			c-0.205-0.271-0.474-0.442-0.804-0.515c-0.33-0.071-0.86-0.107-1.59-0.107h-2.038V82.425z"/>
		<path d="M395.745,73.879h1.683v3.88h2.132c1.39,0,2.46,0.27,3.211,0.809s1.127,1.282,1.127,2.229c0,0.829-0.313,1.538-0.939,2.127
			c-0.627,0.589-1.629,0.884-3.006,0.884h-4.207V73.879z M397.428,82.425h1.767c1.066,0,1.826-0.131,2.281-0.393
			s0.683-0.67,0.683-1.225c0-0.431-0.168-0.813-0.505-1.15c-0.336-0.336-1.081-0.505-2.234-0.505h-1.991V82.425z"/>
		<path d="M270.006,106.838c-0.929-1.172-1.714-2.543-2.356-4.113c-0.642-1.571-0.963-3.197-0.963-4.881
			c0-1.483,0.24-2.904,0.721-4.263c0.561-1.577,1.427-3.147,2.599-4.712h1.206c-0.754,1.296-1.253,2.222-1.496,2.776
			c-0.38,0.86-0.679,1.758-0.897,2.692c-0.268,1.166-0.401,2.338-0.401,3.516c0,2.998,0.932,5.993,2.795,8.984H270.006z"/>
		<path d="M272.26,92.88h8.068v1.393h-3.198v8.536h-1.673v-8.536h-3.197V92.88z"/>
		<path d="M288.518,99.611l1.738,0.215c-0.273,1.016-0.782,1.805-1.523,2.365c-0.742,0.562-1.689,0.842-2.842,0.842
			c-1.453,0-2.604-0.447-3.455-1.342s-1.276-2.148-1.276-3.763c0-1.671,0.431-2.967,1.29-3.89c0.86-0.923,1.977-1.384,3.348-1.384
			c1.327,0,2.412,0.452,3.253,1.355c0.842,0.904,1.263,2.176,1.263,3.814c0,0.1-0.003,0.25-0.01,0.449h-7.404
			c0.063,1.091,0.371,1.926,0.926,2.506c0.555,0.579,1.246,0.869,2.075,0.869c0.617,0,1.144-0.162,1.58-0.486
			S288.262,100.321,288.518,99.611z M282.992,96.891h5.544c-0.075-0.835-0.287-1.462-0.636-1.879
			c-0.536-0.648-1.231-0.973-2.085-0.973c-0.772,0-1.423,0.259-1.949,0.775C283.339,95.332,283.048,96.024,282.992,96.891z"/>
		<path d="M292.369,106.613V92.88h1.533v1.29c0.361-0.505,0.77-0.884,1.225-1.136c0.455-0.253,1.007-0.379,1.655-0.379
			c0.848,0,1.596,0.218,2.244,0.654c0.647,0.437,1.137,1.052,1.468,1.847c0.33,0.795,0.495,1.666,0.495,2.613
			c0,1.016-0.183,1.931-0.547,2.744s-0.895,1.437-1.589,1.869c-0.695,0.434-1.426,0.65-2.192,0.65c-0.562,0-1.064-0.119-1.511-0.355
			c-0.445-0.237-0.812-0.536-1.099-0.897v4.833H292.369z M293.894,97.9c0,1.277,0.258,2.222,0.775,2.833
			c0.518,0.61,1.144,0.916,1.88,0.916c0.748,0,1.388-0.316,1.921-0.949s0.8-1.612,0.8-2.94c0-1.265-0.261-2.212-0.781-2.842
			s-1.142-0.944-1.865-0.944c-0.717,0-1.351,0.335-1.902,1.005S293.894,96.623,293.894,97.9z"/>
		<path d="M303.065,92.88h2.617l2.608,7.946l2.898-7.946h2.422v9.929h-1.684v-7.994l-2.936,7.994h-1.505l-2.776-8.377v8.377h-1.646
			V92.88z"/>
		<path d="M316.183,92.88h1.683v7.572l4.665-7.572h1.814v9.929h-1.684v-7.526l-4.665,7.526h-1.813V92.88z"/>
		<path d="M326.887,92.88h1.684v4.132h4.665V92.88h1.683v9.929h-1.683v-4.403h-4.665v4.403h-1.684V92.88z"/>
		<path d="M343.932,101.584c-0.624,0.529-1.224,0.903-1.8,1.122c-0.577,0.218-1.195,0.327-1.856,0.327
			c-1.091,0-1.93-0.267-2.515-0.8c-0.586-0.532-0.879-1.214-0.879-2.043c0-0.485,0.11-0.93,0.332-1.332
			c0.221-0.402,0.511-0.725,0.869-0.968s0.762-0.427,1.211-0.552c0.33-0.087,0.829-0.171,1.496-0.252
			c1.358-0.162,2.358-0.355,3.001-0.58c0.006-0.23,0.009-0.377,0.009-0.439c0-0.686-0.158-1.168-0.477-1.449
			c-0.43-0.38-1.068-0.57-1.916-0.57c-0.792,0-1.376,0.14-1.753,0.416c-0.378,0.278-0.656,0.769-0.837,1.473l-1.646-0.224
			c0.15-0.705,0.396-1.273,0.739-1.707c0.343-0.433,0.838-0.767,1.486-1s1.399-0.351,2.254-0.351c0.847,0,1.536,0.1,2.065,0.299
			c0.53,0.2,0.92,0.451,1.169,0.753c0.249,0.303,0.424,0.685,0.523,1.146c0.057,0.286,0.084,0.804,0.084,1.552v2.244
			c0,1.564,0.036,2.554,0.107,2.968c0.072,0.415,0.214,0.813,0.426,1.192h-1.758C344.093,102.46,343.981,102.052,343.932,101.584z
			 M343.791,97.825c-0.611,0.25-1.527,0.462-2.749,0.636c-0.691,0.1-1.181,0.212-1.468,0.337c-0.286,0.125-0.508,0.307-0.664,0.547
			c-0.155,0.24-0.233,0.507-0.233,0.799c0,0.449,0.17,0.823,0.51,1.122c0.34,0.3,0.837,0.449,1.491,0.449
			c0.648,0,1.225-0.142,1.729-0.426c0.505-0.283,0.876-0.671,1.112-1.164c0.181-0.38,0.271-0.94,0.271-1.683V97.825z"/>
		<path d="M348.924,92.88h7.816v9.929h-1.674v-8.536h-4.46v4.946c0,1.153-0.037,1.913-0.112,2.281
			c-0.074,0.367-0.28,0.688-0.617,0.963c-0.336,0.274-0.822,0.411-1.458,0.411c-0.393,0-0.845-0.025-1.355-0.075v-1.402h0.738
			c0.349,0,0.599-0.035,0.748-0.107c0.149-0.071,0.249-0.186,0.299-0.341c0.05-0.156,0.075-0.664,0.075-1.524V92.88z"/>
		<path d="M359.245,92.88h1.683v3.88h2.132c1.39,0,2.46,0.27,3.211,0.809s1.127,1.282,1.127,2.229c0,0.829-0.313,1.538-0.939,2.127
			c-0.627,0.589-1.629,0.884-3.006,0.884h-4.207V92.88z M360.928,101.425h1.767c1.066,0,1.826-0.131,2.281-0.393
			s0.683-0.67,0.683-1.225c0-0.431-0.168-0.813-0.505-1.15c-0.336-0.336-1.081-0.505-2.234-0.505h-1.991V101.425z"/>
		<path d="M370.353,106.838h-1.206c1.863-2.991,2.796-5.986,2.796-8.984c0-1.172-0.135-2.334-0.402-3.487
			c-0.212-0.935-0.508-1.832-0.888-2.692c-0.243-0.562-0.745-1.496-1.506-2.805h1.206c1.172,1.564,2.038,3.135,2.6,4.712
			c0.479,1.358,0.72,2.779,0.72,4.263c0,1.684-0.322,3.31-0.968,4.881C372.059,104.295,371.275,105.666,370.353,106.838z"/>
		<path d="M387.424,101.584c-0.623,0.529-1.224,0.903-1.8,1.122c-0.576,0.218-1.195,0.327-1.855,0.327
			c-1.091,0-1.93-0.267-2.516-0.8c-0.586-0.532-0.879-1.214-0.879-2.043c0-0.485,0.111-0.93,0.332-1.332
			c0.222-0.402,0.512-0.725,0.87-0.968s0.762-0.427,1.21-0.552c0.331-0.087,0.829-0.171,1.496-0.252
			c1.359-0.162,2.359-0.355,3.001-0.58c0.007-0.23,0.01-0.377,0.01-0.439c0-0.686-0.159-1.168-0.477-1.449
			c-0.431-0.38-1.069-0.57-1.917-0.57c-0.791,0-1.376,0.14-1.753,0.416c-0.377,0.278-0.656,0.769-0.837,1.473l-1.646-0.224
			c0.149-0.705,0.396-1.273,0.739-1.707c0.342-0.433,0.838-0.767,1.486-1s1.399-0.351,2.253-0.351c0.848,0,1.536,0.1,2.066,0.299
			c0.529,0.2,0.919,0.451,1.169,0.753c0.249,0.303,0.423,0.685,0.523,1.146c0.056,0.286,0.084,0.804,0.084,1.552v2.244
			c0,1.564,0.035,2.554,0.107,2.968c0.071,0.415,0.213,0.813,0.426,1.192h-1.758C387.586,102.46,387.474,102.052,387.424,101.584z
			 M387.283,97.825c-0.61,0.25-1.526,0.462-2.748,0.636c-0.692,0.1-1.182,0.212-1.468,0.337c-0.287,0.125-0.509,0.307-0.664,0.547
			c-0.156,0.24-0.233,0.507-0.233,0.799c0,0.449,0.169,0.823,0.509,1.122c0.34,0.3,0.837,0.449,1.491,0.449
			c0.648,0,1.226-0.142,1.73-0.426c0.504-0.283,0.875-0.671,1.112-1.164c0.181-0.38,0.271-0.94,0.271-1.683V97.825z"/>
		<path d="M391.585,92.88h1.683v4.291c0.536,0,0.912-0.103,1.127-0.309c0.215-0.205,0.531-0.804,0.949-1.795
			c0.33-0.785,0.598-1.303,0.804-1.552c0.205-0.249,0.442-0.418,0.71-0.505c0.269-0.088,0.698-0.131,1.291-0.131h0.336v1.393
			l-0.467-0.009c-0.443,0-0.727,0.065-0.852,0.196c-0.131,0.137-0.33,0.545-0.598,1.225c-0.256,0.648-0.489,1.097-0.701,1.346
			c-0.212,0.25-0.54,0.478-0.982,0.683c0.724,0.193,1.434,0.867,2.132,2.02l1.842,3.076h-1.851l-1.796-3.076
			c-0.367-0.617-0.688-1.023-0.963-1.22s-0.602-0.295-0.981-0.295v4.591h-1.683V92.88z"/>
		<path d="M406.665,99.172l1.655,0.215c-0.182,1.141-0.645,2.033-1.389,2.679c-0.745,0.645-1.659,0.968-2.744,0.968
			c-1.358,0-2.451-0.444-3.277-1.332c-0.825-0.889-1.238-2.162-1.238-3.819c0-1.072,0.178-2.011,0.533-2.814
			c0.354-0.804,0.896-1.407,1.622-1.81c0.726-0.401,1.516-0.603,2.37-0.603c1.078,0,1.96,0.272,2.646,0.818
			c0.686,0.545,1.125,1.319,1.318,2.323l-1.637,0.252c-0.155-0.667-0.432-1.168-0.827-1.505s-0.874-0.505-1.435-0.505
			c-0.848,0-1.537,0.304-2.066,0.911c-0.53,0.608-0.795,1.569-0.795,2.885c0,1.334,0.256,2.303,0.767,2.907s1.178,0.907,2.001,0.907
			c0.66,0,1.212-0.202,1.654-0.607S406.547,100.013,406.665,99.172z"/>
		<path d="M409.349,97.844c0-1.838,0.511-3.2,1.533-4.085c0.854-0.735,1.895-1.104,3.123-1.104c1.364,0,2.48,0.447,3.347,1.342
			s1.3,2.13,1.3,3.707c0,1.277-0.191,2.282-0.575,3.015c-0.383,0.732-0.941,1.302-1.674,1.706c-0.732,0.405-1.531,0.608-2.397,0.608
			c-1.391,0-2.514-0.445-3.371-1.337C409.777,100.805,409.349,99.521,409.349,97.844z M411.078,97.844
			c0,1.271,0.277,2.224,0.832,2.856s1.253,0.949,2.095,0.949c0.835,0,1.53-0.318,2.085-0.954s0.832-1.604,0.832-2.907
			c0-1.228-0.279-2.158-0.837-2.791s-1.252-0.949-2.08-0.949c-0.842,0-1.54,0.315-2.095,0.944
			C411.355,95.622,411.078,96.572,411.078,97.844z"/>
		<path d="M420.633,92.88h1.683v4.132h4.666V92.88h1.683v9.929h-1.683v-4.403h-4.666v4.403h-1.683V92.88z"/>
		<path d="M437.677,101.584c-0.623,0.529-1.224,0.903-1.8,1.122c-0.576,0.218-1.195,0.327-1.855,0.327
			c-1.091,0-1.93-0.267-2.516-0.8c-0.586-0.532-0.879-1.214-0.879-2.043c0-0.485,0.111-0.93,0.332-1.332
			c0.222-0.402,0.512-0.725,0.87-0.968s0.762-0.427,1.21-0.552c0.331-0.087,0.829-0.171,1.496-0.252
			c1.359-0.162,2.359-0.355,3.001-0.58c0.007-0.23,0.01-0.377,0.01-0.439c0-0.686-0.159-1.168-0.477-1.449
			c-0.431-0.38-1.069-0.57-1.917-0.57c-0.792,0-1.376,0.14-1.753,0.416c-0.377,0.278-0.656,0.769-0.837,1.473l-1.646-0.224
			c0.149-0.705,0.396-1.273,0.739-1.707c0.342-0.433,0.838-0.767,1.486-1s1.399-0.351,2.253-0.351c0.848,0,1.536,0.1,2.066,0.299
			c0.529,0.2,0.919,0.451,1.169,0.753c0.249,0.303,0.423,0.685,0.523,1.146c0.056,0.286,0.084,0.804,0.084,1.552v2.244
			c0,1.564,0.035,2.554,0.107,2.968c0.071,0.415,0.213,0.813,0.426,1.192h-1.758C437.839,102.46,437.727,102.052,437.677,101.584z
			 M437.536,97.825c-0.61,0.25-1.526,0.462-2.748,0.636c-0.692,0.1-1.182,0.212-1.468,0.337c-0.287,0.125-0.509,0.307-0.664,0.547
			c-0.156,0.24-0.233,0.507-0.233,0.799c0,0.449,0.169,0.823,0.509,1.122c0.34,0.3,0.837,0.449,1.491,0.449
			c0.648,0,1.226-0.142,1.73-0.426c0.504-0.283,0.875-0.671,1.112-1.164c0.181-0.38,0.271-0.94,0.271-1.683V97.825z"/>
	</g>
</g>
</svg>
