<?xml version="1.0" encoding="UTF-8"?>
<svg width="1179" height="633.71252" xmlns="http://www.w3.org/2000/svg" xmlns:svg="http://www.w3.org/2000/svg">
 <defs>
  <style type="text/css">#Lines {
			stroke: #000000;
			stroke-width: 2;
			stroke-linecap: round;
		}
		#Cell {
			stroke: #000000;
			stroke-width: 2;
			fill-opacity: 1;
		}
		#Cell_Body {
			fill: #a88fd1;
		}
		#Cell_Body_Nucleus {
			fill: #2d7132;
		}
		#Small_Cell {
			fill: #f4cc4b;
		}
		#Small_Cell_Nucleus {
			fill: #d79b9b;
		}</style>
 </defs>
 <metadata>image/svg+xmlQuasar Jarosz, quasarj.com</metadata>
 <g>
  <title>Layer 1</title>
  <g id="Cell">
   <g id="Cell_Body">
    <path d="m206.100189,544.324158l9.159546,-25.470337c-10.514206,4.645447 -27.281387,20.873047 -37.927872,18.852356c17.641495,-14.108032 34.764206,-26.002106 45.259521,-49.795929c13.453201,-26.529877 7.458176,-38.065338 -17.22963,-36.436584c-23.27536,1.535583 -47.037186,18.894531 -46.096771,57.673523c0.379929,15.666534 -5.417374,23.343903 -5.83139,7.141754c-0.134613,-5.267883 -3.76506,-4.9328 -7.705841,-1.858948c-12.843399,10.536987 13.404099,-43.809326 11.04747,-51.898895c-10.085693,3.130035 -34.167099,57.328705 -38.519798,51.180634c2.047417,-13.57016 0.259583,-17.831268 -8.72538,-1.928009c-3.035362,5.372528 -12.149223,17.577484 -14.25042,15.019135c7.329613,-18.231018 21.196716,-33.799225 28.571579,-52.140289c0,-0.901245 -7.326752,1.513947 -16.28167,5.367096c-18.658409,8.028351 -29.102303,7.193726 -20.590958,-1.64563c5.097816,-5.29425 60.16684,-27.664246 95.50824,-38.797089c29.655289,-9.341675 35.419479,-12.846802 35.344391,-21.492523c-0.073288,-8.438416 -6.990479,-16.403137 -17.726288,-23.715363c-14.962311,-10.190948 -38.922363,-1.866913 -61.315842,25.050354c-7.765579,8.602203 -11.884506,21.453552 -24.771873,21.781586c1.558762,-3.894531 -0.0326,-12.695984 8.293213,-19.27478c4.052605,-3.20224 8.992393,-10.358215 11.647652,-15.184113c4.781067,-8.689575 7.994659,-12.600769 7.994659,-12.600769c0,0 -51.473877,9.204742 -51.528946,9.319427c12.78421,-6.82074 13.277374,-5.944977 6.582779,-17.955536c-5.641418,-11.986389 -6.054436,-16.631836 -4.628487,-52.05896c1.557701,-38.700317 6.056129,-53.196564 6.056129,-53.196564c1.064079,8.405121 4.710678,17.082336 11.228745,0.140198c0,0 -1.260666,1.175323 -3.437202,33.389679c-2.590294,38.338043 6.692032,63.239075 20.980598,65.002136c7.433594,0.917206 39.512238,0.741302 41.928497,-2.339539c-4.237915,-10.610779 -25.245697,-10.419037 -34.235077,-16.585785c-0.055801,-1.216492 5.765182,-1.599762 11.947266,-3.340576c10.059982,-2.832794 12.119766,-0.880524 25.645447,5.561279c28.417084,15.804962 16.783798,6.95932 16.391983,-11.414063c0,0 7.211411,8.131683 12.590439,13.065094c15.911087,14.592987 23.580246,7.951447 22.270798,-16.2341c-0.915222,-16.904205 -4.920746,-38.362366 -25.467438,-62.46347c-11.904953,-13.964386 -9.44754,-20.765656 -20.496948,-22.942413c-27.8125,5.496765 -43.690521,-21.387314 -53.623146,-26.15889c-6.568871,0 -26.408409,-9.163879 -29.977829,-11.662292c-12.392723,-13.994125 24.05394,1.545883 29.659874,0.513885c-1.365494,-17.153549 -43.825569,-59.225983 -42.934502,-57.610382c11.939613,-3.683441 1.517982,-27.904037 1.66069,-34.925964c6.039421,7.238556 8.241875,5.502853 10.847855,-2.13826c-0.958069,28.037033 1.144554,43.504089 20.202667,61.07074c17.123177,18.98526 27.012764,50.893646 52.546806,57.70166c6.359879,1.972702 12.196716,2.243057 15.062012,0.777054c5.643356,-2.887405 9.554504,-8.84108 -28.753998,-54.331787c-22.887115,-27.178055 -29.944267,-38.228928 -26.341492,-43.277069c5.292526,-0.966583 6.310394,1.257401 15.226181,10.906784l11.123337,12.038559l1.472519,-9.276382c1.521057,-8.347214 0.321701,-29.556549 -8.163742,-41.731926c-4.850311,-6.959511 3.895905,-5.603821 8.470123,2.601334l4.144928,7.435158l2.015671,-8.625374c2.556564,-10.939934 5.2397,-19.114792 5.2397,-19.114792c-0.582169,10.609375 1.579163,14.391663 8.474228,8.942421c-0.588242,30.310242 -25.457809,56.950089 -1.76474,90.930725l6.191437,-9.862625c4.920929,-7.83876 8.143448,-15.926636 7.59407,-39.503464c-0.522263,-22.413055 4.539185,-41.298332 6.911392,-41.678268c1.618851,10.900536 -2.254684,25.197342 4.829987,35.806091c0.435043,-9.720779 8.335876,-25.462875 9.291824,-24.199753c0.737091,0 0.529221,7.311508 -9.718216,42.574005c-9.474991,32.604431 -6.345444,58.009186 1.889511,75.160904c5.731125,11.936768 10.915695,10.696732 12.025726,4.522003c0.68277,-3.797989 0.740814,-19.645966 0.128998,-35.217712c-1.09996,-27.995544 -0.929459,-32.711777 -0.929459,-32.711777c-0.409943,8.403793 15.204803,22.151337 30.07077,-13.675064c4.74118,-11.426071 13.777176,-23.295242 13.777176,-23.295242c-6.16716,16.644958 -6.39798,26.601669 -6.011765,29.712418c1.184402,0.767899 11.681198,-3.470703 17.034225,-7.323883c-0.086487,-0.128433 -33.958496,40.708054 -35.924072,55.467041c9.509644,7.793137 28.639191,-27.519806 28.639191,-27.519806c0.092896,-0.446503 2.457184,9.81987 2.22937,10.914444c0.654327,0.268646 12.742828,-9.208221 13.105438,-8.337326c0.820923,-0.813156 -11.078217,17.315338 -28.562393,29.895645c-28.418228,26.608994 -19.514954,59.806534 -9.241913,75.321701c6.9767,13.545288 35.118729,31.603485 46.195358,34.21637c17.667664,4.167603 19.657867,-20.207428 3.807861,-46.636353c-11.470184,-19.125824 -18.543579,-50.585083 -14.978638,-59.615646c3.338135,-8.455994 5.564453,1.209717 13.02356,8.567703c3.233582,3.189758 3.891876,-6.317657 2.70462,-24.980225c-1.597198,-25.106796 -3.504456,-31.435379 0.777374,-31.435379c2.655701,0 5.078522,4.846542 5.078522,6.365738c0,1.519196 2.780334,-0.134872 5.253082,-0.000565c3.593994,0.195206 0.016998,21.649033 -1.289551,24.713181c-1.845947,4.329147 10.381592,-14.607071 14.007721,-23.944107c2.817963,-7.255997 4.091644,-25.064819 4.091644,-25.064819c-0.269043,0.462677 2.596222,17.747543 7.951263,15.332535c2.777863,-1.252762 1.82254,1.157166 3.438934,1.157166c1.616394,0 3.813904,-3.303101 3.813904,-9.542435c0,-8.602798 0.996887,-10.98468 4.125183,-9.85643c2.89621,1.04454 5.006775,-3.733093 9.583893,-15.236176c3.956299,-9.942841 5.591156,-21.990044 8.251465,-21.990044c4.898529,0 2.429352,16.669624 -5.575806,52.20092c-9.985199,44.320023 -6.193298,43.905716 12.991211,18.338074c6.839508,-9.115173 14.020142,-19.460892 16.389038,-19.460892c5.787689,0 -8.701508,25.686386 -8.701508,25.686386c0,0 7.925873,0.520157 11.473969,2.444977c2.191925,1.189133 -5.889709,8.220032 -25.952728,22.270569c-22.211304,15.555069 -21.525818,20.33606 -34.151215,65.557861c-15.168335,39.400604 29.494873,67.437866 61.790131,72.12085c43.091797,12.211731 78.542175,23.018982 110.501892,32.114624c37.64566,10.713806 71.01236,19.962646 111.798798,21.069092c37.34668,1.013153 76.972839,-2.258667 112.792297,-13.261414c32.962769,-10.125214 62.701843,-26.11795 84.47406,-52.022614c36.32135,-43.215149 60.839661,-86.001984 60.839661,-86.001984c10.421448,-28.146133 27.278137,-53.540176 24.162109,-84.498184c-1.840515,-11.072037 -14.323914,-19.684021 -21.493225,-12.770248c-2.265869,2.18515 -7.274231,8.863144 -11.11731,8.863144c-9.161194,0 -13.101807,-6.821182 -4.087219,-12.507538l10.32489,-3.661545c-4.669556,-15.102173 -26.591309,-11.353027 -14.263672,-23.679764c10.958679,-7.933502 19.460449,-5.824707 16.743591,3.502579c-1.173828,4.029755 5.122742,9.184357 16.426147,14.087326c15.332703,6.650681 16.3302,3.07222 16.946533,1.83667c0.941345,-1.887161 1.200989,-5.940887 3.749084,-7.928467c3.353882,-2.616074 9.421509,-2.965134 8.071716,-9.727356c-1.836792,-9.202301 -4.901978,-16.802559 4.675476,-15.938095c8.166992,0.737144 1.43103,10.641663 5.109558,14.350235c6.184509,6.235031 22.459534,-7.596573 26.60553,6.363327c-0.86853,4.133957 -2.453857,6.91391 -12.515015,5.193359c-10.070313,-1.722107 -18.189575,-0.879227 -24.281006,11.357422c-4.291138,8.619995 -11.2771,38.227661 -6.325317,36.351212c1.529968,-0.579773 19.41333,-9.987 33.691101,-17.582977c29.742004,-15.823181 50.945374,-31.142014 49.598633,-43.209015c-0.637146,-5.709045 -0.126404,-12.75885 5.76123,-15.280113c13.302307,-5.696419 13.422607,-0.890106 10.994751,9.471214c-1.838745,7.847015 2.494568,7.651291 4.079041,7.947723c0.239807,1.375397 -17.978394,15.136154 -17.978394,15.136154c0,0 28.02179,-11.90538 28.02179,-5.910904c0,7.195709 -5.714478,10.131424 -25.782837,15.595184c-9.556213,2.60173 -24.680054,10.967224 -32.096069,15.8909c-17.399902,14.187744 -52.385071,19.035248 -58.712708,43.68837c-4.850891,9.910263 -8.005615,14.789719 -5.280273,16.417053c6.274841,3.746841 14.908875,5.106445 30.234314,-9.949417c8.246521,-8.101501 18.650085,-16.162552 23.119019,-17.913452c4.468933,-1.7509 9.605896,-6.324951 11.492676,-10.129578c4.535889,-9.146439 11.343384,-16.514984 11.09021,-4.612167c-0.150085,7.054916 3.887451,7.798477 12.12915,-1.72084c8.629395,-9.967102 15.290955,-4.609985 12.475769,8.193573c-1.538757,6.998322 -31.079956,8.803177 -31.879089,12.61174c0,2.42778 20.296387,2.462601 18.522888,3.437149c-12.734436,8.057983 -31.052795,4.293808 -40.211243,16.807556l23.114136,3.046967c8.82373,1.302109 18.831238,4.084427 22.238892,6.182922c3.407654,2.098526 15.990601,6.557098 27.962097,9.907928c19.921753,5.576157 33.455566,11.116959 33.859009,16.255417c0.434937,5.540833 -38.261292,-6.639313 -61.364624,-15.793121c-4.651062,-1.842804 13.161255,11.347015 19.563782,20.495148c4.689819,6.700836 9.522034,17.591095 9.725098,29.769897c0.3703,22.195587 5.39386,24.031097 19.534973,28.207916c13.672485,4.038391 13.00293,12.601257 -0.918091,13.704071c-21.348572,-2.776703 -27.393066,-20.530914 -31.186157,-37.702423c-7.514343,6.628113 -21.929016,24.435394 -25.770569,13.552643c0,-2.863647 1.520081,-6.38205 5.538574,-8.85672c12.80481,-7.885437 20.058411,-17.323669 16.543457,-26.812988c-5.802856,-15.666016 -58.112549,-51.912109 -74.156738,-39.403778c-3.309814,2.580368 4.578247,8.073242 9.204163,17.080414c7.467163,14.539246 7.744812,26.991882 5.741089,30.039032c-0.946655,1.439636 -9.51001,1.30484 -9.382996,-2.337463c0.68988,-19.782196 -5.602844,-30.088867 -8.186096,-31.612366c-1.774292,-0.852509 -2.647217,10.98053 2.110291,38.553253c0.494324,2.86496 -1.55127,3.741913 -4.737488,3.741913c-8.330017,0 -11.379028,-4.22171 -8.65625,-11.82077c2.823242,-7.879303 -0.059692,-17.459381 -2.934814,-25.50174c-3.902222,-10.915573 -14.504333,-16.514786 -24.466492,-5.47525c-3.421631,3.676544 -6.619141,7.448151 -9.63324,11.281097c-25.266479,32.130829 -37.643066,68.571381 -61.094849,89.425812c-28.2453,25.116943 -57.794373,43.61496 -90.948792,54.425842c-35.291992,11.507965 -74.268616,15.268066 -118.852783,12.041077c-35.829956,-2.593384 -74.695862,-14.061249 -119.110687,-22.727234l-103.427673,-24.913116c-25.0867,4.029907 -53.113434,28.168427 -54.72522,36.445038c-2.59082,13.303833 21.13855,24.5961 54.36084,31.916992c15.59906,5.943207 16.207703,7.861877 -0.817566,5.970123l-16.081177,-0.701782c3.898773,8.252045 16.38385,11.995392 17.865509,17.126312c-10.765259,8.632813 -76.787811,-46.894867 -78.533173,-32.496246c-6.94574,31.201508 94.291199,76.906555 65.62442,75.29364c-6.103271,-1.04895 -13.342896,-2.695374 -15.401703,-2.988373c-5.889069,-0.838318 -12.658752,4.93808 -5.906952,12.948761c3.742828,4.440674 10.379425,11.852722 6.901093,13.596802c-17.26712,-7.438171 -21.229462,-33.960327 -39.315613,-40.317291c-7.61499,6.49408 -0.213104,23.28891 -8.047333,29.57724c-0.398987,-26.076904 -0.660675,-52.150024 -16.690033,-78.668732l-16.671173,0l-20.560272,0c2.80394,16.411835 7.976013,79.100922 4.525375,72.665863c-5.040436,-9.399902 -9.865463,-19.524231 -13.969604,-32.073181c-8.616669,10.20575 -17.254425,45.618042 -17.897324,60.791016c-3.232681,-11.962952 -6.805115,-15.252258 -17.074707,-4.918274zm107.544617,-283.272522c11.790344,-22.047028 15.592865,-66.080856 12.855072,-74.551422c-2.82312,-8.73465 -46.226624,69.203888 -36.066467,81.469116c5.495972,6.634674 12.291687,18.457947 15.695862,15.082306c1.278137,-1.267456 4.041382,-11.365631 7.515533,-22z" id="svg_1"/>
    <path d="m266.25,377.443787c-8.257629,-4.241333 -14.25,0.52951 -14.25,8.408325c0,9.421356 29.853882,40.74057 37.75,33.152802c15.635498,-15.024933 -6.303375,-37.009399 -23.5,-41.561127z" id="Cell_Body_Nucleus"/>
   </g>
   <g id="Neck">
    <g id="Small_Cell">
     <path d="m383.5,360.867401c29.733734,-6.33139 57.993927,6.683289 85.672455,15.61554c7.075836,2.784393 13.295502,7.96286 16.447449,14.733185c-0.565399,11.995819 -13.669525,21.723938 -25.890656,19.319794c-20.819275,0.384644 -42.500854,-1.939758 -60.90564,-11.974121c-8.697754,-3.697693 -18.161835,-9.019379 -20.955841,-18.391815c-1.20874,-6.870392 1.798889,-13.656555 5.632233,-19.302582z" id="svg_2"/>
     <path d="m501.5,392.578766c15.084595,-3.392212 27.298645,0.153503 41.5,2.882843c12.006653,2.307587 28.841797,3.047089 39.5,8.168091c45.000244,37.31485 -25.705994,34.276459 -48.5,30.269928c-26.300507,-5.832764 -61.871582,-24.892426 -32.5,-41.320862z" id="svg_3"/>
     <path d="m611.5,412.758728c14.64801,-4.164185 95.067444,-23.112274 100,-2.402374c8.372375,35.152313 -55.748962,38.150391 -79,33.63327c-10.971069,-2.131409 -38.417542,-15.477692 -21,-31.230896z" id="svg_4"/>
     <path d="m722,397.863983c5.926697,-10.802948 73.189514,-61.560486 87,-30.750397c6.868225,15.322449 -89.409729,74.809387 -89,43.723236c0.071716,-5.437073 -1.99292,-7.213959 2,-12.972839z" id="svg_5"/>
     <path d="m820.9375,359.065613c12.561584,-1.889496 17.82959,-13.830078 28.0625,-23.663391c14.721985,-14.147064 29.5,-35.939636 29.5,-55.254639c0,-4.475769 -23.612671,-17.188843 -27.767761,-13.196014c-10.897705,10.472198 -81.072449,87.186523 -29.794739,92.114044z" id="svg_6"/>
    </g>
    <g id="Small_Cell_Nucleus">
     <path d="m415.25,382.248566c3.061615,-0.499908 5.331818,-0.898712 7.125,-3.483459c5.592133,-8.060638 -10.053101,-8.551453 -14.25,-7.207123c-8.56189,2.742523 0.006012,11.852844 7.125,10.690582z" id="svg_7"/>
     <path d="m536.375,422.007874c3.289185,-0.293915 6.257996,-0.848511 8.5,-3.00296c7.285767,-7.001282 -8.20636,-9.343201 -12.625,-7.927856c-7.168884,2.296326 -2.83374,11.552612 4.125,10.930817z" id="svg_8"/>
     <path d="m657.875,430.77655c24.453125,1.439606 12.675659,-20.195343 -3.5,-10.930817c-5.291077,3.030457 -1.425232,10.930817 3.5,10.930817z" id="svg_9"/>
     <path d="m764.25,378.885223c-3.038269,0.075348 -5.711914,2.057678 -8.125,3.603577c-8.414978,5.3909 3.466309,12.965088 10.122375,10.406586c11.012451,-4.232941 9.929565,-15.24762 -1.997375,-14.010162z" id="svg_10"/>
     <path d="m834.536621,319.024841c2.402527,0.855865 5.902405,-2.326385 7.155334,-4.734406c0.813354,-1.563171 2.136353,-3.346893 2.603577,-5.144501c5.246643,-20.187622 -28.031677,3.369385 -9.758911,9.878906z" id="svg_11"/>
    </g>
   </g>
  </g>
  <g id="Lines">
   <path d="m223.779984,192.414093l-5.283997,-139.236237" id="path10"/>
   <path d="m330.19281,348.459625l84.171753,-107.19136" id="path12"/>
   <path d="m130.814743,591.286133l133.511154,-173.622192" id="path14"/>
  </g>
  <text fill="#000000" stroke="#000000" stroke-width="0" x="217" y="46.287476" id="svg_12" font-size="24" font-family="serif" text-anchor="middle" xml:space="preserve">Dendrite</text>
  <text fill="#000000" stroke="#000000" stroke-width="0" x="118" y="610.287476" id="svg_13" font-size="24" font-family="serif" text-anchor="middle" xml:space="preserve">Nucleus</text>
  <text fill="#000000" stroke="#000000" stroke-width="0" x="429" y="222.287476" id="svg_14" font-size="24" font-family="serif" text-anchor="middle" xml:space="preserve">Soma</text>
  <text fill="#000000" stroke-width="0" stroke-dasharray="null" stroke-linejoin="null" stroke-linecap="null" x="690" y="391.287476" id="svg_34" font-size="24" font-family="serif" text-anchor="middle" xml:space="preserve" transform="matrix(10.022026062011719,0,0,1,-6273.127496242523,0) " stroke="#ffffff"/>
  <text fill="#000000" stroke="#000000" stroke-width="0" stroke-dasharray="null" stroke-linejoin="null" stroke-linecap="null" x="645" y="383.287476" id="svg_35" font-size="24" font-family="serif" text-anchor="middle" xml:space="preserve">Axon</text>
 </g>
</svg>