<?xml version="1.0" encoding="UTF-8"?>
<svg width="500" height="250" xmlns="http://www.w3.org/2000/svg" xmlns:svg="http://www.w3.org/2000/svg">
 <defs>
  <style type="text/css">#Lines {
			stroke: #000000;
			stroke-width: 2;
			stroke-linecap: round;
		}
		#Cell {
			stroke: #000000;
			stroke-width: 2;
			fill-opacity: 1;
		}
		#Cell_Body {
			fill: #a88fd1;
		}
		#Cell_Body_Nucleus {
			fill: #2d7132;
		}
		#Small_Cell {
			fill: #f4cc4b;
		}
		#Small_Cell_Nucleus {
			fill: #d79b9b;
		}</style>
 </defs>
 <metadata>image/svg+xmlQuasar Jarosz, quasarj.com</metadata>
 <g>
  <title>Layer 1</title>
  <g id="Cell">
   <g id="Cell_Body">
    <path d="m86.804001,239.733582l4.258286,-12.992493c-4.888069,2.369629 -12.683167,10.6474 -17.632721,9.616669c8.201561,-7.196594 16.161926,-13.263855 21.041214,-25.401184c6.254417,-13.533051 3.467316,-19.417328 -8.010086,-18.586517c-10.820747,0.783325 -21.867653,9.638214 -21.43045,29.419586c0.17662,7.991577 -2.518547,11.907837 -2.711025,3.643066c-0.06258,-2.687195 -1.750389,-2.516266 -3.582458,-0.948273c-5.970917,5.374969 6.231586,-22.347351 5.135983,-26.473907c-4.688862,1.596649 -15.884335,29.243683 -17.907913,26.107513c0.951847,-6.922211 0.120674,-9.095825 -4.056446,-0.98349c-1.41114,2.74057 -5.64819,8.96637 -6.625042,7.661346c3.407551,-9.299744 9.854389,-17.24118 13.282978,-26.597046c0,-0.459717 -3.406216,0.772278 -7.569374,2.737762c-8.67432,4.095337 -13.529705,3.669586 -9.572773,-0.839417c2.369991,-2.700653 27.971661,-14.111664 44.401932,-19.790588c13.786789,-4.765228 16.466568,-6.553223 16.431664,-10.96347c-0.034073,-4.304443 -3.249886,-8.36731 -8.240974,-12.097321c-6.956009,-5.198456 -18.09507,-0.952332 -28.505844,12.77832c-3.610229,4.388 -5.52512,10.943573 -11.516476,11.110901c0.724667,-1.986603 -0.01516,-6.476257 3.85553,-9.832153c1.88406,-1.633484 4.180576,-5.283783 5.415005,-7.745483c2.222733,-4.432617 3.716728,-6.427734 3.716728,-6.427734c0,0 -23.930283,4.695374 -23.955879,4.753876c5.943398,-3.479279 6.172672,-3.032562 3.060349,-9.15921c-2.622707,-6.114319 -2.814716,-8.483994 -2.151794,-26.555542c0.724178,-19.741241 2.815506,-27.135834 2.815506,-27.135834c0.494694,4.287491 2.190002,8.713791 5.220257,0.071503c0,0 -0.586082,0.599533 -1.597965,17.032257c-1.204227,19.556412 3.111137,32.258575 9.753918,33.157944c3.455891,0.46785 18.369312,0.378113 19.492634,-1.193436c-1.970215,-5.412613 -11.736771,-5.314819 -15.915955,-8.46048c-0.025936,-0.62056 2.680244,-0.816055 5.554306,-1.704071c4.676903,-1.445023 5.634499,-0.449158 11.922615,2.836838c13.211143,8.062195 7.802811,3.549988 7.620651,-5.822357c0,0 3.352608,4.14801 5.85331,6.664551c7.397102,7.44397 10.962502,4.056091 10.353745,-8.281097c-0.425499,-8.62291 -2.287682,-19.568817 -11.839867,-31.862915c-5.534622,-7.123322 -4.392181,-10.592667 -9.529053,-11.703049c-12.930088,2.803925 -20.311798,-10.90979 -24.929493,-13.343796c-3.053879,0 -12.277306,-4.674545 -13.936741,-5.94899c-5.761395,-7.138474 11.182716,0.788559 13.788925,0.262146c-0.634819,-8.750122 -20.374578,-30.211487 -19.96032,-29.38736c5.550747,-1.878937 0.705711,-14.234009 0.772062,-17.815918c2.807734,3.692429 3.831659,2.80703 5.043184,-1.090736c-0.445415,14.301826 0.532104,22.191643 9.39225,31.152504c7.960594,9.684479 12.558277,25.961105 24.429092,29.433899c2.956726,1.006287 5.67028,1.144196 7.00235,0.396393c2.623611,-1.472885 4.441917,-4.509888 -13.367775,-27.71492c-10.640251,-13.863663 -13.921135,-19.500793 -12.246201,-22.075867c2.460506,-0.493073 2.933712,0.641403 7.078678,5.563614l5.171257,6.140915l0.684574,-4.731934c0.707146,-4.25795 0.149559,-15.076935 -3.795338,-21.287659c-2.254921,-3.550079 1.811211,-2.858536 3.937778,1.326958l1.926979,3.792702l0.937088,-4.399849c1.188553,-5.580505 2.435951,-9.750549 2.435951,-9.750549c-0.27066,5.411903 0.734146,7.341263 3.939682,4.561569c-0.273476,15.461418 -11.835381,29.05056 -0.820435,46.384239l2.87841,-5.030975c2.287743,-3.998596 3.785904,-8.124252 3.530487,-20.150925c-0.24279,-11.433014 2.110283,-21.06649 3.21312,-21.2603c0.752609,5.560417 -1.048195,12.853302 2.245468,18.264877c0.202263,-4.958618 3.875366,-12.988747 4.319794,-12.344421c0.342674,0 0.246033,3.729637 -4.518021,21.717239c-4.40493,16.631668 -2.950005,29.590759 0.878441,38.339951c2.664398,6.089005 5.074722,5.456451 5.590775,2.306702c0.317429,-1.937378 0.344406,-10.021515 0.059975,-17.964737c-0.511375,-14.28067 -0.432106,-16.686462 -0.432106,-16.686462c-0.19059,4.286835 7.068741,11.299515 13.97995,-6.975708c2.204178,-5.828506 6.405029,-11.883026 6.405029,-11.883026c-2.867119,8.490677 -2.974434,13.569656 -2.794884,15.156464c0.550636,0.391693 5.430618,-1.770416 7.919235,-3.735962c-0.040215,-0.065506 -15.787354,20.765396 -16.701149,28.294037c4.421051,3.975327 13.3144,-14.037994 13.3144,-14.037994c0.04319,-0.227783 1.142357,5.009155 1.036446,5.567505c0.304192,0.137039 5.924149,-4.697159 6.092735,-4.252914c0.381645,-0.41478 -5.150276,8.832657 -13.278709,15.249924c-13.211678,13.57338 -9.072525,30.507599 -4.29657,38.421997c3.243469,6.909515 16.326744,16.121094 21.476295,17.453934c8.213715,2.125931 9.138977,-10.307907 1.770271,-23.789444c-5.332504,-9.756165 -8.620926,-25.803696 -6.963593,-30.410248c1.55191,-4.313446 2.586929,0.617081 6.05468,4.370438c1.503273,1.627106 1.809334,-3.222672 1.257378,-12.742538c-0.742538,-12.807114 -1.629227,-16.035355 0.361404,-16.035355c1.234642,0 2.361023,2.472244 2.361023,3.247192c0,0.774948 1.292564,-0.068787 2.442146,-0.00029c1.670868,0.099579 0.007919,11.043289 -0.599503,12.606339c-0.858185,2.208313 4.826416,-7.451141 6.512207,-12.21402c1.310074,-3.701324 1.902222,-12.785721 1.902222,-12.785721c-0.125076,0.236038 1.206985,9.053116 3.696548,7.821228c1.291428,-0.639038 0.847305,0.590271 1.59877,0.590271c0.751465,0 1.773087,-1.684937 1.773087,-4.867645c0,-4.388336 0.463455,-5.603333 1.917801,-5.027817c1.346466,0.532837 2.327652,-1.904266 4.455566,-7.772049c1.839294,-5.071899 2.59935,-11.217239 3.836121,-11.217239c2.277328,0 1.12941,8.503265 -2.592209,26.62796c-4.64212,22.60788 -2.879257,22.39653 6.039642,9.354355c3.179703,-4.649704 6.51799,-9.927094 7.619293,-9.927094c2.690704,0 -4.045349,13.102753 -4.045349,13.102753c0,0 3.684753,0.265335 5.334274,1.247192c1.019028,0.606567 -2.738144,4.193085 -12.065475,11.360336c-10.326065,7.934708 -10.00737,10.373535 -15.876953,33.441391c-7.051804,20.098465 13.712219,34.400421 28.726334,36.789215c20.033447,6.229263 36.514374,11.742126 51.372513,16.381851c17.501526,5.465179 33.013763,10.183044 51.975433,10.747467c17.362518,0.516815 35.78479,-1.152161 52.437317,-6.76474c15.324432,-5.164917 29.150177,-13.322891 39.272125,-26.537003c16.885864,-22.044266 28.284485,-43.870041 28.284485,-43.870041c4.84491,-14.357498 12.68161,-27.311142 11.232971,-43.102966c-0.855682,-5.647903 -6.65918,-10.040924 -9.992249,-6.514175c-1.053406,1.114655 -3.381805,4.521133 -5.168427,4.521133c-4.259094,0 -6.091095,-3.479523 -1.900177,-6.380157l4.800079,-1.867783c-2.170868,-7.70369 -12.362366,-5.791229 -6.631195,-12.07917c5.094666,-4.046921 9.04715,-2.971207 7.784088,1.78669c-0.545685,2.055588 2.381561,4.684998 7.636536,7.18602c7.128204,3.392548 7.591949,1.567154 7.878479,0.93689c0.437622,-0.962646 0.55838,-3.030472 1.74295,-4.044342c1.559235,-1.334488 4.380066,-1.512527 3.752563,-4.96199c-0.853912,-4.694138 -2.278931,-8.571053 2.173645,-8.130089c3.796875,0.376022 0.665314,5.42836 2.375458,7.320114c2.875183,3.180519 10.441437,-3.875046 12.368958,3.245979c-0.403809,2.108749 -1.140839,3.526825 -5.818268,2.649155c-4.681732,-0.878464 -8.45636,-0.448502 -11.288269,5.793488c-1.994995,4.397095 -5.242767,19.500107 -2.940643,18.542923c0.711273,-0.295731 9.025269,-5.094406 15.663025,-8.969162c13.827118,-8.071487 23.68457,-15.885696 23.058472,-22.041138c-0.296204,-2.912209 -0.058746,-6.508347 2.678406,-7.794456c6.184265,-2.905777 6.240234,-0.454048 5.111481,4.831314c-0.854797,4.0028 1.15976,3.902962 1.896362,4.054161c0.111511,0.701599 -8.358185,7.721039 -8.358185,7.721039c0,0 13.027374,-6.072998 13.027374,-3.015182c0,3.670563 -2.656677,5.168091 -11.986481,7.95517c-4.442719,1.327179 -11.473816,5.594452 -14.921539,8.106049c-8.089233,7.237228 -24.353912,9.709991 -27.295624,22.28566c-2.255157,5.055283 -3.721802,7.544312 -2.454803,8.37442c2.917175,1.911285 6.931152,2.604828 14.056,-5.075256c3.833801,-4.132599 8.670471,-8.244598 10.748047,-9.137726c2.077606,-0.893158 4.46582,-3.226395 5.342957,-5.16716c2.108734,-4.665634 5.27359,-8.424377 5.155884,-2.352692c-0.069794,3.598755 1.807281,3.978043 5.638855,-0.877808c4.011841,-5.084274 7.108795,-2.351578 5.800018,4.179581c-0.715393,3.569885 -14.449127,4.49054 -14.820648,6.433319c0,1.238419 9.435822,1.256195 8.611298,1.753311c-5.920227,4.110428 -14.436462,2.190308 -18.694244,8.573608l10.745789,1.554291c4.102173,0.6642 8.754669,2.083481 10.338898,3.153946c1.584229,1.07045 7.434021,3.344788 12.999634,5.054077c9.261658,2.844421 15.553528,5.670807 15.741089,8.291962c0.202209,2.826431 -17.78775,-3.386719 -28.528503,-8.056137c-2.162292,-0.940033 6.118683,5.788177 9.095245,10.454681c2.180298,3.418137 4.426819,8.973297 4.52124,15.185776c0.172119,11.322067 2.507599,12.258377 9.081818,14.389008c6.356354,2.059998 6.045074,6.427979 -0.426849,6.990509c-9.924957,-1.416412 -12.735077,-10.472931 -14.498474,-19.232208c-3.493408,3.381042 -10.194824,12.464645 -11.980774,6.913269c0,-1.460754 0.706696,-3.255493 2.57489,-4.517853c5.952972,-4.0224 9.325195,-8.836899 7.691071,-13.677444c-2.697754,-7.991318 -27.016632,-26.480637 -34.475616,-20.100067c-1.538696,1.316254 2.128448,4.11821 4.279053,8.712799c3.471466,7.41655 3.600555,13.768707 2.669037,15.323074c-0.440094,0.734375 -4.421204,0.665604 -4.362152,-1.192352c0.320709,-10.091003 -2.604767,-15.348511 -3.805756,-16.125626c-0.82486,-0.43486 -1.230713,5.601227 0.981079,19.666199c0.229828,1.461426 -0.721161,1.908783 -2.202454,1.908783c-3.87262,0 -5.2901,-2.153534 -4.024323,-6.029831c1.312561,-4.019272 -0.02771,-8.906143 -1.36438,-13.008575c-1.814148,-5.568085 -6.743103,-8.424286 -11.374481,-2.792953c-1.590729,1.875427 -3.077271,3.799332 -4.478546,5.754532c-11.746399,16.390121 -17.500305,34.978622 -28.403076,45.616562c-13.131256,12.812317 -26.868713,22.24823 -42.282257,27.762939c-16.407288,5.870239 -34.527588,7.7883 -55.254822,6.142181c-16.657425,-1.322876 -34.726242,-7.172699 -55.374756,-11.593262l-48.083694,-12.708328c-11.662842,2.055695 -24.692505,14.368881 -25.441849,18.590836c-1.204468,6.786346 9.827362,12.5466 25.272446,16.281006c7.252014,3.031647 7.534988,4.010376 -0.380081,3.04538l-7.476181,-0.357971c1.812561,4.209412 7.616898,6.118927 8.30571,8.736237c-5.004776,4.403625 -35.698761,-23.921326 -36.510193,-16.576508c-3.22908,15.916046 43.836136,39.230408 30.508896,38.407654c-2.837418,-0.535034 -6.203125,-1.374908 -7.160263,-1.524384c-2.737839,-0.427612 -5.885086,2.518921 -2.746155,6.605255c1.740036,2.265198 4.825409,6.046112 3.208313,6.935791c-8.027481,-3.794281 -9.869598,-17.323395 -18.277878,-20.566071c-3.540222,3.312683 -0.099091,11.879791 -3.741241,15.087524c-0.185471,-13.301971 -0.307129,-26.60202 -7.759209,-40.129333l-7.75045,0l-9.55851,0c1.303558,8.371735 3.708076,40.349792 2.103859,37.0672c-2.343307,-4.794922 -4.586472,-9.959412 -6.494492,-16.360657c-4.005898,5.205994 -8.021606,23.269958 -8.320488,31.009796c-1.502876,-6.102356 -3.163719,-7.780273 -7.938057,-2.50885zm49.99765,-144.498764c5.481354,-11.246307 7.249161,-33.708191 5.976349,-38.029068c-1.312469,-4.455597 -21.490807,35.30127 -16.767349,41.557816c2.555084,3.384384 5.714417,9.415482 7.297028,7.693558c0.594208,-0.64653 1.878845,-5.797638 3.493973,-11.222305z" id="svg_1"/>
    <path d="m114.767746,154.607056c-3.838989,-2.163544 -6.624847,0.270111 -6.624847,4.289124c0,4.805878 13.87912,20.781982 17.550034,16.911407c7.268967,-7.664307 -2.93045,-18.878677 -10.925186,-21.200531z" id="Cell_Body_Nucleus"/>
   </g>
   <g id="Neck">
    <g id="Small_Cell">
     <path d="m169.277466,146.151352c13.823257,-3.229675 26.961472,3.409164 39.829254,7.965561c3.289566,1.420349 6.181076,4.061905 7.646439,7.515472c-0.262848,6.119141 -6.35498,11.081512 -12.036591,9.855133c-9.678925,0.196198 -19.758728,-0.989502 -28.31514,-6.108032c-4.043579,-1.88623 -8.443466,-4.600861 -9.742416,-9.38179c-0.561935,-3.504623 0.836304,-6.966263 2.618454,-9.846344z" id="svg_2"/>
     <path d="m224.135834,162.327484c7.012863,-1.730377 12.691177,0.078308 19.293427,1.470551c5.581924,1.177094 13.4086,1.554321 18.363617,4.166595c20.920685,19.034485 -11.950775,17.484619 -22.547729,15.440857c-12.227158,-2.975342 -28.764206,-12.697754 -15.109314,-21.078003z" id="svg_3"/>
     <path d="m275.275024,172.621399c6.809875,-2.124176 44.196991,-11.789703 46.490143,-1.225464c3.892334,17.931396 -25.917725,19.460693 -36.727234,17.156494c-5.100464,-1.08725 -17.860352,-7.895264 -9.762909,-15.93103z" id="svg_4"/>
     <path d="m326.646637,165.023529c2.755341,-5.510651 34.02594,-31.402344 40.446442,-15.685959c3.193054,7.816055 -41.566711,38.160629 -41.376221,22.303452c0.033325,-2.773468 -0.926544,-3.679871 0.929779,-6.617493z" id="svg_5"/>
     <path d="m372.642853,145.232269c5.839905,-0.963852 8.288971,-7.05481 13.046295,-12.070847c6.844269,-7.216492 13.7146,-18.332977 13.7146,-28.185684c0,-2.283096 -10.97757,-8.768112 -12.909302,-6.731339c-5.066315,5.341919 -37.690674,44.474304 -13.851593,46.987869z" id="svg_6"/>
    </g>
    <g id="Small_Cell_Nucleus">
     <path d="m184.038071,157.057999c1.423355,-0.255005 2.478775,-0.45845 3.312424,-1.776932c2.599792,-4.111755 -4.673706,-4.362137 -6.624832,-3.676392c-3.980453,1.398956 0.002792,6.046188 3.312408,5.453323z" id="svg_7"/>
     <path d="m240.349289,177.339447c1.529144,-0.149933 2.909348,-0.432861 3.95166,-1.53186c3.387161,-3.57135 -3.815155,-4.766022 -5.869385,-4.044037c-3.332825,1.171356 -1.317413,5.893036 1.917725,5.575897z" id="svg_8"/>
     <path d="m296.834839,181.812347c11.368286,0.734375 5.892914,-10.301727 -1.627167,-5.575836c-2.459808,1.545837 -0.662598,5.575836 1.627167,5.575836z" id="svg_9"/>
     <path d="m346.288757,155.342331c-1.412506,0.038452 -2.655487,1.049652 -3.777344,1.838211c-3.91214,2.749924 1.611481,6.613556 4.705902,5.308441c5.11972,-2.159241 4.616272,-7.777878 -0.928558,-7.146652z" id="svg_10"/>
     <path d="m378.965057,124.807236c1.116974,0.436584 2.74408,-1.186691 3.326569,-2.415039c0.378113,-0.797379 0.993195,-1.70726 1.210388,-2.624222c2.439178,-10.297836 -13.031982,1.718735 -4.536957,5.039261z" id="svg_11"/>
    </g>
   </g>
  </g>
 </g>
</svg>