<?xml version="1.0" encoding="UTF-8"?>
<svg width="1179" height="400" xmlns="http://www.w3.org/2000/svg" xmlns:svg="http://www.w3.org/2000/svg">
 <defs>
  <style type="text/css">.Cell {
			stroke: #000000;
			stroke-width: 2;
			fill-opacity: 1;
		}
		.Cell_Body {
			fill: #a88fd1;
		}
		.Cell_Body_Nucleus {
			fill: #2d7132;
		}
		.Small_Cell {
			fill: #f4cc4b;
		}
		.Small_Cell_Nucleus {
			fill: #d79b9b;
		}</style>
 </defs>
 <metadata>image/svg+xmlQuasar Jarosz, quasarj.com</metadata>
 <g>
  <title>Layer 1</title>
  <g class="Cell" id="svg_001">
   <g class="Cell_Body" id="svg_002">
    <path id="svg_1" d="m103.098129,385.167328l5.355858,-15.925079c-6.14798,2.90451 -15.952271,13.050659 -22.177567,11.787262c10.315506,-8.820923 20.327667,-16.257629 26.464607,-31.134521c7.866501,-16.587585 4.361023,-23.800018 -10.074677,-22.781677c-13.609833,0.960114 -27.504082,11.81366 -26.954193,36.059906c0.222153,9.79538 -3.167702,14.595581 -3.40979,4.465363c-0.078697,-3.293732 -2.201546,-3.084229 -4.505836,-1.162323c-7.509933,6.588165 7.837776,-27.391418 6.459785,-32.449371c-5.897415,1.957031 -19.978546,35.84433 -22.523708,32.000275c1.197189,-8.484619 0.151783,-11.148865 -5.10199,-1.205475c-1.774868,3.359161 -7.104019,10.990204 -8.332661,9.390594c4.285851,-11.398804 12.394371,-21.13269 16.70668,-32.600281c0,-0.563507 -4.284168,0.946594 -9.520378,3.355713c-10.910152,5.019684 -17.01701,4.497833 -12.040169,-1.0289c2.980846,-3.310211 35.181389,-17.296844 55.846581,-24.257568c17.340347,-5.84079 20.710846,-8.032349 20.666946,-13.438019c-0.042862,-5.276031 -4.087547,-10.25592 -10.365097,-14.82785c-8.748924,-6.371796 -22.759094,-1.167267 -35.85326,15.662537c-4.540771,5.378448 -6.94923,13.413666 -14.484863,13.618774c0.911453,-2.435028 -0.01907,-7.938049 4.849293,-12.051392c2.36969,-2.002167 5.258129,-6.47641 6.81073,-9.493744c2.79565,-5.433105 4.674721,-7.87854 4.674721,-7.87854c0,0 -30.098343,5.755188 -30.130531,5.826874c7.475311,-4.264587 7.76368,-3.717041 3.849148,-11.226532c-3.29871,-7.494385 -3.540207,-10.398926 -2.706417,-32.549438c0.910839,-24.197067 3.54121,-33.260696 3.54121,-33.260696c0.6222,5.255219 2.754478,10.680588 6.565777,0.087616c0,0 -0.737137,0.734863 -2.009838,20.876633c-1.514622,23.970551 3.91304,39.539734 12.268002,40.642059c4.346649,0.573486 23.104027,0.46347 24.516891,-1.462799c-2.478035,-6.634308 -14.76194,-6.514404 -20.018314,-10.370117c-0.032627,-0.76062 3.371082,-1.000244 6.985928,-2.088684c5.882393,-1.771179 7.086815,-0.550537 14.995682,3.477142c16.616333,9.881958 9.814003,4.351288 9.584885,-7.136536c0,0 4.216759,5.084259 7.362007,8.168823c9.303711,9.124146 13.788101,4.971588 13.02243,-10.150299c-0.535172,-10.569168 -2.877327,-23.985703 -14.891602,-39.054718c-6.961166,-8.731125 -5.524277,-12.983551 -11.985176,-14.344559c-16.262833,3.436798 -25.547184,-13.372253 -31.355103,-16.355637c-3.841019,0 -15.441792,-5.729645 -17.52895,-7.291763c-7.246401,-8.74971 14.065079,0.966553 17.34304,0.321289c-0.79845,-10.725098 -25.62615,-37.030548 -25.105122,-36.020416c6.981461,-2.30304 0.887611,-17.446777 0.97106,-21.837173c3.531443,4.525848 4.819281,3.440613 6.343069,-1.336929c-0.560207,17.529907 0.669262,27.200546 11.813122,38.183975c10.012451,11.870392 15.795189,31.820831 30.725723,36.077469c3.718819,1.233414 7.131805,1.402451 8.80722,0.48587c3.299835,-1.805328 5.586807,-5.527817 -16.813354,-33.97049c-13.38279,-16.992844 -17.509319,-23.902328 -15.402668,-27.05864c3.0947,-0.604355 3.68988,0.786179 8.90321,6.819382l6.504158,7.527008l0.861023,-5.799988c0.889412,-5.219025 0.18811,-18.47998 -4.77359,-26.092545c-2.836128,-4.351364 2.278061,-3.503731 4.952751,1.62648l2.42366,4.648758l1.178619,-5.392937c1.494911,-6.840103 3.06382,-11.951363 3.06382,-11.951363c-0.340424,6.633423 0.92337,8.998276 4.955139,5.591156c-0.343964,18.951248 -14.885963,35.60762 -1.031898,56.853699l3.620316,-6.166519c2.877411,-4.901123 4.761734,-9.957993 4.440483,-24.699219c-0.305374,-14.01358 2.654205,-25.821465 4.041306,-26.059021c0.946594,6.815483 -1.318367,15.75444 2.824234,22.387466c0.254402,-6.07782 4.874252,-15.920456 5.433228,-15.130676c0.431,0 0.309464,4.571457 -5.682526,26.619064c-5.540314,20.385651 -3.710373,36.269745 1.104858,46.993713c3.351151,7.463348 6.382736,6.688019 7.031807,2.827362c0.399239,-2.374664 0.433174,-12.283493 0.075439,-22.019592c-0.643196,-17.503967 -0.543495,-20.452759 -0.543495,-20.452759c-0.239723,5.25441 8.890709,13.84993 17.583305,-8.550232c2.772301,-7.144058 8.055931,-14.56517 8.055931,-14.56517c-3.606117,10.40712 -3.741096,16.632492 -3.515266,18.577454c0.692574,0.480087 6.83036,-2.170044 9.960426,-4.579224c-0.050583,-0.080276 -19.856567,25.452393 -21.005898,34.680313c5.560585,4.872604 16.746208,-17.206528 16.746208,-17.206528c0.054321,-0.27919 1.436798,6.139786 1.303589,6.824158c0.382599,0.167969 7.451111,-5.75737 7.663147,-5.21283c0.480011,-0.508423 -6.477768,10.826279 -16.701309,18.691986c-16.616997,16.637054 -11.41098,37.393524 -5.404007,47.094284c4.079483,8.46907 20.534973,19.759811 27.011826,21.393494c10.330811,2.605759 11.494553,-12.634521 2.226563,-29.159012c-6.70697,-11.958252 -10.842987,-31.627899 -8.758469,-37.2742c1.95192,-5.287048 3.253708,0.756363 7.61528,5.356903c1.890747,1.994339 2.275696,-3.950073 1.581467,-15.618683c-0.933929,-15.6978 -2.049149,-19.654709 0.454559,-19.654709c1.552872,0 2.969574,3.030258 2.969574,3.980118c0,0.94986 1.625732,-0.08432 3.071625,-0.000351c2.101532,0.12207 0.009949,13.535873 -0.754028,15.451721c-1.079391,2.706772 6.070419,-9.13295 8.19072,-14.970856c1.647751,-4.536774 2.392532,-15.6716 2.392532,-15.6716c-0.157333,0.289307 1.518066,11.096497 4.649338,9.586548c1.624298,-0.783279 1.065689,0.723511 2.010849,0.723511c0.94516,0 2.230118,-2.065247 2.230118,-5.966339c0,-5.37883 0.582901,-6.868073 2.412109,-6.162643c1.693512,0.653091 2.927612,-2.334076 5.604004,-9.526276c2.31337,-6.21669 3.269318,-13.749115 4.82486,-13.749115c2.864319,0 1.420532,10.422546 -3.260361,32.638214c-5.838638,27.710709 -3.621399,27.451675 7.596359,11.465729c3.999283,-5.699188 8.198013,-12.16777 9.583191,-12.16777c3.384262,0 -5.088028,16.060211 -5.088028,16.060211c0,0 4.634506,0.325226 6.709167,1.528687c1.281693,0.743484 -3.443878,5.139511 -15.175339,13.924515c-12.98764,9.725662 -12.586792,12.714935 -19.969254,40.989487c-8.869415,24.634903 17.246552,42.165024 36.130569,45.093002c25.197098,7.635254 45.92601,14.392456 64.613861,20.079407c22.012573,6.69873 41.523102,12.481476 65.372162,13.173309c21.837738,0.633453 45.008392,-1.412231 65.953125,-8.291626c19.274323,-6.330688 36.663666,-16.330017 49.394562,-32.526703c21.23822,-27.019913 35.574829,-53.772034 35.574829,-53.772034c6.093689,-17.598129 15.950317,-33.475571 14.128296,-52.831802c-1.076172,-6.922699 -8.37561,-12.307266 -12.567749,-7.984497c-1.324951,1.366241 -4.253479,5.541611 -6.50061,5.541611c-5.356812,0 -7.661041,-4.264893 -2.389893,-7.820251l6.037231,-2.289337c-2.730408,-9.442505 -15.548767,-7.098404 -8.340332,-14.805603c6.407837,-4.960335 11.379089,-3.64183 9.790466,2.189972c-0.68634,2.519562 2.995422,5.742447 9.604858,8.807983c8.965546,4.158279 9.548798,1.920868 9.90918,1.148361c0.550446,-1.179932 0.702271,-3.714493 2.1922,-4.957214c1.961121,-1.635696 5.509003,-1.853928 4.719757,-6.08194c-1.074005,-5.753654 -2.866272,-10.505646 2.733887,-9.965157c4.775513,0.460899 0.836792,6.653587 2.987732,8.972343c3.616272,3.898422 13.132751,-4.749664 15.557068,3.978653c-0.507751,2.584717 -1.434875,4.322876 -7.317871,3.247086c-5.888489,-1.076736 -10.636047,-0.549728 -14.197815,7.101151c-2.509216,5.389572 -6.594116,23.90152 -3.698608,22.728302c0.894592,-0.362488 11.351563,-6.244278 19.700134,-10.993622c17.391113,-9.893311 29.789368,-19.471268 29.001831,-27.016068c-0.372559,-3.569534 -0.073853,-7.977364 3.368774,-9.553764c7.778259,-3.561653 7.848633,-0.556534 6.428955,5.921791c-1.075073,4.906265 1.458679,4.783905 2.385132,4.969254c0.140259,0.85994 -10.512512,9.46376 -10.512512,9.46376c0,0 16.385193,-7.443741 16.385193,-3.69574c0,4.499039 -3.341431,6.334579 -15.075989,9.750748c-5.58783,1.626709 -14.431213,6.857178 -18.767578,9.935669c-10.174255,8.870758 -30.631134,11.901642 -34.331085,27.315796c-2.836487,6.196304 -4.681091,9.247162 -3.087524,10.264633c3.669067,2.342667 8.717621,3.192749 17.678925,-6.220795c4.82196,-5.065384 10.905273,-10.105499 13.518372,-11.200211c2.613098,-1.094742 5.616882,-3.95462 6.720093,-6.33345c2.652283,-5.718719 6.632874,-10.325882 6.484802,-2.883743c-0.087769,4.411041 2.273132,4.875931 7.092285,-1.075928c5.045898,-6.231842 8.941101,-2.882339 7.294983,5.122971c-0.89978,4.375641 -18.173401,5.504089 -18.640686,7.885391c0,1.517929 11.86792,1.539719 10.830872,2.149048c-7.446167,5.038193 -18.157471,2.684677 -23.512695,10.508759l13.515503,1.905121c5.159546,0.814133 11.01123,2.553772 13.003784,3.865829c1.992554,1.312073 9.350159,4.099762 16.350281,6.194839c11.648865,3.48642 19.5625,6.95079 19.798401,10.163559c0.254333,3.464401 -22.372559,-4.151154 -35.881775,-9.874512c-2.719604,-1.152222 7.695801,7.094635 11.439575,12.814423c2.742249,4.189651 5.56781,10.998703 5.686584,18.613388c0.216492,13.877579 3.153931,15.025238 11.422668,17.636749c7.99469,2.524963 7.60321,7.878845 -0.536865,8.568359c-12.483154,-1.736115 -16.017578,-12.836807 -18.235474,-23.573135c-4.39386,4.144165 -12.822571,15.278061 -15.068848,8.473648c0,-1.790466 0.888855,-3.990295 3.238586,-5.537567c7.487366,-4.930298 11.72876,-10.831482 9.673462,-16.764603c-3.393127,-9.795059 -33.980225,-32.457626 -43.361755,-24.636902c-1.935303,1.613358 2.677063,5.047745 5.381958,10.679382c4.366272,9.090561 4.528625,16.87645 3.356995,18.781662c-0.553528,0.900131 -5.560791,0.815842 -5.486511,-1.461472c0.403381,-12.368652 -3.276123,-18.812851 -4.786682,-19.765381c-1.037476,-0.53302 -1.547913,6.865494 1.233948,24.105103c0.289063,1.79129 -0.907043,2.3396 -2.770142,2.3396c-4.870789,0 -6.653625,-2.639603 -5.061584,-7.390839c1.650879,-4.926483 -0.034851,-10.916351 -1.716064,-15.944763c-2.281708,-6.82486 -8.48111,-10.325729 -14.306244,-3.42334c-2.000732,2.298721 -3.870422,4.656891 -5.632874,7.053391c-14.774048,20.089539 -22.011047,42.873688 -35.72403,55.91275c-16.515839,15.704193 -33.794128,27.269897 -53.180542,34.029327c-20.636292,7.195251 -43.427124,9.546234 -69.496826,7.528564c-20.950897,-1.62146 -43.676971,-8.791656 -69.647675,-14.209991l-60.477325,-15.576721c-14.668961,2.519653 -31.057053,17.612061 -31.999512,22.786957c-1.514908,8.318115 12.360382,15.37851 31.786438,19.955841c9.121231,3.715912 9.477142,4.915558 -0.478058,3.732758l-9.403168,-0.438782c2.279739,5.159607 9.580154,7.500031 10.446518,10.708099c-6.294769,5.397583 -44.900177,-29.320648 -45.920746,-20.317932c-4.061386,19.508392 55.134949,48.085083 38.372604,47.076721c-3.568771,-0.655823 -7.802002,-1.685242 -9.005844,-1.86853c-3.443512,-0.524139 -7.401962,3.087494 -3.453979,8.09613c2.188538,2.77652 6.069168,7.410858 4.035278,8.501282c-10.096588,-4.650665 -12.413513,-21.233459 -22.989029,-25.208099c-4.452728,4.060394 -0.124634,14.561218 -4.705551,18.49295c-0.233276,-16.304382 -0.386292,-32.606323 -9.759155,-49.186981l-9.748138,0l-12.022232,0c1.639557,10.261353 4.663834,49.457214 2.646133,45.433807c-2.947311,-5.877289 -5.768654,-12.207458 -8.168465,-20.053558c-5.038422,6.381042 -10.08918,28.522369 -10.465103,38.009064c-1.890236,-7.479736 -3.979156,-9.536346 -9.9841,-3.075104l-0.000038,0.000061l-0.000031,0.000031l0,0.000031zm62.884613,-177.1138c6.89418,-13.784729 9.11763,-41.316528 7.516754,-46.612671c-1.650772,-5.461273 -27.03009,43.26918 -21.089172,50.937897c3.213638,4.14827 7.187332,11.540665 9.177841,9.430069c0.747391,-0.79245 2.363129,-7.106216 4.394562,-13.75528l0.000015,-0.000015z"/>
    <path id="svg_003" class="Cell_Body_Nucleus" d="m138.269562,280.826752c-4.828491,-2.651886 -8.332413,0.331085 -8.332413,5.257233c0,5.890625 17.456482,25.472717 22.073578,20.728516c9.142548,-9.394226 -3.685776,-23.139832 -13.741165,-25.985748z"/>
   </g>
   <g id="Neck">
    <g class="Small_Cell" id="svg_004">
     <path id="svg_2" d="m206.829224,270.462494c17.38623,-3.958649 33.910843,4.17865 50.095306,9.763489c4.137451,1.740936 7.774261,4.978729 9.61731,9.211792c-0.330597,7.500305 -7.992981,13.582733 -15.139038,12.079559c-12.173676,0.240479 -24.851563,-1.21283 -35.613403,-7.486694c-5.085815,-2.311981 -10.619766,-5.639313 -12.253525,-11.499359c-0.706787,-4.295654 1.051865,-8.538635 3.29335,-12.068787z"/>
     <path id="svg_3" d="m275.827423,290.289764c8.820435,-2.120941 15.962341,0.095978 24.266327,1.80249c7.02066,1.44278 16.864685,1.905151 23.096863,5.107025c26.313019,23.330811 -15.031097,21.431091 -28.359436,18.926025c-15.378723,-3.646881 -36.178223,-15.563782 -19.003754,-25.835541z"/>
     <path id="svg_4" d="m340.147797,302.907135c8.565125,-2.603638 55.588837,-14.450775 58.473053,-1.502075c4.895569,21.978729 -32.598083,23.85321 -46.193726,21.028931c-6.415131,-1.332642 -22.463898,-9.677307 -12.279327,-19.526855z"/>
     <path id="svg_5" d="m404.760498,293.59433c3.465546,-6.754456 42.796173,-38.490204 50.871582,-19.22644c4.016052,9.580231 -52.280609,46.773926 -52.041016,27.337585c0.041931,-3.399475 -1.165344,-4.510468 1.169434,-8.111145z"/>
     <path id="svg_6" d="m462.612305,269.335968c7.345154,-1.181396 10.425476,-8.647156 16.408997,-14.795364c8.608398,-8.845337 17.249573,-22.470947 17.249573,-34.547516c0,-2.798431 -13.807068,-10.747177 -16.236694,-8.250687c-6.372192,6.547653 -47.405518,54.512665 -17.421875,57.593567z"/>
    </g>
    <g class="Small_Cell_Nucleus" id="svg_005">
     <path id="svg_7" d="m225.394409,283.830902c1.790222,-0.312561 3.117676,-0.56192 4.166199,-2.178009c3.269897,-5.039825 -5.878357,-5.34671 -8.332397,-4.506195c-5.006409,1.714722 0.00351,7.410889 4.166199,6.684204z"/>
     <path id="svg_8" d="m296.21991,308.690094c1.923279,-0.183777 3.659241,-0.530548 4.970215,-1.877594c4.260193,-4.377472 -4.798523,-5.841766 -7.382233,-4.956818c-4.191864,1.43573 -1.656982,7.223145 2.412018,6.834412z"/>
     <path id="svg_9" d="m367.264679,314.172607c14.298462,0.900116 7.411835,-12.626953 -2.04657,-6.834381c-3.093842,1.894745 -0.833374,6.834381 2.04657,6.834381z"/>
     <path id="svg_10" d="m429.465393,281.727997c-1.776581,0.047119 -3.339935,1.28656 -4.750946,2.253113c-4.920502,3.370605 2.026855,8.106293 5.918854,6.506622c6.439331,-2.646606 5.806122,-9.533447 -1.167908,-8.759735z"/>
     <path id="svg_11" d="m470.564087,244.300781c1.404846,0.535126 3.451355,-1.454544 4.18396,-2.960144c0.475586,-0.977356 1.249207,-2.092621 1.5224,-3.216553c3.067871,-12.622162 -16.390991,2.106674 -5.70636,6.176712l0,-0.000015z"/>
    </g>
   </g>
  </g>
  <g class="Cell" id="svg_12">
   <g class="Cell_Body" id="svg_13">
    <path d="m655.607788,326.688477l5.355835,-15.925049c-6.147949,2.90448 -15.952271,13.050659 -22.177551,11.787231c10.315491,-8.820923 20.327698,-16.257629 26.4646,-31.134521c7.866516,-16.587585 4.361023,-23.799988 -10.074646,-22.781677c-13.609863,0.960144 -27.50415,11.81366 -26.954224,36.059937c0.222168,9.795349 -3.167725,14.595581 -3.40979,4.465332c-0.078735,-3.293701 -2.201538,-3.084229 -4.505859,-1.162292c-7.509888,6.588135 7.837769,-27.391418 6.459839,-32.449402c-5.897461,1.957031 -19.978577,35.84436 -22.523743,32.000305c1.197205,-8.484619 0.151794,-11.148865 -5.10199,-1.205505c-1.774902,3.359192 -7.104004,10.990234 -8.332642,9.390625c4.285828,-11.398804 12.394348,-21.13269 16.706665,-32.600281c0,-0.563538 -4.28418,0.946594 -9.520386,3.355713c-10.910156,5.019653 -17.017029,4.497803 -12.040161,-1.028931c2.980835,-3.310181 35.181396,-17.296814 55.846558,-24.257568c17.340332,-5.840759 20.710876,-8.032349 20.666992,-13.437988c-0.042908,-5.276062 -4.087585,-10.25592 -10.365112,-14.827881c-8.748962,-6.37178 -22.759155,-1.167236 -35.853271,15.662537c-4.540771,5.378479 -6.949219,13.413696 -14.484863,13.618774c0.911438,-2.434998 -0.019043,-7.938049 4.849243,-12.051392c2.369751,-2.002136 5.258179,-6.476379 6.810791,-9.493713c2.795654,-5.433105 4.674683,-7.87854 4.674683,-7.87854c0,0 -30.098328,5.755188 -30.130493,5.826843c7.475281,-4.264587 7.763672,-3.717041 3.849121,-11.226486c-3.298706,-7.494385 -3.540161,-10.398941 -2.706421,-32.549454c0.910889,-24.197067 3.54126,-33.260712 3.54126,-33.260712c0.622192,5.255219 2.754456,10.680573 6.565735,0.087616c0,0 -0.737122,0.734863 -2.009827,20.876648c-1.514648,23.97052 3.913025,39.539734 12.268005,40.64209c4.346619,0.573441 23.104004,0.46344 24.516907,-1.46283c-2.478027,-6.634277 -14.761963,-6.514389 -20.018311,-10.370117c-0.032654,-0.76062 3.371094,-1.000244 6.985901,-2.088684c5.882385,-1.771179 7.086792,-0.550537 14.995667,3.477173c16.616333,9.881897 9.814026,4.351257 9.5849,-7.136536c0,0 4.216736,5.084229 7.362,8.168823c9.303711,9.124161 13.788086,4.971573 13.022461,-10.150269c-0.535156,-10.569183 -2.877319,-23.985733 -14.891602,-39.054749c-6.961182,-8.731125 -5.524292,-12.983521 -11.985229,-14.344543c-16.262817,3.436813 -25.547119,-13.372238 -31.355103,-16.355637c-3.841003,0 -15.441772,-5.729645 -17.528931,-7.291756c-7.246399,-8.74971 14.065063,0.966545 17.343018,0.321297c-0.798462,-10.725105 -25.626099,-37.030556 -25.105103,-36.020416c6.981445,-2.30304 0.887634,-17.446785 0.971069,-21.837173c3.531433,4.525864 4.819275,3.440613 6.343079,-1.336929c-0.560242,17.529907 0.66925,27.200562 11.81311,38.183983c10.012451,11.870377 15.795227,31.820824 30.725708,36.077446c3.718811,1.233444 7.131836,1.402481 8.807251,0.48587c3.299866,-1.805328 5.586792,-5.527786 -16.813354,-33.970497c-13.382751,-16.992844 -17.509338,-23.902328 -15.402649,-27.05864c3.094727,-0.604355 3.689819,0.786186 8.903198,6.819366l6.50415,7.527023l0.861023,-5.800003c0.889404,-5.219017 0.18811,-18.47998 -4.773621,-26.092537c-2.83606,-4.351383 2.278076,-3.503723 4.952759,1.62648l2.423706,4.648766l1.17865,-5.392937c1.494873,-6.840092 3.063782,-11.951351 3.063782,-11.951351c-0.340271,6.633419 0.92334,8.99826 4.955139,5.59116c-0.343811,18.951248 -14.885986,35.607597 -1.03186,56.853699l3.6203,-6.166527c2.87738,-4.901123 4.76178,-9.957985 4.44043,-24.699219c-0.305359,-14.01358 2.654419,-25.821461 4.041321,-26.059013c0.946594,6.815483 -1.318359,15.75444 2.824219,22.387474c0.254639,-6.07782 4.874451,-15.920464 5.433411,-15.130692c0.430969,0 0.309448,4.571457 -5.682739,26.619057c-5.540161,20.385643 -3.710327,36.269737 1.104919,46.993736c3.351318,7.463379 6.38269,6.688049 7.031799,2.827332c0.399231,-2.374634 0.43335,-12.283493 0.0755,-22.019585c-0.64325,-17.503975 -0.543579,-20.452774 -0.543579,-20.452774c-0.239685,5.25441 8.890869,13.84993 17.583313,-8.550217c2.772278,-7.144073 8.055908,-14.565163 8.055908,-14.565163c-3.606079,10.407135 -3.741089,16.632484 -3.515259,18.577454c0.692627,0.480095 6.830383,-2.170029 9.960449,-4.579208c-0.050598,-0.080292 -19.856567,25.452377 -21.00592,34.680305c5.560608,4.872597 16.746338,-17.206535 16.746338,-17.206535c0.05426,-0.27919 1.43689,6.139786 1.30365,6.824165c0.382629,0.167984 7.45105,-5.75737 7.663147,-5.212837c0.47998,-0.508415 -6.477783,10.826286 -16.701294,18.691986c-16.617004,16.637054 -11.411011,37.393524 -5.404053,47.094315c4.079468,8.469055 20.535034,19.759796 27.011841,21.393478c10.330811,2.605774 11.494568,-12.634521 2.226563,-29.158997c-6.70697,-11.958252 -10.842957,-31.62793 -8.758423,-37.2742c1.951904,-5.287056 3.253662,0.756378 7.615234,5.356903c1.890747,1.994308 2.275696,-3.950073 1.581482,-15.618713c-0.933899,-15.697815 -2.049133,-19.654716 0.454529,-19.654716c1.552917,0 2.969543,3.030273 2.969543,3.980133c0,0.94986 1.62561,-0.08432 3.071716,-0.000351c2.101501,0.122063 0.009888,13.535873 -0.754028,15.451721c-1.079468,2.706757 6.070313,-9.13295 8.190613,-14.970863c1.647827,-4.536758 2.392639,-15.6716 2.392639,-15.6716c-0.15741,0.289314 1.518066,11.096512 4.649231,9.586563c1.62439,-0.783279 1.065613,0.723511 2.010742,0.723511c0.94519,0 2.230103,-2.065247 2.230103,-5.966347c0,-5.37883 0.582886,-6.868065 2.412109,-6.162643c1.693542,0.653076 2.927612,-2.334091 5.604004,-9.526291c2.313354,-6.21669 3.269348,-13.7491 4.82489,-13.7491c2.864319,0 1.420532,10.422554 -3.260315,32.638199c-5.838684,27.710724 -3.62146,27.451683 7.596313,11.465729c3.999268,-5.699188 8.197998,-12.167755 9.583191,-12.167755c3.384216,0 -5.088074,16.060196 -5.088074,16.060196c0,0 4.634521,0.325233 6.709229,1.528702c1.281677,0.743477 -3.443909,5.139511 -15.175293,13.9245c-12.98761,9.725655 -12.58667,12.714943 -19.969299,40.989525c-8.869263,24.634888 17.246521,42.164978 36.130737,45.092957c25.197083,7.635254 45.926025,14.392471 64.613831,20.079407c22.012451,6.69873 41.523071,12.481461 65.372131,13.173294c21.837769,0.633469 45.008301,-1.412231 65.953125,-8.291641c19.274353,-6.330688 36.663696,-16.330017 49.394592,-32.526672c21.23822,-27.019928 35.574585,-53.772018 35.574585,-53.772018c6.09375,-17.598129 15.950439,-33.475563 14.128418,-52.831787c-1.076294,-6.922699 -8.375732,-12.307274 -12.567871,-7.984505c-1.324951,1.366234 -4.253418,5.541603 -6.500488,5.541603c-5.356934,0 -7.661133,-4.264877 -2.390015,-7.820244l6.037231,-2.289345c-2.730347,-9.442505 -15.548523,-7.098389 -8.340332,-14.805595c6.407837,-4.960335 11.37915,-3.641823 9.790527,2.189972c-0.686401,2.519554 2.995361,5.742455 9.604736,8.807983c8.965576,4.158279 9.548828,1.920876 9.90918,1.148361c0.550537,-1.179932 0.702393,-3.714493 2.192261,-4.957207c1.96106,-1.635696 5.509033,-1.853935 4.719849,-6.081963c-1.074097,-5.753654 -2.866455,-10.505634 2.733887,-9.965134c4.775391,0.460892 0.83667,6.653587 2.987671,8.972343c3.616333,3.898407 13.13269,-4.749687 15.557007,3.978638c-0.507813,2.584717 -1.434692,4.322876 -7.317871,3.247101c-5.888428,-1.076744 -10.635986,-0.549728 -14.197632,7.101135c-2.509399,5.389565 -6.59436,23.90152 -3.69873,22.728294c0.894531,-0.362495 11.35144,-6.244278 19.700439,-10.993614c17.390991,-9.893311 29.789307,-19.471275 29.001831,-27.016075c-0.372559,-3.569534 -0.073853,-7.977341 3.36853,-9.553761c7.77832,-3.561653 7.848511,-0.556522 6.429199,5.921795c-1.075073,4.906281 1.45874,4.783913 2.385132,4.969246c0.140259,0.859947 -10.512451,9.46376 -10.512451,9.46376c0,0 16.38501,-7.443741 16.38501,-3.69574c0,4.499046 -3.341309,6.334579 -15.07605,9.750748c-5.587891,1.626717 -14.43103,6.857185 -18.7677,9.935677c-10.174316,8.870766 -30.630859,11.901634 -34.330811,27.315804c-2.83667,6.196297 -4.68103,9.247154 -3.087769,10.264626c3.669189,2.342651 8.717651,3.192749 17.679199,-6.22081c4.821899,-5.065376 10.905151,-10.105499 13.518311,-11.200226c2.613159,-1.094742 5.616699,-3.95462 6.719971,-6.333443c2.652222,-5.718727 6.63269,-10.325867 6.484741,-2.883736c-0.087891,4.411026 2.273071,4.875931 7.092407,-1.075943c5.046021,-6.231842 8.94104,-2.882347 7.2948,5.122971c-0.899658,4.375633 -18.17334,5.504097 -18.640625,7.885384c0,1.517937 11.86792,1.539726 10.830811,2.149055c-7.446167,5.038193 -18.157471,2.684677 -23.512695,10.508743l13.515503,1.905121c5.159546,0.814133 11.01123,2.553741 13.003784,3.865814c1.992554,1.312057 9.350098,4.099747 16.350342,6.194839c11.648804,3.48642 19.5625,6.95079 19.79834,10.163544c0.254395,3.464417 -22.372559,-4.151123 -35.881836,-9.874512c-2.719482,-1.152191 7.695801,7.094666 11.439697,12.814438c2.742188,4.189651 5.567749,10.998672 5.686523,18.613373c0.216553,13.877594 3.153931,15.025238 11.422607,17.636749c7.994751,2.524963 7.603271,7.87886 -0.536865,8.568359c-12.483154,-1.736069 -16.017578,-12.836792 -18.235352,-23.57312c-4.393921,4.14418 -12.822632,15.278061 -15.068848,8.473663c0,-1.790466 0.888794,-3.990295 3.238525,-5.537567c7.487305,-4.930298 11.72876,-10.831482 9.673462,-16.764618c-3.393188,-9.795044 -33.980225,-32.457611 -43.361694,-24.636871c-1.935303,1.613327 2.677002,5.047729 5.381836,10.679367c4.366333,9.09053 4.528687,16.876465 3.357056,18.781662c-0.553589,0.900116 -5.560791,0.815826 -5.48645,-1.461472c0.40332,-12.368637 -3.276123,-18.812866 -4.786743,-19.765366c-1.037476,-0.53302 -1.547974,6.865479 1.234009,24.105087c0.289063,1.79126 -0.907104,2.3396 -2.770264,2.3396c-4.870728,0 -6.653442,-2.639587 -5.061401,-7.390839c1.650879,-4.926483 -0.03479,-10.916351 -1.71582,-15.944763c-2.28186,-6.82486 -8.481201,-10.325699 -14.306274,-3.42334c-2.000732,2.298752 -3.870483,4.656891 -5.632935,7.053391c-14.773926,20.089569 -22.011169,42.873718 -35.724182,55.912796c-16.515808,15.704147 -33.794067,27.269882 -53.180542,34.029297c-20.63623,7.195251 -43.427124,9.546265 -69.496826,7.528564c-20.950867,-1.62146 -43.676941,-8.791641 -69.647644,-14.209961l-60.477356,-15.576782c-14.668945,2.519714 -31.057007,17.612122 -31.999512,22.786972c-1.514893,8.31813 12.360413,15.378571 31.786499,19.955902c9.121216,3.715881 9.477112,4.915527 -0.478088,3.732727l-9.403137,-0.438782c2.279724,5.159576 9.580139,7.500061 10.446533,10.70813c-6.2948,5.397583 -44.900208,-29.320679 -45.920776,-20.318054c-4.061401,19.508484 55.134949,48.085205 38.37262,47.076752c-3.568787,-0.655823 -7.802002,-1.685242 -9.005859,-1.868469c-3.443542,-0.524139 -7.401978,3.087494 -3.453979,8.09613c2.188538,2.776489 6.069153,7.410828 4.035278,8.501251c-10.096619,-4.650604 -12.413513,-21.233459 -22.989014,-25.208069c-4.452759,4.060425 -0.124634,14.561218 -4.705566,18.492981c-0.233276,-16.304382 -0.386292,-32.606384 -9.759155,-49.187012l-9.748108,0l-12.022278,0c1.639587,10.261353 4.663879,49.457214 2.646179,45.433716c-2.947327,-5.877197 -5.768677,-12.207336 -8.168457,-20.053467c-5.038452,6.381042 -10.089233,28.522278 -10.465149,38.009094c-1.890198,-7.479736 -3.979187,-9.536377 -9.98407,-3.075134l-0.000061,0l-0.000061,0.000031l-0.000061,0.000031zm62.884583,-177.11377c6.894226,-13.784729 9.117615,-41.316536 7.516785,-46.612686c-1.650757,-5.461273 -27.03009,43.26918 -21.089172,50.937881c3.213684,4.148285 7.187317,11.54068 9.177856,9.430084c0.747375,-0.79245 2.363098,-7.106232 4.394531,-13.75528z" id="svg_14"/>
    <path class="Cell_Body_Nucleus" d="m690.779175,222.3479c-4.828491,-2.651855 -8.332397,0.331116 -8.332397,5.257263c0,5.890625 17.456482,25.472717 22.073608,20.728516c9.142517,-9.394226 -3.685791,-23.139832 -13.741211,-25.985779z" id="svg_15"/>
   </g>
   <g id="svg_16">
    <g id="svg_17" class="Small_Cell">
     <path d="m759.338867,211.983643c17.38623,-3.958618 33.910828,4.17865 50.095337,9.763489c4.137451,1.740967 7.774231,4.97876 9.61731,9.211792c-0.330627,7.500305 -7.993042,13.582764 -15.139038,12.07959c-12.173706,0.240479 -24.851563,-1.21283 -35.613403,-7.486694c-5.085815,-2.312012 -10.619812,-5.639343 -12.25354,-11.49939c-0.706787,-4.295654 1.05188,-8.538635 3.293335,-12.068787z" id="svg_18"/>
     <path d="m828.337036,231.810913c8.820435,-2.120911 15.962402,0.096008 24.266357,1.80249c7.02063,1.44281 16.864685,1.905151 23.096863,5.107056c26.313049,23.330811 -15.031067,21.431091 -28.359436,18.926025c-15.378723,-3.646912 -36.178223,-15.563782 -19.003784,-25.835571z" id="svg_19"/>
     <path d="m892.657471,244.428284c8.565063,-2.603638 55.588806,-14.450745 58.473022,-1.50209c4.895569,21.978775 -32.598083,23.853226 -46.193726,21.028946c-6.415161,-1.332642 -22.463867,-9.677322 -12.279297,-19.526855z" id="svg_20"/>
     <path d="m957.270142,235.115479c3.465576,-6.754456 42.796143,-38.490173 50.871582,-19.22644c4.016052,9.580261 -52.28064,46.773926 -52.041016,27.337585c0.041931,-3.399475 -1.165344,-4.510437 1.169434,-8.111145z" id="svg_21"/>
     <path d="m1015.121948,210.857117c7.345154,-1.181396 10.425415,-8.647156 16.409058,-14.795349c8.608398,-8.845337 17.249512,-22.470947 17.249512,-34.547516c0,-2.798431 -13.807129,-10.747162 -16.236694,-8.250702c-6.372192,6.547668 -47.405518,54.512695 -17.421875,57.593567z" id="svg_22"/>
    </g>
    <g class="Small_Cell_Nucleus" id="svg_23">
     <path d="m777.904053,225.352051c1.790222,-0.312561 3.117676,-0.56189 4.166199,-2.177979c3.269897,-5.039856 -5.878357,-5.346741 -8.332397,-4.506226c-5.006409,1.714706 0.003479,7.410889 4.166199,6.684189l0,0.000015z" id="svg_24"/>
     <path d="m848.729553,250.211243c1.923279,-0.183777 3.659241,-0.530518 4.970215,-1.877563c4.260193,-4.377502 -4.798523,-5.841797 -7.382263,-4.956848c-4.191833,1.43573 -1.656982,7.223145 2.412048,6.834412z" id="svg_25"/>
     <path d="m919.774292,255.693787c14.298462,0.900085 7.411865,-12.626953 -2.046509,-6.834412c-3.093872,1.894791 -0.833374,6.834412 2.046509,6.834412z" id="svg_26"/>
     <path d="m981.975037,223.249146c-1.77655,0.047119 -3.339905,1.28656 -4.750916,2.253113c-4.920532,3.370605 2.026855,8.106323 5.918823,6.506653c6.439331,-2.646606 5.806152,-9.533447 -1.167908,-8.759766z" id="svg_27"/>
     <path d="m1023.07373,185.82196c1.404785,0.535095 3.451416,-1.454559 4.18396,-2.960144c0.475586,-0.977356 1.249146,-2.092651 1.522339,-3.216553c3.067871,-12.622177 -16.39093,2.106659 -5.706299,6.176712l0,-0.000015z" id="svg_28"/>
    </g>
   </g>
  </g>
 </g>
</svg>